<svg xmlns="http://www.w3.org/2000/svg" xmlns:xlink="http://www.w3.org/1999/xlink" width="2560" zoomAndPan="magnify" viewBox="0 0 1920 1079.999946" height="1440" preserveAspectRatio="xMidYMid meet" version="1.2"><defs><clipPath id="4a2df38d0e"><path d="M 1046.53125 96 L 1865 96 L 1865 959 L 1046.53125 959 Z M 1046.53125 96 "/></clipPath><clipPath id="0edb40d763"><path d="M 1335 780 L 1469 780 L 1469 971.667969 L 1335 971.667969 Z M 1335 780 "/></clipPath></defs><g id="06b6e93539"><g clip-rule="nonzero" clip-path="url(#4a2df38d0e)"><path style=" stroke:none;fill-rule:nonzero;fill:#ffffff;fill-opacity:1;" d="M 1370.964844 97.078125 C 1336.953125 99.796875 1307.367188 119.363281 1292.535156 149.027344 C 1286.710938 160.753906 1282.050781 179.3125 1282.050781 190.882812 C 1282.050781 197.328125 1283.527344 205.945312 1286.320312 216.039062 C 1290.4375 230.792969 1300.6875 250.050781 1309.695312 260.070312 C 1313.035156 263.796875 1313.113281 263.953125 1311.402344 264.339844 C 1310.394531 264.496094 1304.257812 265.582031 1297.660156 266.746094 C 1291.058594 267.914062 1284.925781 269.078125 1283.992188 269.464844 C 1283.0625 269.777344 1279.644531 270.476562 1276.382812 271.019531 C 1268.617188 272.183594 1266.289062 271.40625 1259.765625 265.503906 C 1252.234375 258.671875 1249.980469 258.128906 1229.246094 258.4375 C 1219.695312 258.515625 1208.359375 259.136719 1202.84375 259.835938 C 1190.421875 261.46875 1190.730469 261.46875 1184.90625 259.136719 C 1178.074219 256.496094 1173.027344 255.953125 1166.425781 257.351562 C 1151.441406 260.457031 1136.21875 272.417969 1119.835938 294.003906 C 1109.816406 307.128906 1101.277344 316.523438 1094.519531 321.882812 C 1082.097656 331.585938 1076.816406 338.265625 1071.300781 351.15625 C 1069.050781 356.4375 1064.390625 365.910156 1060.976562 372.355469 C 1048.785156 395.183594 1046.53125 403.960938 1046.53125 429.042969 C 1046.53125 453.65625 1048.707031 465.460938 1058.414062 494.582031 C 1068.664062 525.175781 1071.148438 539.386719 1071.148438 567.261719 C 1071.226562 583.648438 1070.992188 585.898438 1069.128906 594.828125 C 1067.964844 600.1875 1066.332031 607.875 1065.480469 611.914062 C 1062.761719 624.726562 1062.0625 633.113281 1063.070312 640.179688 C 1064.003906 646.625 1066.101562 652.679688 1068.042969 654.15625 C 1069.285156 655.085938 1075.03125 669.453125 1078.214844 679.46875 C 1082.40625 692.828125 1081.550781 706.960938 1075.109375 730.644531 C 1068.585938 754.558594 1066.410156 770.402344 1067.652344 784.84375 C 1069.128906 801.773438 1072.621094 811.636719 1079.609375 819.089844 C 1083.417969 823.128906 1083.882812 823.902344 1084.347656 828.019531 C 1084.582031 830.503906 1085.589844 834 1086.445312 835.785156 C 1089.085938 840.988281 1099.257812 850.382812 1106.089844 853.878906 C 1109.351562 855.507812 1111.992188 857.292969 1111.992188 857.761719 C 1111.992188 858.304688 1113.390625 860.402344 1115.097656 862.417969 C 1121 869.484375 1123.640625 882.917969 1121.15625 892.78125 C 1120.457031 895.421875 1118.671875 898.371094 1115.097656 902.722656 C 1101.664062 918.871094 1097.859375 928.191406 1099.566406 940.304688 C 1100.421875 946.515625 1105.238281 956.921875 1107.101562 956.535156 C 1108.34375 956.300781 1108.496094 955.601562 1108.265625 951.097656 C 1107.875 944.421875 1109.585938 940.539062 1116.03125 933.550781 C 1133.113281 915.066406 1138.394531 904.816406 1138.394531 890.296875 C 1138.394531 885.871094 1138.007812 883.542969 1137.152344 882.296875 C 1136.53125 881.367188 1135.675781 880.746094 1135.367188 880.980469 C 1134.976562 881.132812 1134.898438 884.394531 1135.054688 888.121094 C 1135.910156 902.722656 1130.707031 913.359375 1114.011719 931.0625 C 1109.585938 935.644531 1106.246094 941.003906 1105.3125 944.574219 C 1103.917969 950.320312 1101.585938 938.128906 1102.75 930.988281 C 1103.992188 923.222656 1107.953125 916.15625 1116.960938 905.4375 C 1121.464844 900.082031 1126.359375 893.480469 1127.679688 890.683594 C 1129.929688 886.257812 1130.242188 884.9375 1130.242188 879.425781 C 1130.242188 874.066406 1129.929688 872.515625 1127.832031 868.164062 C 1124.105469 860.246094 1121.542969 857.914062 1111.605469 853.101562 C 1104.691406 849.761719 1101.664062 847.820312 1097.316406 843.628906 C 1090.40625 837.183594 1088.152344 833.378906 1087.453125 827.398438 C 1086.910156 823.207031 1086.523438 822.273438 1082.640625 818.078125 C 1075.339844 809.925781 1072.390625 801.929688 1070.835938 785.542969 C 1069.90625 775.214844 1070.679688 764.34375 1073.242188 751.53125 C 1074.71875 744.15625 1079.066406 727.226562 1079.765625 726.0625 C 1079.921875 725.828125 1080.777344 721.945312 1081.707031 717.519531 C 1083.882812 706.570312 1084.503906 694.613281 1083.261719 687.234375 C 1081.785156 678.152344 1071.300781 650.507812 1068.816406 649.03125 C 1065.402344 646.933594 1065.011719 629.152344 1068.117188 614.628906 C 1073.632812 588.929688 1074.019531 586.210938 1074.484375 571.921875 C 1075.261719 545.597656 1071.535156 522.769531 1061.90625 494.96875 C 1055.695312 476.953125 1052.898438 466.859375 1051.421875 457.460938 C 1049.949219 447.132812 1049.171875 430.128906 1049.871094 418.945312 C 1050.957031 400.777344 1053.285156 393.320312 1063.925781 373.441406 C 1067.496094 366.84375 1071.847656 357.835938 1073.710938 353.332031 C 1078.214844 342.382812 1080.855469 338.652344 1089.863281 330.421875 C 1103.605469 317.84375 1113.078125 307.980469 1119.371094 299.75 C 1133.035156 281.65625 1140.644531 273.96875 1152.136719 266.59375 C 1158.582031 262.398438 1166.894531 259.757812 1173.335938 259.835938 C 1178.460938 259.835938 1184.210938 261.3125 1184.210938 262.476562 C 1184.210938 262.789062 1182.65625 265.039062 1180.714844 267.445312 C 1176.832031 272.105469 1174.890625 276.6875 1174.890625 280.804688 C 1174.890625 284.53125 1176.910156 284.296875 1177.609375 280.492188 C 1178.386719 276.222656 1180.636719 271.796875 1184.054688 268.066406 C 1186.925781 264.808594 1187.394531 264.652344 1192.828125 264.03125 C 1196.011719 263.640625 1201.757812 262.941406 1205.640625 262.554688 C 1209.523438 262.089844 1220.394531 261.621094 1229.714844 261.546875 C 1249.59375 261.390625 1250.757812 261.621094 1258.289062 268.300781 C 1266.753906 275.753906 1268.617188 275.988281 1286.320312 272.183594 C 1298.902344 269.464844 1306.746094 268.066406 1311.636719 267.445312 L 1315.984375 266.980469 L 1318.859375 270.398438 C 1322.199219 274.203125 1325.457031 280.335938 1327.476562 286.472656 C 1329.808594 293.691406 1337.261719 300.136719 1344.949219 301.613281 C 1349.917969 302.625 1357.761719 305.417969 1359.9375 306.972656 C 1361.179688 307.824219 1364.984375 308.992188 1368.476562 309.613281 C 1373.371094 310.464844 1375.542969 311.242188 1377.796875 313.027344 C 1381.601562 316.136719 1385.949219 317.921875 1393.328125 319.628906 C 1400.472656 321.335938 1402.488281 323.046875 1404.820312 329.722656 C 1407.070312 336.089844 1406.605469 343.546875 1403.265625 353.40625 C 1400.082031 363.113281 1395.035156 371.113281 1385.640625 381.597656 C 1366.148438 403.261719 1358.773438 409.238281 1343.398438 415.683594 C 1331.902344 420.5 1324.992188 421.976562 1312.722656 422.128906 C 1304.414062 422.285156 1301.851562 422.519531 1301.851562 423.296875 C 1301.851562 426.167969 1320.800781 426.089844 1330.972656 423.21875 C 1347.046875 418.714844 1360.558594 411.648438 1370.730469 402.328125 L 1375.078125 398.367188 L 1376.632812 404.425781 C 1377.484375 407.6875 1379.425781 414.910156 1380.980469 420.5 C 1384.863281 434.246094 1388.046875 450.863281 1389.601562 464.761719 C 1390.609375 474.078125 1390.765625 482.777344 1390.609375 508.246094 C 1390.296875 546.761719 1390.222656 545.984375 1400.082031 562.605469 C 1403.578125 568.425781 1406.21875 573.398438 1405.984375 573.628906 C 1404.898438 574.71875 1390.375 569.125 1374.457031 561.515625 C 1356.832031 553.050781 1337.882812 545.441406 1328.640625 543.113281 C 1325.457031 542.335938 1318.625 541.714844 1310.160156 541.480469 L 1296.804688 541.015625 L 1297.347656 538.222656 C 1298.589844 532.472656 1297.96875 519.429688 1296.105469 512.207031 C 1293.542969 502.34375 1290.980469 496.445312 1282.4375 481.070312 C 1273.898438 465.460938 1268.773438 454.976562 1266.988281 448.84375 C 1266.289062 446.511719 1265.355469 439.058594 1264.890625 432.148438 C 1263.570312 410.792969 1260.851562 399.765625 1253.164062 385.167969 C 1246.796875 372.898438 1242.527344 366.765625 1235.070312 358.921875 C 1226.996094 350.457031 1220.238281 345.566406 1201.679688 335.003906 C 1185.605469 325.839844 1181.179688 322.269531 1176.445312 314.738281 C 1173.105469 309.535156 1168.445312 298.742188 1167.515625 294.238281 C 1167.28125 292.761719 1166.816406 291.054688 1166.660156 290.355469 C 1166.425781 289.578125 1166.894531 288.957031 1167.746094 288.722656 C 1168.832031 288.414062 1169.609375 286.628906 1170.851562 281.65625 C 1172.871094 273.738281 1172.949219 272.570312 1171.394531 272.570312 C 1170.699219 272.570312 1169.84375 274.046875 1169.144531 276.609375 C 1166.425781 286.859375 1166.503906 286.628906 1166.425781 282.046875 C 1166.347656 279.015625 1166.039062 278.007812 1165.183594 278.007812 C 1163.476562 278.007812 1162.933594 281.269531 1163.554688 288.101562 C 1164.71875 302.390625 1174.8125 321.804688 1184.441406 328.328125 C 1186.226562 329.570312 1193.683594 333.996094 1200.90625 338.1875 C 1208.203125 342.382812 1216.667969 347.585938 1219.851562 349.757812 C 1232.042969 358.144531 1242.214844 370.414062 1250.757812 387.1875 C 1258.054688 401.242188 1260.464844 411.257812 1261.785156 432.378906 C 1262.714844 446.359375 1264.5 453.503906 1270.015625 464.296875 C 1271.492188 467.324219 1272.734375 470.429688 1272.734375 471.285156 C 1272.734375 472.136719 1274.519531 477.1875 1276.617188 482.542969 C 1278.789062 487.902344 1281.042969 494.503906 1281.664062 497.21875 C 1283.527344 505.453125 1283.914062 520.207031 1282.515625 530.84375 C 1280.574219 545.210938 1279.644531 547.617188 1274.75 551.34375 C 1272.113281 553.363281 1269.625 556.160156 1267.683594 559.574219 L 1264.65625 564.777344 L 1262.40625 562.136719 C 1261.242188 560.664062 1258.988281 557.011719 1257.511719 553.984375 C 1253.785156 546.53125 1252.929688 539.539062 1254.019531 527.503906 C 1256.96875 497.066406 1257.359375 490.699219 1256.890625 479.128906 C 1255.648438 446.046875 1246.175781 409.007812 1233.285156 386.953125 C 1225.363281 373.441406 1217.753906 366.144531 1197.644531 352.863281 C 1190.886719 348.4375 1184.054688 343.15625 1181.101562 340.207031 C 1173.804688 332.832031 1168.601562 322.191406 1164.328125 305.960938 C 1163.085938 301.148438 1162.234375 299.285156 1161.300781 299.050781 C 1160.136719 298.820312 1159.980469 299.207031 1160.371094 301.847656 C 1161.144531 306.738281 1164.640625 318.152344 1167.28125 324.445312 C 1170.542969 332.285156 1176.367188 340.828125 1181.414062 345.097656 C 1184.90625 348.128906 1186.148438 350.070312 1190.1875 358.53125 C 1196.402344 371.5 1200.828125 387.03125 1202.148438 400 C 1203.46875 414.054688 1202.535156 436.261719 1199.351562 467.089844 C 1194.226562 516.324219 1194.070312 524.863281 1197.644531 538.917969 C 1204.398438 564.933594 1218.222656 582.558594 1241.515625 594.75 C 1246.484375 597.390625 1252.15625 600.34375 1254.019531 601.429688 C 1256.660156 602.90625 1257.746094 603.136719 1258.523438 602.4375 C 1259.6875 601.507812 1259.453125 601.195312 1250.988281 594.597656 C 1238.644531 584.890625 1230.335938 568.738281 1227.304688 548.625 C 1226.605469 543.890625 1225.519531 537.289062 1224.898438 533.871094 C 1223.035156 524.320312 1213.949219 506.304688 1211 506.304688 C 1209.445312 506.304688 1209.523438 507.78125 1211.15625 511.429688 C 1212.320312 513.914062 1212.550781 517.097656 1212.628906 530.378906 C 1212.707031 543.8125 1212.941406 547.226562 1214.339844 552.121094 C 1217.445312 563.613281 1224.121094 575.804688 1231.421875 583.335938 C 1233.441406 585.433594 1234.761719 587.0625 1234.371094 587.0625 C 1233.207031 587.0625 1224.898438 580.230469 1220.707031 575.726562 C 1210.609375 565.011719 1204.011719 552.199219 1199.894531 535.582031 C 1197.71875 526.339844 1198.265625 506.382812 1201.527344 475.632812 C 1203.078125 461.5 1204.710938 444.261719 1205.253906 437.195312 C 1206.339844 422.441406 1205.796875 399.378906 1204.089844 390.527344 C 1202.535156 382.140625 1196.945312 364.824219 1193.761719 358.53125 C 1192.285156 355.582031 1191.199219 353.019531 1191.429688 352.863281 C 1191.585938 352.710938 1196.246094 355.582031 1201.757812 359.308594 C 1213.949219 367.539062 1223.191406 376.625 1229.167969 386.253906 C 1239.730469 403.261719 1247.804688 428.886719 1252.234375 459.324219 C 1254.328125 473.304688 1254.175781 495.976562 1251.84375 518.574219 C 1250.214844 534.261719 1250.136719 537.523438 1250.914062 543.035156 C 1251.921875 550.566406 1255.417969 558.410156 1260.230469 564.15625 C 1261.9375 566.253906 1263.414062 568.425781 1263.414062 568.972656 C 1263.414062 571.457031 1265.589844 569.515625 1267.996094 564.855469 C 1271.257812 558.566406 1273.433594 555.847656 1277.238281 553.519531 C 1278.789062 552.585938 1280.808594 551.1875 1281.585938 550.414062 C 1283.371094 548.78125 1290.050781 546.140625 1295.5625 544.976562 C 1300.765625 543.890625 1322.121094 544.664062 1328.253906 546.21875 C 1336.484375 548.238281 1357.296875 556.703125 1373.679688 564.546875 C 1396.589844 575.648438 1416.621094 581.628906 1436.96875 583.570312 C 1448.769531 584.65625 1470.28125 587.21875 1483.171875 589.003906 C 1490.625 590.09375 1498.3125 591.179688 1500.253906 591.414062 C 1509.574219 592.65625 1521.839844 596.460938 1530.925781 601.042969 C 1539.390625 605.234375 1546.921875 607.71875 1555.464844 609.117188 C 1557.949219 609.582031 1558.417969 610.050781 1559.503906 612.921875 C 1560.746094 616.105469 1561.054688 618.4375 1560.902344 621.695312 C 1560.746094 624.492188 1553.679688 634.433594 1547.234375 640.878906 C 1537.992188 650.195312 1529.140625 656.953125 1515.863281 664.792969 C 1496.992188 675.898438 1491.167969 679.625 1487.597656 682.730469 C 1484.644531 685.292969 1484.414062 685.683594 1485.578125 686.847656 C 1486.664062 688.011719 1487.054688 688.011719 1490.625 686.769531 C 1495.90625 684.984375 1523.394531 671.160156 1532.945312 665.492188 C 1548.554688 656.253906 1558.804688 646.234375 1563.695312 635.519531 C 1566.492188 629.308594 1566.570312 622.007812 1563.695312 615.175781 C 1562.609375 612.535156 1562.066406 610.359375 1562.453125 610.359375 C 1563.464844 610.359375 1575.886719 616.648438 1576.199219 617.269531 C 1576.277344 617.503906 1578.21875 620.222656 1580.546875 623.328125 C 1584.738281 628.917969 1586.914062 633.964844 1588.933594 643.363281 C 1590.488281 650.738281 1590.253906 675.042969 1588.546875 684.363281 C 1586.992188 692.359375 1587.148438 695.078125 1589.089844 693.527344 C 1591.652344 691.429688 1594.914062 670.929688 1595.535156 653.457031 C 1596.15625 635.363281 1594.679688 628.453125 1587.925781 618.28125 C 1585.90625 615.175781 1586.605469 615.175781 1593.671875 618.203125 C 1602.679688 622.007812 1606.949219 622.628906 1624.886719 622.707031 C 1640.574219 622.863281 1641.425781 622.941406 1648.183594 625.035156 C 1651.988281 626.277344 1657.421875 627.753906 1660.140625 628.296875 C 1664.800781 629.308594 1665.5 629.773438 1672.488281 636.375 C 1681.261719 644.683594 1692.289062 657.960938 1696.792969 665.648438 C 1703.9375 677.839844 1706.34375 686.460938 1710.304688 713.09375 C 1713.175781 732.816406 1715.894531 741.671875 1719.3125 742.757812 C 1722.183594 743.6875 1723.351562 741.59375 1723.273438 735.613281 C 1723.117188 723.730469 1718.300781 706.492188 1708.597656 683.742188 C 1699.199219 661.457031 1694.617188 654.542969 1678.234375 638.082031 L 1669.226562 628.996094 L 1688.019531 628.996094 L 1692.523438 632.335938 C 1699.898438 637.847656 1704.945312 642.742188 1711.855469 651.128906 C 1721.332031 662.621094 1729.640625 674.5 1736.707031 686.691406 C 1746.414062 703.386719 1748.898438 707.039062 1750.683594 707.039062 C 1755.03125 707.039062 1750.449219 696.632812 1735.152344 671.78125 C 1725.136719 655.476562 1720.242188 648.410156 1713.253906 640.101562 L 1709.21875 635.285156 L 1715.195312 638.003906 C 1718.457031 639.558594 1723.117188 641.652344 1725.445312 642.742188 C 1732.203125 645.847656 1736.628906 649.574219 1742.375 656.796875 C 1750.527344 667.125 1755.808594 675.355469 1758.679688 682.1875 C 1764.972656 697.175781 1780.578125 726.527344 1784.773438 731.265625 C 1790.675781 737.941406 1798.128906 741.203125 1799.914062 737.863281 C 1801.078125 735.769531 1799.0625 731.265625 1794.402344 725.519531 C 1786.25 715.421875 1776.929688 703.078125 1771.417969 695.3125 C 1765.902344 687.46875 1759.925781 677.296875 1760.46875 676.753906 C 1760.699219 676.597656 1764.429688 679.160156 1768.933594 682.5 C 1779.335938 690.1875 1787.644531 699.039062 1795.101562 710.453125 C 1803.175781 722.722656 1806.128906 725.828125 1808.84375 724.820312 C 1809.542969 724.585938 1810.085938 723.578125 1810.085938 722.722656 C 1810.085938 720.859375 1803.253906 707.113281 1799.835938 702.144531 C 1793.160156 692.4375 1780.96875 682.652344 1765.28125 674.5 C 1756.972656 670.152344 1755.265625 668.597656 1748.042969 659.046875 C 1742.609375 651.902344 1733.210938 642.199219 1731.660156 642.199219 C 1731.191406 642.199219 1730.882812 641.886719 1730.882812 641.421875 C 1730.882812 639.089844 1752.46875 644.992188 1766.214844 651.050781 C 1782.753906 658.269531 1789.355469 663.472656 1807.757812 683.972656 C 1817.308594 694.535156 1820.183594 698.339844 1824.609375 706.105469 C 1833.074219 721.09375 1834.9375 727.148438 1832.0625 730.566406 C 1831.285156 731.496094 1828.492188 733.90625 1825.773438 736.078125 C 1821.503906 739.417969 1819.40625 740.351562 1807.523438 744.15625 C 1800.226562 746.484375 1792.070312 748.890625 1789.507812 749.359375 C 1786.945312 749.902344 1780.8125 751.84375 1775.921875 753.785156 C 1767.921875 756.96875 1766.136719 757.355469 1759.226562 757.667969 C 1753.710938 757.976562 1749.90625 757.667969 1746.179688 756.8125 C 1739.578125 755.257812 1732.125 755.257812 1725.058594 756.734375 C 1722.105469 757.433594 1714.886719 758.289062 1709.140625 758.675781 C 1703.394531 759.140625 1695.472656 759.839844 1691.511719 760.230469 C 1687.550781 760.695312 1683.902344 761.003906 1683.359375 761.003906 C 1682.894531 761.003906 1683.515625 759.839844 1684.910156 758.441406 C 1689.339844 753.9375 1694.074219 744.464844 1695.550781 737.398438 C 1698.191406 724.820312 1695.394531 693.136719 1690.425781 679.082031 C 1688.25 672.949219 1684.757812 666.035156 1683.125 664.714844 C 1682.039062 663.863281 1681.652344 663.863281 1680.5625 665.027344 C 1678.234375 667.355469 1678.933594 682.265625 1682.347656 702.378906 C 1686 724.277344 1686.699219 737.710938 1684.523438 743.921875 C 1682.816406 748.660156 1676.914062 758.132812 1674.117188 760.695312 C 1672.410156 762.171875 1671.011719 762.402344 1659.054688 762.792969 C 1651.832031 763.101562 1640.960938 764.035156 1634.980469 764.964844 C 1620.070312 767.21875 1594.058594 767.296875 1575.1875 765.042969 C 1567.96875 764.1875 1555.386719 762.871094 1547.234375 762.171875 C 1539.160156 761.472656 1531.859375 760.539062 1531.003906 760.074219 C 1530.226562 759.683594 1529.296875 759.609375 1528.90625 759.996094 C 1528.519531 760.382812 1524.558594 760.382812 1519.902344 759.996094 C 1507.242188 758.988281 1482.703125 759.917969 1473.773438 761.703125 C 1461.273438 764.1875 1455.992188 766.75 1443.566406 776.148438 C 1437.433594 780.730469 1430.132812 785.621094 1427.339844 786.941406 C 1422.292969 789.269531 1422.058594 789.347656 1407.847656 789.582031 C 1394.492188 789.890625 1392.785156 789.738281 1384.242188 787.796875 C 1365.839844 783.679688 1355.042969 778.789062 1341.222656 768.382812 C 1324.683594 756.035156 1308.140625 737.632812 1293.542969 715.578125 C 1279.800781 694.769531 1272.964844 680.089844 1266.132812 656.5625 C 1264.113281 649.730469 1261.550781 641.652344 1260.464844 638.703125 C 1259.375 635.675781 1258.289062 632.023438 1258.054688 630.550781 C 1257.511719 627.597656 1255.492188 626.746094 1255.027344 629.308594 C 1254.871094 630.160156 1256.113281 635.207031 1257.824219 640.566406 C 1259.609375 645.925781 1262.949219 656.5625 1265.355469 664.25 C 1267.761719 671.859375 1271.101562 681.257812 1272.734375 684.984375 C 1280.265625 702.300781 1298.824219 730.644531 1313.886719 747.648438 C 1324.605469 759.839844 1343.164062 774.90625 1355.199219 781.195312 C 1367.003906 787.40625 1387.660156 792.84375 1399.230469 792.84375 C 1403.34375 792.84375 1405.519531 793.152344 1405.519531 793.695312 C 1405.519531 795.25 1389.675781 810.316406 1383.777344 814.273438 C 1380.59375 816.527344 1365.914062 825.535156 1351.160156 834.386719 C 1325.847656 849.605469 1306.820312 862.03125 1304.570312 864.59375 C 1303.792969 865.601562 1303.871094 865.914062 1304.804688 866.300781 C 1305.503906 866.535156 1310.550781 863.660156 1317.925781 858.769531 C 1324.449219 854.34375 1339.4375 845.027344 1351.160156 838.035156 C 1380.359375 820.488281 1384.007812 818.234375 1391.308594 812.566406 C 1396.820312 808.21875 1404.976562 799.832031 1408.625 794.628906 C 1409.554688 793.308594 1410.875 792.921875 1415.457031 792.453125 C 1418.640625 792.222656 1421.050781 792.300781 1421.050781 792.6875 C 1421.050781 793.773438 1412.972656 804.878906 1406.761719 812.257812 C 1403.734375 815.90625 1390.917969 829.183594 1378.339844 841.839844 C 1355.511719 864.671875 1343.550781 875 1335.863281 878.414062 C 1332.449219 879.890625 1331.671875 881.054688 1333.613281 881.832031 C 1335.320312 882.453125 1341.53125 878.960938 1349.609375 872.824219 C 1371.660156 855.972656 1416.777344 808.0625 1424 793.851562 C 1425.476562 791.058594 1428.269531 788.960938 1429.28125 789.890625 C 1429.433594 790.125 1426.949219 795.484375 1423.84375 801.851562 C 1415.925781 817.691406 1402.878906 838.347656 1394.492188 848.210938 C 1392.628906 850.382812 1392.238281 851.316406 1392.9375 852.015625 C 1393.636719 852.714844 1394.335938 852.480469 1395.890625 851.003906 C 1404.355469 843.160156 1428.269531 803.480469 1431.921875 791.132812 C 1432.851562 788.105469 1433.9375 787.019531 1444.421875 779.253906 C 1457.234375 769.703125 1463.757812 766.675781 1475.949219 764.421875 C 1484.179688 762.945312 1508.253906 762.171875 1519.667969 763.101562 L 1527.820312 763.722656 L 1527.589844 766.441406 C 1525.414062 792.222656 1513.53125 847.511719 1501.03125 889.910156 C 1499.710938 894.414062 1496.835938 905.050781 1494.742188 913.59375 C 1490.625 929.898438 1484.722656 948.847656 1482.316406 953.738281 C 1480.53125 957.234375 1480.453125 958.242188 1482.007812 958.242188 C 1482.628906 958.242188 1483.871094 957.078125 1484.722656 955.757812 C 1487.054688 951.953125 1492.800781 934.015625 1496.683594 918.25 C 1498.625 910.5625 1502.816406 895.035156 1506.078125 883.773438 C 1513.300781 858.382812 1514.773438 852.636719 1519.667969 830.117188 C 1524.480469 807.984375 1528.519531 785.386719 1529.839844 773.195312 L 1530.847656 764.113281 L 1533.023438 764.113281 C 1536.519531 764.113281 1568.433594 767.140625 1574.023438 767.996094 C 1583.886719 769.546875 1614.324219 770.632812 1619.0625 769.703125 C 1621.46875 769.160156 1625.121094 768.769531 1627.292969 768.769531 C 1629.390625 768.769531 1634.203125 768.226562 1638.007812 767.605469 C 1641.816406 766.984375 1650.511719 766.285156 1657.421875 765.976562 C 1664.332031 765.742188 1678.390625 764.65625 1688.714844 763.644531 C 1699.042969 762.636719 1709.292969 761.78125 1711.390625 761.78125 C 1713.566406 761.78125 1718.921875 761.082031 1723.273438 760.230469 C 1732.667969 758.441406 1739.578125 758.289062 1746.023438 759.839844 C 1751.847656 761.238281 1761.710938 761.316406 1767.378906 759.996094 C 1769.707031 759.375 1774.832031 757.667969 1778.714844 756.113281 C 1782.597656 754.558594 1788.578125 752.695312 1791.917969 751.996094 C 1795.257812 751.300781 1799.835938 750.132812 1801.933594 749.359375 C 1804.109375 748.582031 1809.3125 746.871094 1813.660156 745.550781 C 1818.628906 744 1822.667969 742.214844 1824.765625 740.660156 C 1826.628906 739.261719 1829.578125 737.011719 1831.363281 735.691406 C 1833.074219 734.449219 1835.015625 732.351562 1835.558594 731.03125 C 1836.179688 729.789062 1837.578125 728.160156 1838.664062 727.460938 C 1851.785156 719.304688 1856.988281 714.179688 1861.183594 705.25 C 1865.53125 696.011719 1865.144531 687.855469 1859.628906 674.8125 C 1853.882812 661.222656 1838.742188 632.101562 1832.839844 623.328125 C 1822.667969 608.261719 1805.660156 586.367188 1793.003906 572 C 1788.5 566.875 1779.027344 556.082031 1771.960938 548.003906 L 1758.992188 533.25 L 1758.449219 525.953125 C 1758.136719 521.914062 1758.058594 518.496094 1758.214844 518.339844 C 1758.371094 518.1875 1760.390625 518.886719 1762.71875 519.972656 C 1765.050781 521.058594 1770.019531 522.769531 1773.667969 523.777344 C 1777.316406 524.710938 1781.511719 526.183594 1782.988281 526.882812 C 1784.460938 527.660156 1787.179688 528.667969 1789.121094 529.214844 C 1792.539062 530.066406 1792.617188 530.144531 1793.390625 534.339844 C 1793.9375 536.667969 1794.710938 539.773438 1795.179688 541.25 C 1795.644531 542.726562 1796.421875 546.839844 1796.808594 550.335938 C 1797.273438 554.683594 1798.128906 558.023438 1799.527344 560.585938 C 1800.613281 562.757812 1802.089844 567.183594 1802.789062 570.523438 C 1804.339844 578.210938 1806.128906 582.171875 1809.464844 585.277344 C 1815.601562 591.179688 1820.726562 588.539062 1824.765625 577.359375 C 1827.09375 570.835938 1827.871094 567.261719 1829.5 554.21875 C 1829.964844 550.414062 1832.296875 540.628906 1834.625 532.472656 C 1838.121094 520.128906 1838.972656 516.089844 1839.363281 509.335938 C 1839.90625 499.394531 1839.050781 495.125 1835.324219 489.453125 C 1832.140625 484.71875 1829.8125 483.320312 1823.132812 482.234375 C 1805.660156 479.59375 1789.664062 475.789062 1787.414062 473.769531 C 1787.101562 473.535156 1787.957031 470.121094 1789.199219 466.316406 C 1790.441406 462.433594 1793.003906 454.046875 1794.789062 447.679688 C 1797.894531 436.574219 1798.050781 435.488281 1798.050781 425.546875 C 1798.050781 415.761719 1797.894531 414.597656 1795.488281 407.765625 C 1788.8125 388.507812 1776.621094 373.210938 1751.847656 353.019531 C 1745.636719 347.972656 1732.902344 336.945312 1723.503906 328.480469 C 1702.617188 309.765625 1688.09375 297.265625 1683.667969 294.160156 C 1674.195312 287.636719 1664.878906 284.761719 1655.171875 285.539062 C 1650.277344 285.851562 1648.335938 285.695312 1646.550781 284.761719 C 1645.230469 284.0625 1640.027344 282.746094 1634.902344 281.8125 C 1620.769531 279.25 1607.183594 273.347656 1596.15625 265.039062 C 1589.089844 259.757812 1582.253906 258.050781 1576.585938 260.226562 C 1574.722656 260.925781 1574.257812 260.847656 1573.246094 259.292969 C 1570.375 255.101562 1563.464844 248.421875 1560.511719 246.945312 C 1557.019531 245.316406 1547.46875 244.773438 1545.371094 246.09375 C 1544.59375 246.636719 1543.039062 245.78125 1539.933594 243.296875 C 1532.789062 237.394531 1527.199219 235.53125 1523.9375 237.9375 C 1522.695312 238.871094 1522.230469 238.792969 1520.523438 237.550781 C 1517.960938 235.765625 1507.242188 232.269531 1502.273438 231.648438 C 1500.097656 231.339844 1497.691406 230.484375 1496.449219 229.476562 C 1492.722656 226.292969 1482.78125 220.15625 1476.335938 217.050781 C 1471.523438 214.796875 1470.046875 213.710938 1470.359375 212.78125 C 1473.308594 205.246094 1475.09375 189.871094 1473.929688 182.804688 C 1472.53125 175.039062 1470.125 169.292969 1466.707031 165.878906 C 1463.835938 163.003906 1463.601562 162.925781 1460.03125 163.394531 L 1456.226562 163.859375 L 1454.128906 158.265625 C 1448.769531 144.367188 1437.589844 124.644531 1429.433594 114.78125 C 1426.484375 111.210938 1417.167969 104.066406 1411.964844 101.503906 C 1404.429688 97.621094 1387.503906 95.757812 1370.964844 97.078125 Z M 1403.035156 101.8125 C 1410.175781 103.679688 1412.273438 104.765625 1419.261719 109.96875 C 1425.085938 114.316406 1428.738281 118.355469 1435.027344 127.75 C 1439.375 134.195312 1447.996094 150.96875 1451.179688 159.199219 L 1453.429688 165.101562 L 1451.488281 167.972656 C 1449.9375 170.226562 1449.703125 171.082031 1450.480469 171.855469 C 1451.179688 172.554688 1451.800781 172.246094 1453.351562 170.304688 C 1455.449219 167.585938 1459.71875 165.800781 1462.4375 166.5 C 1464.613281 167.042969 1468.027344 172.246094 1469.738281 177.757812 C 1472.378906 186.378906 1470.824219 204.238281 1466.476562 214.023438 C 1465.464844 216.351562 1462.671875 220.234375 1460.417969 222.71875 L 1456.226562 227.144531 L 1455.757812 233.359375 C 1455.527344 237.628906 1454.363281 242.675781 1452.265625 249.277344 C 1450.480469 254.632812 1447.296875 264.882812 1445.121094 272.183594 C 1440.695312 286.859375 1438.597656 291.675781 1434.636719 296.800781 C 1433.164062 298.742188 1431.765625 301.304688 1431.453125 302.546875 C 1430.523438 306.429688 1428.738281 309.300781 1424.234375 313.960938 C 1419.109375 319.394531 1415.378906 321.492188 1409.867188 322.035156 C 1406.371094 322.425781 1405.597656 322.191406 1403.421875 320.40625 C 1401.867188 319.085938 1398.375 317.6875 1393.480469 316.445312 C 1385.171875 314.269531 1383.15625 313.417969 1378.960938 310.078125 C 1376.863281 308.371094 1374.613281 307.515625 1370.417969 306.816406 C 1367.234375 306.273438 1362.34375 304.71875 1359.316406 303.167969 C 1356.363281 301.691406 1351.238281 299.90625 1348.054688 299.050781 C 1336.5625 296.257812 1333.535156 293.617188 1329.417969 282.898438 C 1327.011719 276.53125 1321.886719 267.992188 1319.480469 266.125 C 1315.054688 262.867188 1305.503906 250.207031 1299.601562 239.800781 C 1293 228 1288.730469 215.886719 1286.246094 201.519531 C 1282.671875 181.40625 1290.515625 153.609375 1304.957031 134.738281 C 1309.230469 129.226562 1317.695312 121.460938 1325.769531 115.714844 C 1333.378906 110.277344 1347.976562 104.222656 1359.703125 101.660156 C 1371.039062 99.25 1393.480469 99.25 1403.035156 101.8125 Z M 1477.269531 220.855469 C 1486.820312 225.980469 1496.371094 232.734375 1494.742188 233.28125 C 1494.121094 233.433594 1492.332031 234.054688 1490.78125 234.523438 C 1487.753906 235.453125 1479.054688 240.734375 1478.125 242.289062 C 1477.8125 242.753906 1477.890625 243.53125 1478.355469 243.996094 C 1478.898438 244.539062 1480.453125 243.839844 1483.09375 242.054688 C 1487.132812 239.257812 1492.878906 236.773438 1499.011719 235.222656 C 1502.117188 234.445312 1503.28125 234.601562 1510.347656 236.929688 C 1514.699219 238.25 1518.425781 239.878906 1518.65625 240.5 C 1519.046875 241.511719 1518.191406 242.984375 1512.367188 250.75 L 1509.339844 254.789062 L 1505.300781 250.363281 C 1502.972656 247.878906 1500.796875 246.246094 1500.332031 246.480469 C 1498.933594 247.335938 1499.324219 248.34375 1502.429688 251.683594 C 1503.980469 253.46875 1507.941406 258.207031 1511.125 262.167969 C 1521.375 274.980469 1535.199219 290.433594 1549.175781 304.796875 C 1563.152344 319.164062 1574.101562 332.753906 1578.917969 341.683594 C 1588 358.457031 1596.386719 386.875 1601.125 416.617188 C 1606.015625 447.753906 1606.636719 459.945312 1603.921875 470.429688 L 1602.601562 475.246094 L 1605.394531 478.117188 C 1607.957031 480.835938 1609.277344 483.554688 1613.238281 494.8125 C 1613.9375 496.832031 1616.113281 500.480469 1618.054688 502.964844 C 1624.03125 510.652344 1626.050781 516.167969 1626.050781 524.710938 C 1626.050781 529.214844 1625.816406 529.835938 1623.332031 532.628906 C 1620.382812 535.890625 1615.414062 538.6875 1614.480469 537.597656 C 1614.171875 537.289062 1613.238281 535.347656 1612.539062 533.25 C 1611.21875 529.679688 1608.96875 528.203125 1608.96875 530.921875 C 1608.96875 531.699219 1609.820312 534.726562 1610.910156 537.753906 C 1612.929688 543.5 1613.394531 548.9375 1612.074219 551.421875 C 1610.910156 553.519531 1604.695312 556.160156 1601.433594 555.847656 C 1597.085938 555.460938 1596 553.207031 1595.066406 543.269531 C 1594.367188 535.035156 1593.4375 532.398438 1591.960938 533.871094 C 1590.953125 534.882812 1592.351562 551.421875 1593.824219 556.160156 C 1596.15625 563.457031 1594.992188 567.960938 1590.332031 570.367188 C 1585.90625 572.621094 1584.507812 572 1580.390625 565.863281 C 1578.296875 562.835938 1575.5 558.722656 1574.179688 556.78125 C 1571.382812 552.820312 1571.074219 550.257812 1572.082031 538.296875 L 1572.703125 531.078125 L 1570.140625 528.4375 C 1566.800781 525.019531 1561.367188 522.769531 1559.660156 524.164062 C 1558.105469 525.484375 1558.726562 526.183594 1561.988281 526.804688 C 1563.464844 527.117188 1565.792969 528.28125 1567.113281 529.367188 L 1569.597656 531.464844 L 1569.132812 537.753906 C 1568.820312 541.171875 1568.121094 545.984375 1567.421875 548.472656 C 1566.800781 550.957031 1566.257812 555.382812 1566.257812 558.332031 C 1566.257812 563.300781 1566.105469 563.769531 1564.707031 563.769531 C 1559.8125 563.769531 1554.6875 558.023438 1552.125 549.480469 C 1550.652344 544.511719 1550.574219 543.191406 1551.195312 532.007812 C 1552.515625 507.238281 1551.351562 480.914062 1548.476562 474.3125 C 1547.699219 472.449219 1546.148438 465.382812 1544.90625 458.550781 C 1540.945312 435.875 1533.878906 407.453125 1529.21875 395.652344 C 1525.101562 385.246094 1520.132812 374.917969 1517.339844 370.878906 C 1514.308594 366.453125 1511.046875 364.203125 1502.429688 360.707031 C 1490.003906 355.738281 1480.066406 349.292969 1466.242188 337.257812 C 1462.671875 334.148438 1459.410156 331.585938 1459.019531 331.585938 C 1455.683594 331.585938 1464.457031 340.671875 1476.957031 350.070312 C 1482.160156 353.953125 1492.410156 360.007812 1496.992188 361.871094 C 1499.324219 362.804688 1499.476562 363.113281 1499.089844 365.289062 C 1498.777344 366.609375 1497.769531 369.09375 1496.761719 370.800781 C 1494.199219 375.152344 1486.820312 382.683594 1484.492188 383.226562 C 1483.402344 383.539062 1480.296875 383.226562 1477.578125 382.527344 C 1474.863281 381.90625 1468.027344 381.207031 1462.359375 380.976562 L 1452.03125 380.585938 L 1442.171875 375.382812 C 1427.648438 367.773438 1419.960938 362.414062 1415.691406 357.058594 C 1409.867188 349.679688 1408.78125 346.964844 1409.167969 341.371094 C 1409.554688 337.101562 1408.703125 329.957031 1407.460938 326.851562 C 1407.070312 325.839844 1407.691406 325.53125 1410.875 325.140625 C 1420.039062 324.054688 1430.367188 314.96875 1433.707031 305.03125 C 1434.40625 303.011719 1436.191406 299.828125 1437.667969 297.886719 C 1441.394531 292.996094 1443.878906 287.09375 1447.527344 274.902344 C 1449.3125 269.15625 1452.1875 259.679688 1454.050781 253.933594 C 1457.855469 242.054688 1459.410156 234.753906 1458.632812 231.882812 C 1458.246094 230.171875 1458.867188 229.085938 1462.824219 224.816406 C 1465.386719 222.097656 1467.71875 219.148438 1468.027344 218.292969 C 1468.261719 217.359375 1468.726562 216.664062 1468.960938 216.664062 C 1469.195312 216.664062 1473 218.527344 1477.269531 220.855469 Z M 1533.257812 242.210938 C 1540.945312 246.636719 1546.847656 253.859375 1551.195312 264.109375 C 1553.914062 270.628906 1554.765625 274.203125 1556.550781 288.492188 C 1557.25 293.617188 1557.949219 299.128906 1558.105469 300.683594 C 1558.339844 302.234375 1558.183594 303.710938 1557.792969 304.019531 C 1557.328125 304.253906 1557.328125 305.339844 1557.71875 306.738281 C 1558.105469 308.058594 1558.105469 309.070312 1557.792969 309.070312 C 1556.707031 309.070312 1533.644531 284.0625 1534.109375 283.367188 C 1534.34375 282.976562 1534.109375 281.347656 1533.644531 279.792969 C 1533.257812 278.164062 1532.324219 271.097656 1531.703125 264.03125 C 1530.304688 249.277344 1529.839844 247.023438 1527.121094 243.453125 C 1523.9375 239.257812 1526.96875 238.636719 1533.257812 242.210938 Z M 1526.65625 249.277344 C 1527.433594 251.839844 1529.996094 278.007812 1529.53125 278.472656 C 1529.296875 278.707031 1514.152344 261.46875 1512.367188 258.984375 C 1511.203125 257.351562 1511.359375 257.117188 1519.667969 245.9375 L 1522.308594 242.289062 L 1524.09375 244.382812 C 1525.027344 245.625 1526.191406 247.800781 1526.65625 249.277344 Z M 1558.804688 249.585938 C 1563.308594 251.449219 1567.191406 255.644531 1573.867188 265.972656 C 1583.886719 281.269531 1583.574219 280.414062 1584.117188 298.585938 C 1584.351562 307.128906 1584.816406 314.582031 1585.128906 315.046875 C 1585.515625 315.589844 1586.214844 316.058594 1586.757812 316.058594 C 1587.535156 316.058594 1587.691406 313.960938 1587.457031 306.507812 C 1586.679688 280.027344 1586.679688 280.105469 1580.238281 270.164062 C 1577.984375 266.746094 1576.355469 263.71875 1576.664062 263.410156 C 1577.984375 262.167969 1586.835938 262.941406 1590.019531 264.574219 C 1595.457031 267.445312 1600.96875 273.117188 1603.453125 278.242188 C 1607.414062 286.703125 1608.5 293.070312 1608.65625 309.222656 C 1608.734375 317.222656 1608.96875 323.976562 1609.199219 324.367188 C 1610.675781 327.007812 1616.8125 348.128906 1621.390625 366.53125 C 1627.527344 390.914062 1628.613281 393.554688 1637.3125 405.359375 C 1639.949219 409.007812 1644.222656 415.453125 1646.707031 419.644531 C 1651.054688 427.023438 1653.308594 429.351562 1689.261719 465.460938 C 1730.960938 507.394531 1741.054688 518.03125 1769.554688 550.101562 C 1796.964844 581.007812 1800.148438 584.734375 1812.105469 600.34375 C 1830.042969 623.714844 1834.859375 631.25 1846.507812 654.699219 C 1858.777344 679.238281 1860.949219 685.140625 1860.949219 693.136719 C 1860.871094 697.953125 1860.484375 699.503906 1858 704.550781 C 1854.582031 711.464844 1850.621094 715.8125 1843.011719 720.859375 C 1839.90625 722.878906 1837.265625 724.507812 1837.03125 724.507812 C 1836.878906 724.507812 1835.945312 722.488281 1835.089844 720.082031 C 1832.761719 713.792969 1823.753906 697.71875 1819.949219 693.058594 C 1807.058594 677.296875 1791.527344 662 1781.820312 655.398438 C 1775.765625 651.28125 1760.078125 644.683594 1748.429688 641.265625 C 1739.191406 638.625 1736.550781 638.160156 1729.640625 638.003906 L 1721.640625 637.925781 L 1712.011719 632.957031 C 1706.730469 630.238281 1701.0625 627.832031 1699.433594 627.519531 L 1696.480469 627.054688 L 1692.832031 618.046875 C 1687.863281 605.699219 1685.378906 600.421875 1677.070312 585.121094 C 1668.140625 568.503906 1639.328125 525.253906 1624.886719 506.695312 C 1617.277344 496.910156 1616.886719 496.210938 1614.324219 488.601562 C 1612.929688 484.328125 1610.832031 479.902344 1609.199219 477.808594 L 1606.484375 474.234375 L 1607.726562 467.789062 C 1609.433594 459.09375 1609.277344 454.433594 1607.027344 436.574219 C 1602.988281 405.28125 1599.417969 387.417969 1593.359375 369.25 C 1585.984375 346.730469 1580.390625 336.015625 1567.890625 320.484375 C 1563.386719 314.96875 1562.375 313.183594 1562.375 310.933594 C 1562.375 309.457031 1562.066406 305.886719 1561.601562 303.011719 C 1561.210938 300.136719 1560.125 292.0625 1559.191406 284.996094 C 1557.328125 270.628906 1554.921875 262.789062 1549.875 254.402344 C 1548.242188 251.605469 1546.847656 249.199219 1546.847656 248.964844 C 1546.847656 248.035156 1556.320312 248.578125 1558.804688 249.585938 Z M 1621.082031 281.734375 C 1623.644531 282.589844 1629.078125 283.910156 1633.117188 284.609375 C 1637.078125 285.308594 1642.28125 286.550781 1644.6875 287.480469 C 1647.015625 288.335938 1649.578125 289.191406 1650.277344 289.421875 C 1651.597656 289.8125 1653.230469 293.382812 1653.230469 295.945312 C 1653.230469 296.800781 1651.445312 302.234375 1649.269531 308.058594 C 1641.503906 328.949219 1640.261719 337.957031 1642.746094 354.574219 C 1644.222656 364.355469 1644.222656 374.296875 1642.746094 383.613281 C 1641.503906 391.226562 1639.253906 402.25 1638.863281 402.25 C 1638.476562 402.25 1633.195312 393.941406 1631.640625 390.835938 C 1630.710938 389.128906 1627.136719 376.546875 1623.644531 362.960938 C 1620.226562 349.292969 1616.035156 334.539062 1614.324219 330.035156 L 1611.375 321.804688 L 1611.761719 311.398438 C 1612.382812 297.5 1610.753906 287.171875 1606.25 276.222656 C 1605.785156 275.058594 1606.636719 275.289062 1610.988281 277.464844 C 1613.9375 278.9375 1618.441406 280.878906 1621.082031 281.734375 Z M 1670.625 290.742188 C 1680.097656 294.316406 1684.136719 297.5 1720.011719 329.644531 C 1730.027344 338.652344 1742.996094 349.835938 1748.742188 354.417969 C 1779.648438 379.421875 1794.089844 400.855469 1795.101562 423.296875 C 1795.488281 430.90625 1795.332031 432.457031 1792.695312 442.941406 C 1789.277344 456.453125 1783.21875 475.398438 1780.269531 481.613281 C 1777.628906 487.125 1774.445312 491.007812 1765.125 499.78125 L 1757.828125 506.695312 L 1758.371094 496.988281 C 1758.679688 491.628906 1759.457031 484.71875 1760.15625 481.535156 C 1760.855469 478.195312 1761.167969 473.535156 1761.011719 470.273438 C 1760.699219 465.226562 1760.15625 463.675781 1754.332031 451.871094 C 1744.78125 432.613281 1739.96875 428.496094 1726.222656 428.03125 C 1720.164062 427.800781 1716.671875 428.1875 1707.199219 430.207031 C 1687.242188 434.398438 1684.214844 434.867188 1673.808594 435.332031 L 1663.710938 435.796875 L 1660.0625 432.304688 L 1656.414062 428.730469 L 1657.578125 425.933594 C 1660.375 419.179688 1667.519531 409.863281 1675.515625 402.40625 C 1680.019531 398.292969 1687.085938 391.769531 1691.203125 387.964844 C 1699.898438 379.886719 1705.878906 372.742188 1709.292969 366.066406 C 1711.703125 361.40625 1711.855469 358.765625 1709.605469 358.765625 C 1707.199219 358.765625 1675.75 393.941406 1675.75 396.738281 C 1675.75 397.125 1673.496094 399.609375 1670.703125 402.25 C 1667.984375 404.96875 1664.410156 409.007812 1662.859375 411.257812 C 1661.226562 413.589844 1659.832031 415.453125 1659.675781 415.453125 C 1659.285156 415.453125 1662.625 406.832031 1666.429688 398.292969 C 1668.449219 393.789062 1672.332031 386.253906 1675.128906 381.597656 C 1681.960938 370.335938 1683.28125 367.539062 1682.195312 366.453125 C 1681.183594 365.445312 1680.5625 366.296875 1673.652344 377.789062 C 1667.90625 387.417969 1663.167969 397.125 1659.441406 407.066406 C 1657.964844 410.871094 1656.722656 413.742188 1656.570312 413.589844 C 1656.257812 413.277344 1659.597656 391.613281 1661.539062 381.285156 C 1662.703125 375.382812 1663.402344 373.519531 1665.1875 371.734375 C 1667.984375 368.9375 1671.945312 360.320312 1672.488281 355.96875 C 1672.796875 353.253906 1672.566406 352.476562 1671.476562 352.089844 C 1670.703125 351.777344 1669.535156 351.855469 1668.835938 352.320312 C 1667.128906 353.332031 1663.558594 359.929688 1662.160156 364.589844 C 1659.207031 374.375 1653.386719 408.464844 1653.152344 417.550781 C 1653.074219 420.265625 1652.765625 422.441406 1652.53125 422.441406 C 1652.296875 422.441406 1649.734375 418.636719 1646.863281 413.976562 L 1641.660156 405.589844 L 1643.445312 396.738281 C 1646.550781 381.90625 1647.328125 374.21875 1646.785156 363.96875 C 1646.472656 358.765625 1645.929688 353.097656 1645.464844 351.390625 C 1644.378906 346.808594 1644.53125 335.546875 1645.851562 329.414062 C 1646.472656 326.386719 1648.027344 320.871094 1649.425781 317.066406 C 1657.035156 295.558594 1656.800781 296.488281 1655.09375 290.664062 C 1654.78125 289.5 1655.015625 288.878906 1656.101562 288.644531 C 1658.742188 287.871094 1665.578125 288.878906 1670.625 290.742188 Z M 1412.816406 358.144531 C 1415.226562 361.40625 1417.554688 364.203125 1417.941406 364.355469 C 1418.953125 364.667969 1420.117188 373.054688 1420.660156 384.003906 C 1421.4375 398.914062 1422.445312 405.589844 1426.25 421.664062 C 1429.433594 435.253906 1429.824219 437.816406 1429.902344 446.511719 L 1429.980469 456.21875 L 1425.476562 469.265625 C 1423.066406 476.488281 1421.050781 482.855469 1421.050781 483.476562 C 1421.050781 485.183594 1417.863281 484.796875 1410.953125 482.234375 C 1407.460938 480.914062 1402.179688 479.359375 1399.230469 478.660156 C 1395.269531 477.730469 1393.871094 477.109375 1393.871094 476.175781 C 1393.871094 475.476562 1393.171875 469.109375 1392.316406 462.042969 C 1390.453125 445.96875 1387.269531 430.59375 1382.222656 413.277344 C 1380.125 405.902344 1378.339844 399.222656 1378.339844 398.523438 C 1378.339844 395.574219 1382.222656 389.128906 1385.71875 386.253906 C 1392.785156 380.351562 1402.257812 366.21875 1405.519531 356.515625 C 1406.605469 353.484375 1407.613281 351.3125 1407.925781 351.621094 C 1408.160156 351.933594 1410.332031 354.882812 1412.816406 358.144531 Z M 1667.128906 362.570312 C 1666.199219 364.824219 1665.265625 366.453125 1665.109375 366.21875 C 1664.957031 366.066406 1665.578125 364.125 1666.507812 361.949219 C 1667.441406 359.699219 1668.371094 358.066406 1668.527344 358.300781 C 1668.683594 358.457031 1668.0625 360.398438 1667.128906 362.570312 Z M 1510.816406 368.472656 C 1512.210938 369.558594 1514.078125 371.421875 1515.007812 372.742188 C 1516.792969 375.226562 1524.328125 390.992188 1524.328125 392.15625 C 1524.328125 394.175781 1504.757812 391.691406 1493.265625 388.273438 C 1490.082031 387.265625 1487.363281 386.410156 1487.207031 386.332031 C 1487.132812 386.253906 1489.769531 383.382812 1493.1875 379.964844 C 1498.082031 374.996094 1499.632812 372.820312 1501.03125 369.015625 L 1502.738281 364.28125 L 1505.535156 365.445312 C 1507.085938 366.066406 1509.417969 367.464844 1510.816406 368.472656 Z M 1701.53125 372.511719 C 1697.878906 377.402344 1692.832031 382.683594 1688.25 386.332031 L 1686.308594 387.886719 L 1688.09375 385.554688 C 1691.203125 381.441406 1704.789062 366.53125 1705.101562 366.917969 C 1705.335938 367.074219 1703.703125 369.636719 1701.53125 372.511719 Z M 1430.753906 372.664062 C 1434.636719 374.917969 1441.003906 378.335938 1444.886719 380.351562 C 1449.46875 382.683594 1452.109375 384.46875 1452.109375 385.246094 C 1452.109375 385.945312 1453.429688 388.507812 1455.0625 391.070312 C 1458.011719 395.496094 1461.894531 399.535156 1469.347656 405.511719 L 1472.84375 408.386719 L 1472.609375 416.382812 C 1472.453125 420.808594 1471.910156 429.273438 1471.367188 435.253906 C 1470.589844 444.960938 1470.203125 446.667969 1467.875 451.5625 C 1465.699219 456.21875 1465.3125 457.773438 1465.3125 462.820312 C 1465.3125 470.121094 1464.378906 473.613281 1460.960938 478.660156 C 1458.089844 483.011719 1456.535156 489.300781 1457.3125 493.335938 C 1457.546875 494.65625 1458.632812 497.53125 1459.640625 499.707031 C 1461.582031 503.976562 1461.738281 504.675781 1460.730469 506.148438 C 1458.789062 509.257812 1450.558594 500.25 1448.304688 492.5625 C 1446.75 487.28125 1445.121094 486.195312 1445.121094 490.542969 C 1445.121094 494.191406 1447.917969 500.402344 1451.332031 504.210938 C 1453.894531 507.160156 1454.050781 509.410156 1451.566406 509.410156 C 1450.867188 509.410156 1448.539062 507.625 1446.519531 505.375 C 1443.722656 502.421875 1442.480469 501.648438 1441.859375 502.269531 C 1440.617188 503.511719 1444.113281 508.402344 1448.539062 511.664062 C 1450.402344 513.0625 1452.34375 515.082031 1452.808594 516.089844 C 1453.894531 518.496094 1453.894531 518.417969 1452.5 519.816406 C 1449.390625 522.921875 1440.617188 515.3125 1435.257812 504.90625 C 1433.394531 501.335938 1431.921875 497.917969 1431.921875 497.296875 C 1431.921875 496.675781 1432.773438 494.269531 1433.863281 492.09375 C 1436.113281 487.28125 1436.734375 482.621094 1435.105469 482.621094 C 1434.484375 482.621094 1433.394531 484.328125 1432.695312 486.503906 C 1431.921875 488.601562 1430.753906 491.394531 1430.054688 492.714844 C 1428.269531 496.054688 1428.503906 501.648438 1430.753906 507.546875 C 1433.707031 515.46875 1433.316406 518.265625 1429.28125 516.710938 C 1426.40625 515.625 1423.066406 507.316406 1422.136719 499.316406 C 1421.515625 493.570312 1423.222656 485.804688 1428.660156 469.886719 L 1433.007812 456.996094 L 1432.929688 446.902344 C 1432.929688 437.660156 1432.617188 435.332031 1428.96875 419.414062 C 1425.628906 404.96875 1424.855469 399.921875 1424.15625 389.128906 C 1423.6875 382.0625 1422.992188 374.375 1422.679688 372.121094 C 1421.980469 367.308594 1421.359375 367.308594 1430.753906 372.664062 Z M 1466.941406 384.3125 C 1474.164062 384.933594 1477.035156 385.476562 1481.386719 387.34375 C 1492.179688 391.921875 1509.183594 395.730469 1521.609375 396.195312 L 1526.269531 396.425781 L 1528.363281 402.640625 C 1532.015625 413.589844 1538.148438 438.671875 1541.023438 454.667969 C 1542.496094 463.207031 1544.59375 472.605469 1545.601562 475.632812 C 1548.398438 484.097656 1549.019531 497.609375 1548.320312 533.871094 C 1548.011719 547.851562 1548.089844 548.859375 1549.796875 553.050781 C 1552.125 558.722656 1555.464844 562.992188 1559.425781 565.089844 C 1566.027344 568.738281 1569.363281 566.875 1569.363281 559.652344 L 1569.363281 554.992188 L 1574.488281 562.679688 C 1581.480469 573.085938 1583.03125 574.640625 1586.214844 574.640625 C 1592.816406 574.640625 1598.097656 569.203125 1598.097656 562.527344 L 1598.097656 558.722656 L 1601.824219 558.722656 C 1603.84375 558.722656 1606.171875 558.488281 1607.027344 558.332031 C 1608.347656 558.023438 1608.578125 558.410156 1608.8125 561.050781 C 1609.125 564.46875 1607.648438 572.542969 1606.328125 575.027344 C 1605.085938 577.359375 1592.816406 588.851562 1589.089844 591.179688 C 1584.972656 593.742188 1578.605469 595.605469 1573.945312 595.605469 C 1571.925781 595.605469 1567.578125 596.148438 1564.316406 596.769531 C 1558.960938 597.78125 1557.40625 597.78125 1550.03125 596.691406 C 1544.75 595.839844 1539.46875 595.605469 1535.429688 595.839844 C 1529.917969 596.226562 1528.441406 596.070312 1524.558594 594.519531 C 1514.308594 590.324219 1490.082031 586.132812 1455.214844 582.40625 C 1439.296875 580.695312 1414.136719 577.28125 1412.117188 576.425781 C 1411.421875 576.191406 1409.632812 573.550781 1408.160156 570.523438 C 1406.605469 567.496094 1403.5 562.058594 1401.246094 558.332031 C 1396.355469 550.488281 1394.027344 543.035156 1393.328125 533.484375 C 1393.09375 529.835938 1393.171875 516.476562 1393.480469 503.742188 L 1394.027344 480.523438 L 1396.898438 481.070312 C 1398.453125 481.300781 1402.179688 482.464844 1405.128906 483.554688 C 1408.160156 484.640625 1412.507812 486.039062 1414.914062 486.738281 L 1419.339844 487.980469 L 1419.183594 495.355469 C 1419.109375 505.21875 1421.359375 513.0625 1425.707031 517.332031 C 1430.367188 522.070312 1435.804688 520.828125 1435.804688 515.082031 L 1435.804688 512.363281 L 1438.832031 516.246094 C 1440.929688 518.808594 1443.414062 520.828125 1446.363281 522.300781 C 1450.402344 524.242188 1450.945312 524.398438 1452.808594 523.3125 C 1456.070312 521.527344 1457.078125 518.574219 1455.683594 515.234375 C 1454.050781 511.351562 1455.292969 509.179688 1458.789062 509.878906 C 1460.808594 510.265625 1461.503906 509.957031 1462.902344 508.246094 C 1464.921875 505.605469 1464.921875 503.742188 1462.980469 499.472656 C 1462.203125 497.6875 1461.660156 496.210938 1461.894531 496.210938 C 1462.128906 496.210938 1463.914062 497.144531 1465.777344 498.230469 C 1468.261719 499.707031 1470.746094 500.402344 1474.472656 500.636719 C 1481.617188 501.179688 1483.636719 502.890625 1488.140625 511.898438 C 1491.789062 519.351562 1493.421875 524.632812 1496.449219 539.308594 C 1498.3125 548.625 1498.703125 555.304688 1497.691406 562.757812 C 1497.070312 566.953125 1497.148438 567.652344 1498.234375 567.652344 C 1499.867188 567.652344 1500.71875 565.789062 1501.808594 560.042969 C 1504.523438 544.898438 1504.136719 532.007812 1500.410156 515.777344 L 1498.15625 506.304688 L 1505.613281 506.304688 C 1513.53125 506.304688 1516.25 506.847656 1524.480469 509.878906 L 1529.605469 511.820312 L 1530.460938 517.023438 C 1532.558594 530.066406 1532.945312 538.375 1532.402344 557.710938 C 1531.9375 575.492188 1532.015625 577.902344 1533.179688 579.609375 C 1534.730469 582.015625 1536.363281 581.550781 1537.992188 578.289062 C 1541.566406 571.378906 1542.574219 547.304688 1539.855469 531.621094 C 1538.460938 523.542969 1537.527344 520.28125 1533.878906 510.578125 C 1532.945312 508.324219 1532.480469 502.578125 1532.09375 489.609375 C 1531.394531 469.652344 1531.003906 467.324219 1525.335938 453.890625 C 1518.96875 438.59375 1516.5625 432.226562 1516.09375 429.195312 C 1515.785156 427.410156 1515.164062 426.324219 1514.464844 426.324219 C 1510.582031 426.324219 1501.109375 421.976562 1494.199219 417.003906 C 1485.421875 410.714844 1477.191406 405.746094 1475.328125 405.667969 C 1473.074219 405.511719 1461.429688 395.105469 1458.246094 390.371094 C 1456.613281 387.808594 1455.214844 385.246094 1455.214844 384.703125 C 1455.214844 383.460938 1455.214844 383.460938 1466.941406 384.3125 Z M 1481.617188 412.113281 C 1483.949219 413.667969 1488.683594 416.925781 1492.101562 419.335938 C 1499.632812 424.769531 1502.351562 426.167969 1508.175781 427.800781 L 1512.679688 429.121094 L 1515.707031 437.582031 C 1517.339844 442.320312 1520.367188 449.929688 1522.308594 454.511719 C 1527.277344 466.390625 1528.210938 470.351562 1528.675781 481.84375 C 1528.832031 487.359375 1529.140625 495.667969 1529.296875 500.171875 L 1529.53125 508.480469 L 1523.238281 506.148438 C 1518.113281 504.210938 1515.164062 503.664062 1507.242188 503.199219 C 1499.246094 502.734375 1496.605469 502.191406 1492.566406 500.480469 C 1488.605469 498.851562 1485.65625 498.230469 1478.976562 497.765625 C 1471.679688 497.296875 1469.582031 496.832031 1465.15625 494.734375 C 1462.203125 493.414062 1459.875 491.863281 1459.875 491.320312 C 1459.953125 488.289062 1461.816406 483.242188 1464.144531 479.671875 C 1467.253906 474.933594 1468.339844 470.664062 1468.417969 463.207031 C 1468.417969 458.703125 1468.882812 456.839844 1470.824219 452.726562 C 1473.621094 446.902344 1475.328125 435.488281 1475.40625 421.976562 C 1475.40625 413.976562 1475.949219 409.238281 1476.882812 409.238281 C 1477.113281 409.238281 1479.289062 410.484375 1481.617188 412.113281 Z M 1734.296875 432.226562 C 1740.898438 434.476562 1744.703125 439.136719 1751.769531 453.8125 C 1758.914062 468.566406 1759.226562 470.429688 1756.742188 481.921875 C 1755.730469 486.738281 1755.421875 492.40625 1755.421875 508.558594 L 1755.34375 529.058594 L 1744.859375 517.875 C 1739.113281 511.742188 1719.15625 491.394531 1700.597656 472.683594 L 1666.820312 438.75 L 1671.476562 438.75 C 1678.15625 438.75 1690.8125 436.882812 1702.925781 434.167969 C 1716.75 431.136719 1716.285156 431.214844 1723.972656 431.058594 C 1728.320312 430.984375 1731.890625 431.449219 1734.296875 432.226562 Z M 1791.917969 479.050781 C 1795.179688 480.292969 1811.253906 483.554688 1825.617188 485.804688 C 1829.34375 486.425781 1833.773438 491.242188 1835.324219 496.367188 C 1836.722656 501.023438 1836.878906 509.566406 1835.636719 516.089844 C 1835.167969 518.574219 1833.304688 525.875 1831.441406 532.320312 C 1827.792969 544.820312 1825.617188 555.148438 1825.617188 559.886719 C 1825.617188 563.769531 1822.277344 576.738281 1820.261719 580.695312 C 1818.085938 584.96875 1816.222656 585.898438 1813.269531 584.425781 C 1810.011719 582.714844 1807.992188 578.988281 1806.128906 571.066406 C 1805.273438 567.261719 1803.566406 561.90625 1802.320312 559.109375 C 1801.15625 556.3125 1799.992188 551.808594 1799.683594 549.015625 C 1799.371094 546.21875 1798.207031 540.316406 1797.042969 535.8125 L 1794.945312 527.660156 L 1791.449219 526.652344 C 1789.507812 526.105469 1786.171875 524.785156 1784.074219 523.855469 C 1781.898438 522.84375 1778.015625 521.601562 1775.53125 521.058594 C 1771.027344 520.128906 1759.925781 516.089844 1758.527344 514.769531 C 1756.816406 513.214844 1759.535156 509.410156 1769.628906 499.472656 C 1778.792969 490.308594 1780.65625 488.058594 1782.910156 483.164062 C 1784.539062 479.75 1786.015625 477.574219 1786.792969 477.574219 C 1787.414062 477.574219 1789.742188 478.273438 1791.917969 479.050781 Z M 1286.710938 495.589844 C 1292.300781 507.238281 1294.785156 517.023438 1294.785156 527.660156 C 1294.863281 532.398438 1294.398438 537.597656 1293.855469 539.308594 C 1293 542.257812 1292.613281 542.492188 1287.796875 544.121094 C 1283.835938 545.441406 1282.828125 545.519531 1283.136719 544.664062 C 1286.476562 535.890625 1287.410156 505.839844 1284.613281 495.824219 C 1283.757812 492.792969 1282.828125 489.765625 1282.4375 488.988281 C 1282.128906 488.289062 1282.128906 487.667969 1282.4375 487.667969 C 1282.671875 487.667969 1284.613281 491.242188 1286.710938 495.589844 Z M 1490.9375 502.890625 C 1494.351562 504.285156 1494.585938 504.832031 1498.003906 519.117188 C 1499.554688 525.796875 1501.109375 540.472656 1500.253906 540.472656 C 1500.019531 540.472656 1498.855469 535.890625 1497.613281 530.378906 C 1495.207031 519.507812 1492.023438 511.199219 1487.984375 505.296875 C 1485.113281 501.179688 1485.65625 500.792969 1490.9375 502.890625 Z M 1637.15625 528.59375 C 1646.941406 542.414062 1664.722656 569.515625 1669.691406 578.132812 C 1676.523438 590.09375 1684.214844 605.390625 1688.09375 614.707031 C 1692.289062 624.648438 1692.832031 626.898438 1690.890625 626.199219 C 1690.269531 625.96875 1682.894531 625.65625 1674.429688 625.578125 L 1659.054688 625.425781 L 1650.203125 622.550781 L 1641.269531 619.753906 L 1624.964844 619.601562 C 1606.636719 619.523438 1604.464844 619.210938 1594.757812 615.253906 C 1588.3125 612.6875 1587.535156 612.535156 1582.175781 613 C 1576.585938 613.542969 1576.277344 613.464844 1570.375 610.4375 C 1565.558594 607.953125 1562.453125 607.019531 1554.84375 605.777344 C 1546.148438 604.304688 1535.742188 601.042969 1534.730469 599.410156 C 1534.109375 598.324219 1542.1875 598.558594 1550.417969 599.875 C 1557.097656 600.964844 1558.492188 600.964844 1564.238281 599.875 C 1567.8125 599.253906 1572.394531 598.710938 1574.566406 598.710938 C 1579.769531 598.710938 1586.914062 596.460938 1591.417969 593.355469 C 1593.4375 591.957031 1598.328125 587.609375 1602.289062 583.726562 C 1609.199219 576.890625 1609.511719 576.347656 1610.832031 571.144531 C 1611.53125 568.195312 1612.074219 563.613281 1611.996094 560.972656 C 1611.839844 556.703125 1612.074219 555.847656 1613.9375 553.597656 C 1615.878906 551.34375 1616.035156 550.566406 1615.800781 546.140625 L 1615.566406 541.171875 L 1618.828125 539.695312 C 1623.332031 537.675781 1628.148438 532.628906 1628.847656 529.214844 C 1629.078125 527.660156 1629.15625 524.320312 1629.003906 521.835938 C 1628.847656 519.273438 1628.769531 517.175781 1628.847656 517.175781 C 1628.925781 517.175781 1632.652344 522.300781 1637.15625 528.59375 Z M 1221.015625 530.378906 C 1221.636719 532.707031 1222.726562 538.84375 1223.421875 543.96875 C 1225.519531 559.652344 1230.179688 574.175781 1235.460938 581.707031 C 1238.644531 586.054688 1236.46875 584.8125 1232.277344 579.765625 C 1219.695312 564.699219 1214.726562 549.558594 1215.734375 529.679688 L 1216.28125 519.273438 L 1218.066406 522.691406 C 1218.996094 524.632812 1220.316406 528.046875 1221.015625 530.378906 Z M 1536.828125 532.398438 C 1538.226562 540.785156 1538.382812 544.589844 1538.070312 556.003906 C 1537.839844 565.320312 1537.292969 570.679688 1536.519531 573.085938 C 1535.351562 576.347656 1535.277344 575.261719 1535.429688 554.449219 C 1535.507812 542.257812 1535.277344 529.835938 1534.964844 526.882812 C 1533.878906 518.109375 1535.042969 521.449219 1536.828125 532.398438 Z M 1583.808594 618.28125 C 1588.777344 623.949219 1592.738281 634.585938 1592.582031 641.730469 C 1592.503906 644.761719 1592.503906 644.761719 1591.496094 640.257812 C 1589.941406 633.191406 1587.535156 627.445312 1584.273438 623.25 C 1578.839844 616.105469 1579.070312 616.570312 1580.78125 616.570312 C 1581.632812 616.570312 1582.953125 617.347656 1583.808594 618.28125 Z M 1562.222656 629.929688 C 1561.132812 635.054688 1557.792969 640.410156 1551.972656 646.625 C 1542.574219 656.71875 1534.1875 662.152344 1508.484375 674.890625 C 1492.488281 682.808594 1493.03125 681.878906 1509.960938 672.015625 C 1523.007812 664.40625 1531.394531 658.96875 1537.140625 654.390625 C 1544.515625 648.410156 1554.765625 637.925781 1558.570312 632.257812 C 1560.667969 629.230469 1562.53125 626.667969 1562.6875 626.667969 C 1562.84375 626.667969 1562.6875 628.140625 1562.222656 629.929688 Z M 1706.578125 637.226562 C 1713.101562 644.449219 1724.125 658.96875 1726.84375 664.09375 L 1728.628906 667.433594 L 1726.84375 665.183594 C 1725.835938 663.941406 1722.105469 659.125 1718.535156 654.464844 C 1714.964844 649.886719 1708.285156 642.507812 1703.703125 638.082031 C 1695.78125 630.472656 1695.550781 630.160156 1698.035156 630.394531 C 1700.132812 630.703125 1701.761719 631.945312 1706.578125 637.226562 Z M 1684.367188 672.636719 C 1691.28125 686.148438 1695.859375 722.179688 1692.523438 737.089844 C 1691.28125 742.835938 1685.921875 753.472656 1682.738281 756.65625 C 1680.253906 759.140625 1680.332031 757.667969 1682.816406 754.015625 C 1687.628906 746.796875 1688.40625 744.15625 1688.714844 734.605469 C 1688.949219 728.160156 1688.640625 722.722656 1687.472656 715.191406 C 1686.542969 709.445312 1684.988281 698.960938 1683.902344 691.894531 C 1682.117188 680.246094 1681.417969 669.375 1682.347656 669.375 C 1682.503906 669.375 1683.4375 670.851562 1684.367188 672.636719 Z M 1793.082031 698.496094 C 1797.351562 703.621094 1806.75 719.617188 1805.972656 720.394531 C 1805.738281 720.546875 1803.875 718.0625 1801.777344 714.800781 C 1796.265625 706.105469 1789.355469 696.710938 1784.929688 691.972656 L 1780.96875 687.703125 L 1784.773438 690.417969 C 1786.871094 691.894531 1790.597656 695.46875 1793.082031 698.496094 Z M 1715.738281 711.695312 C 1718.769531 722.800781 1720.863281 735.691406 1720.089844 738.019531 C 1719.542969 739.261719 1719.3125 739.03125 1718.300781 736.46875 C 1716.515625 732.042969 1714.808594 722.800781 1711.855469 701.988281 C 1711.082031 696.941406 1712.945312 701.445312 1715.738281 711.695312 Z M 1783.21875 716.277344 C 1787.878906 722.335938 1792.847656 728.703125 1794.324219 730.566406 C 1796.808594 733.828125 1797.585938 736.15625 1796.265625 736.15625 C 1794.480469 736.15625 1788.265625 731.265625 1785.859375 727.925781 C 1782.675781 723.5 1770.328125 699.738281 1772.96875 703.078125 C 1773.980469 704.320312 1778.5625 710.296875 1783.21875 716.277344 Z M 1120.300781 862.109375 C 1123.5625 865.527344 1126.980469 873.058594 1127.367188 877.871094 C 1127.523438 880.046875 1127.210938 883.308594 1126.667969 885.25 L 1125.660156 888.742188 L 1125.191406 882.53125 C 1124.417969 873.214844 1121.855469 865.601562 1117.972656 861.332031 C 1115.488281 858.613281 1117.582031 859.3125 1120.300781 862.109375 Z M 1120.300781 862.109375 "/></g><path style=" stroke:none;fill-rule:nonzero;fill:#ffffff;fill-opacity:1;" d="M 1453.664062 185.136719 C 1451.253906 186.300781 1451.953125 187.542969 1455.0625 187.542969 C 1458.554688 187.542969 1459.875 189.5625 1459.875 194.6875 C 1459.875 199.421875 1458.554688 203.152344 1456.070312 205.324219 C 1454.050781 207.109375 1453.972656 208.898438 1455.835938 208.898438 C 1459.332031 208.898438 1462.980469 201.597656 1462.980469 194.53125 C 1462.980469 187.699219 1458.167969 182.804688 1453.664062 185.136719 Z M 1453.664062 185.136719 "/><path style=" stroke:none;fill-rule:nonzero;fill:#ffffff;fill-opacity:1;" d="M 1578.449219 478.273438 C 1574.179688 480.292969 1561.988281 481.921875 1559.191406 480.914062 C 1556.941406 480.058594 1556.164062 480.292969 1556.164062 481.921875 C 1556.164062 484.019531 1561.832031 484.640625 1570.0625 483.398438 C 1578.839844 482.078125 1583.34375 480.292969 1583.34375 478.195312 C 1583.34375 476.488281 1582.253906 476.488281 1578.449219 478.273438 Z M 1578.449219 478.273438 "/><path style=" stroke:none;fill-rule:nonzero;fill:#ffffff;fill-opacity:1;" d="M 1120.535156 435.410156 C 1120.535156 436.652344 1120.921875 438.980469 1121.3125 440.6875 C 1121.777344 442.398438 1122.476562 453.890625 1122.863281 466.316406 C 1123.71875 492.5625 1124.648438 504.132812 1126.746094 516.089844 C 1129.929688 534.105469 1137.851562 556.703125 1145.070312 568.273438 C 1153.226562 581.316406 1171.550781 600.265625 1182.421875 606.941406 C 1185.839844 609.039062 1192.90625 612.6875 1198.265625 615.019531 L 1207.972656 619.289062 L 1208.902344 624.726562 C 1209.445312 627.675781 1210.609375 635.597656 1211.464844 642.199219 C 1212.941406 652.992188 1213.019531 655.242188 1212.164062 663.941406 C 1211.230469 674.191406 1209.601562 683.042969 1205.875 698.882812 C 1201.757812 716.433594 1195.855469 732.117188 1187.238281 748.503906 C 1181.492188 759.453125 1178.773438 763.179688 1169.84375 772.730469 C 1157.730469 785.542969 1147.480469 798.125 1148.023438 799.519531 C 1148.644531 801.230469 1149.34375 800.609375 1158.117188 790.511719 C 1162 786.007812 1168.445312 778.867188 1172.484375 774.59375 C 1181.648438 764.808594 1186.695312 757.121094 1193.449219 743.066406 C 1201.992188 725.207031 1205.5625 714.648438 1210.535156 692.671875 C 1213.25 680.480469 1215.191406 668.910156 1215.347656 663.941406 L 1215.503906 660.445312 L 1216.125 663.941406 C 1218.609375 678.304688 1214.570312 712.9375 1207.972656 732.664062 C 1202.691406 748.347656 1193.140625 767.0625 1181.492188 784.378906 C 1174.890625 794.242188 1172.949219 797.65625 1173.804688 798.046875 C 1175.589844 798.667969 1176.910156 797.113281 1185.0625 784.84375 C 1196.710938 767.296875 1208.980469 741.980469 1212.863281 727.539062 C 1216.824219 713.015625 1219.929688 691.117188 1219.929688 678.304688 C 1219.929688 663.320312 1217.289062 637.148438 1214.726562 626.820312 C 1213.792969 623.171875 1213.019531 621.695312 1211.851562 621.230469 C 1208.980469 620.066406 1211.929688 620.378906 1221.714844 622.316406 C 1226.917969 623.40625 1233.984375 624.414062 1237.480469 624.726562 C 1244.933594 625.347656 1250.445312 624.183594 1250.058594 622.164062 C 1249.902344 621.308594 1250.523438 620.609375 1252.15625 620.066406 C 1256.113281 618.746094 1255.105469 617.117188 1250.214844 616.960938 C 1241.359375 616.570312 1223.8125 609.351562 1209.988281 600.34375 C 1202.769531 595.605469 1201.058594 594.90625 1200.128906 596.382812 C 1199.585938 597.238281 1203.777344 600.34375 1213.328125 606.089844 C 1222.957031 611.835938 1233.285156 616.339844 1241.75 618.4375 C 1247.730469 619.988281 1248.503906 620.378906 1247.496094 621.230469 C 1244.855469 623.40625 1218.222656 619.601562 1207.117188 615.40625 C 1197.953125 611.992188 1184.519531 605 1179.160156 600.964844 C 1168.210938 592.578125 1154.390625 577.511719 1147.402344 566.097656 C 1140.800781 555.460938 1132.183594 530.53125 1129.542969 514.460938 C 1127.679688 503.433594 1126.746094 490.621094 1125.96875 466.316406 C 1125.117188 440.84375 1124.105469 433.3125 1121.621094 433.3125 C 1120.921875 433.3125 1120.535156 434.089844 1120.535156 435.410156 Z M 1120.535156 435.410156 "/><path style=" stroke:none;fill-rule:nonzero;fill:#ffffff;fill-opacity:1;" d="M 1082.796875 468.332031 C 1082.097656 469.421875 1083.027344 484.019531 1084.503906 495.824219 C 1086.210938 509.410156 1088.695312 518.1875 1096.617188 538.765625 C 1105.238281 561.4375 1106.789062 564.855469 1117.117188 583.648438 C 1123.875 596.148438 1125.738281 600.265625 1128.066406 608.1875 C 1137.851562 641.886719 1141.265625 665.882812 1140.492188 693.835938 C 1140.101562 708.976562 1138.628906 716.820312 1133.65625 732.195312 C 1130.242188 742.835938 1124.648438 753.242188 1122.398438 753.242188 C 1121.078125 753.242188 1117.972656 757.667969 1118.59375 758.675781 C 1119.601562 760.230469 1121.15625 759.375 1125.738281 754.558594 C 1134.355469 745.628906 1140.878906 733.90625 1146.546875 717.519531 C 1151.90625 701.910156 1152.683594 696.941406 1152.683594 680.246094 C 1152.761719 664.484375 1151.828125 657.960938 1147.636719 643.441406 C 1143.132812 627.519531 1134.976562 609.582031 1119.835938 582.25 C 1115.953125 575.105469 1111.371094 566.332031 1109.664062 562.835938 C 1104.847656 552.507812 1092.8125 520.515625 1090.792969 512.519531 C 1088.542969 503.820312 1086.523438 489.378906 1085.824219 476.566406 C 1085.511719 469.964844 1085.046875 467.480469 1084.347656 467.480469 C 1083.804688 467.480469 1083.105469 467.867188 1082.796875 468.332031 Z M 1139.25 628.453125 C 1147.089844 648.566406 1150.585938 667.277344 1149.808594 684.90625 C 1149.265625 696.785156 1147.867188 703.621094 1143.363281 716.820312 C 1140.257812 725.828125 1136.761719 734.058594 1137.929688 729.554688 C 1143.054688 709.910156 1143.828125 704.707031 1143.828125 689.175781 C 1143.828125 668.054688 1140.957031 644.605469 1136.140625 625.734375 C 1134.976562 621.152344 1134.277344 617.582031 1134.589844 617.816406 C 1134.898438 617.96875 1136.996094 622.785156 1139.25 628.453125 Z M 1139.25 628.453125 "/><path style=" stroke:none;fill-rule:nonzero;fill:#ffffff;fill-opacity:1;" d="M 1083.492188 587.996094 C 1083.027344 588.539062 1082.40625 590.246094 1082.097656 591.722656 C 1081.785156 593.199219 1079.765625 600.03125 1077.671875 606.867188 C 1074.175781 618.046875 1073.710938 620.222656 1073.398438 628.609375 C 1072.933594 639.945312 1074.332031 648.953125 1077.671875 656.40625 C 1080.078125 661.609375 1081.863281 663.320312 1083.339844 661.84375 C 1083.882812 661.300781 1083.726562 659.824219 1082.871094 657.261719 C 1082.019531 654.777344 1081.398438 649.730469 1081.164062 642.972656 C 1080.777344 633.5 1081.007812 631.171875 1083.183594 619.058594 C 1086.132812 602.984375 1087.066406 590.480469 1085.433594 588.382812 C 1084.503906 587.21875 1084.191406 587.140625 1083.492188 587.996094 Z M 1080.15625 618.046875 C 1078.679688 626.277344 1077.824219 633.421875 1077.746094 638.546875 C 1077.671875 645.148438 1077.515625 645.847656 1076.972656 642.972656 C 1076.117188 638.003906 1076.195312 624.570312 1077.046875 620.453125 C 1078.523438 614.085938 1082.097656 602.984375 1082.328125 604.226562 C 1082.40625 604.925781 1081.476562 611.136719 1080.15625 618.046875 Z M 1080.15625 618.046875 "/><path style=" stroke:none;fill-rule:nonzero;fill:#ffffff;fill-opacity:1;" d="M 1218.375 599.722656 C 1218.375 601.121094 1234.0625 609.816406 1241.207031 612.457031 C 1245.089844 613.855469 1257.125 615.949219 1258.054688 615.328125 C 1260.230469 614.007812 1258.132812 612.921875 1251.222656 611.757812 C 1244.546875 610.671875 1242.214844 609.738281 1231.964844 604.613281 C 1220.007812 598.558594 1218.375 597.933594 1218.375 599.722656 Z M 1218.375 599.722656 "/><path style=" stroke:none;fill-rule:nonzero;fill:#ffffff;fill-opacity:1;" d="M 1232.742188 625.890625 C 1232.507812 626.277344 1232.820312 628.140625 1233.441406 629.929688 C 1236.703125 639.710938 1237.324219 665.648438 1234.683594 681.488281 C 1231.035156 703.230469 1225.984375 724.507812 1221.40625 737.398438 C 1220.085938 741.203125 1215.8125 751.453125 1212.007812 760.230469 C 1202.070312 782.75 1197.644531 795.484375 1195.003906 809.382812 C 1194.613281 811.636719 1193.914062 823.59375 1193.527344 836.019531 C 1192.75 861.488281 1191.507812 870.03125 1187.003906 881.132812 C 1184.285156 887.65625 1178.617188 896.898438 1175.277344 900.003906 C 1173.183594 901.945312 1172.714844 903.886719 1174.347656 903.886719 C 1176.753906 903.886719 1184.054688 894.488281 1188.246094 886.027344 L 1191.121094 880.203125 L 1191.199219 885.09375 C 1191.199219 893.015625 1189.179688 901.246094 1185.21875 909.167969 C 1182.269531 915.144531 1180.09375 918.019531 1172.25 926.558594 C 1161.222656 938.519531 1154.390625 946.671875 1152.761719 950.167969 C 1151.285156 953.273438 1151.285156 957.464844 1152.605469 959.40625 C 1154.3125 961.660156 1155.324219 960.183594 1154.933594 956.144531 C 1154.46875 951.253906 1156.097656 948.769531 1170.542969 933.238281 C 1185.21875 917.242188 1188.167969 912.894531 1192.050781 901.167969 C 1193.527344 896.429688 1193.839844 893.945312 1193.914062 881.675781 C 1194.070312 873.988281 1194.382812 866.921875 1194.613281 865.992188 C 1195.703125 862.730469 1196.554688 849.683594 1196.867188 831.667969 C 1197.175781 816.683594 1197.566406 812.023438 1198.964844 805.8125 C 1201.292969 795.171875 1206.574219 780.1875 1213.25 764.964844 C 1223.191406 742.523438 1225.984375 735.070312 1229.636719 721.015625 C 1233.441406 706.339844 1238.488281 679.082031 1239.265625 669.375 C 1240.894531 648.875 1236.546875 619.753906 1232.742188 625.890625 Z M 1232.742188 625.890625 "/><path style=" stroke:none;fill-rule:nonzero;fill:#ffffff;fill-opacity:1;" d="M 1757.671875 697.484375 C 1757.515625 698.03125 1757.207031 703.386719 1756.972656 709.367188 C 1756.664062 715.347656 1756.273438 722.566406 1756.042969 725.363281 C 1755.652344 729.867188 1755.886719 731.109375 1757.984375 736.46875 C 1759.304688 739.804688 1760.699219 744.855469 1761.011719 747.726562 C 1761.554688 753.164062 1762.640625 754.25 1765.359375 752.230469 C 1768.386719 750.054688 1768.855469 725.671875 1766.058594 712.085938 C 1764.039062 701.988281 1759.070312 693.292969 1757.671875 697.484375 Z M 1763.496094 714.492188 C 1764.816406 722.414062 1765.4375 745.476562 1764.429688 745.476562 C 1763.882812 745.476562 1763.496094 744.621094 1763.496094 743.613281 C 1763.496094 742.523438 1762.410156 738.953125 1761.089844 735.613281 L 1758.605469 729.554688 L 1759.535156 720.9375 C 1760 716.199219 1760.390625 710.609375 1760.46875 708.511719 L 1760.546875 704.707031 L 1761.554688 707.113281 C 1762.175781 708.511719 1763.03125 711.851562 1763.496094 714.492188 Z M 1763.496094 714.492188 "/><g clip-rule="nonzero" clip-path="url(#0edb40d763)"><path style=" stroke:none;fill-rule:nonzero;fill:#ffffff;fill-opacity:1;" d="M 1462.902344 783.292969 C 1458.089844 788.804688 1451.179688 800.21875 1444.5 813.808594 C 1425.164062 853.257812 1411.574219 876.007812 1390.066406 905.050781 C 1384.242188 912.894531 1376.863281 922.910156 1373.527344 927.335938 C 1361.644531 943.410156 1352.949219 953.273438 1344.640625 960.261719 C 1336.484375 967.015625 1334.699219 969.269531 1336.332031 970.898438 C 1336.953125 971.519531 1337.804688 971.132812 1339.359375 969.269531 C 1340.523438 967.949219 1343.007812 965.621094 1344.949219 964.066406 C 1354.65625 956.222656 1366.304688 942.945312 1379.894531 923.996094 C 1383.464844 919.105469 1390.296875 909.863281 1395.035156 903.496094 C 1413.128906 879.425781 1430.132812 850.539062 1446.90625 815.90625 C 1452.34375 804.722656 1462.359375 788.027344 1464.921875 785.855469 C 1467.40625 783.757812 1460.03125 803.402344 1453.195312 816.992188 C 1448.070312 827.242188 1424.699219 869.640625 1420.039062 877.097656 C 1410.023438 893.171875 1376.011719 942.480469 1365.992188 955.445312 C 1364.050781 957.933594 1361.566406 960.417969 1360.324219 961.039062 C 1358.152344 962.125 1357.761719 963.679688 1359.394531 964.222656 C 1361.023438 964.765625 1365.605469 960.726562 1370.265625 954.75 C 1383.078125 938.054688 1416.46875 889.210938 1425.707031 873.679688 C 1432.464844 862.109375 1450.867188 828.796875 1455.527344 819.398438 C 1460.109375 810.238281 1466.164062 795.40625 1467.949219 789.039062 C 1470.359375 780.496094 1467.875 777.699219 1462.902344 783.292969 Z M 1462.902344 783.292969 "/></g><path style=" stroke:none;fill-rule:nonzero;fill:#ffffff;fill-opacity:1;" d="M 1156.253906 869.5625 C 1155.789062 871.660156 1153.457031 876.242188 1151.207031 879.8125 C 1144.917969 889.363281 1143.597656 893.402344 1143.519531 902.722656 C 1143.519531 908.234375 1143.90625 911.574219 1144.917969 914.214844 L 1146.238281 917.941406 L 1141.886719 923.144531 C 1135.832031 930.367188 1133.425781 935.566406 1133.113281 942.167969 C 1132.648438 949.625 1134.046875 953.660156 1138.628906 958.707031 C 1142.199219 962.589844 1145.382812 964.144531 1145.382812 961.96875 C 1145.382812 961.425781 1143.753906 959.40625 1141.65625 957.464844 C 1137.460938 953.429688 1136.066406 949.855469 1136.066406 942.945312 C 1136.066406 937.121094 1138.859375 931.140625 1144.917969 924.308594 C 1149.730469 918.796875 1156.875 906.605469 1159.828125 898.683594 C 1161.691406 893.792969 1161.84375 892.78125 1161.378906 885.25 C 1160.449219 870.105469 1159.902344 866.222656 1158.507812 865.992188 C 1157.496094 865.835938 1156.953125 866.691406 1156.253906 869.5625 Z M 1158.117188 879.113281 C 1158.351562 880.433594 1158.582031 884.164062 1158.582031 887.269531 C 1158.582031 893.867188 1156.796875 899.382812 1151.515625 908.933594 C 1148.488281 914.523438 1148.179688 914.835938 1147.558594 913.125 C 1145.460938 907.457031 1146.238281 895.109375 1149.03125 889.519531 C 1151.050781 885.636719 1156.640625 876.785156 1157.109375 876.707031 C 1157.417969 876.707031 1157.808594 877.792969 1158.117188 879.113281 Z M 1158.117188 879.113281 "/></g></svg>