<svg xmlns="http://www.w3.org/2000/svg" xmlns:xlink="http://www.w3.org/1999/xlink" width="156" zoomAndPan="magnify" viewBox="0 0 116.88 116.999995" height="156" preserveAspectRatio="xMidYMid meet" version="1.2"><defs><clipPath id="438ed95db7"><path d="M 0 0.0585938 L 116.761719 0.0585938 L 116.761719 116.9375 L 0 116.9375 Z M 0 0.0585938 "/></clipPath><clipPath id="d1a10fe731"><path d="M 0 0.0585938 L 116.136719 0.0585938 L 116.136719 116.195312 L 0 116.195312 Z M 0 0.0585938 "/></clipPath><clipPath id="2b653cc348"><path d="M 58.066406 0.0585938 C 25.996094 0.0585938 0 26.058594 0 58.128906 C 0 90.199219 25.996094 116.195312 58.066406 116.195312 C 90.136719 116.195312 116.136719 90.199219 116.136719 58.128906 C 116.136719 26.058594 90.136719 0.0585938 58.066406 0.0585938 Z M 58.066406 0.0585938 "/></clipPath><clipPath id="e8b72f9d64"><path d="M 49.453125 25.105469 L 66.6875 25.105469 L 66.6875 55.824219 L 49.453125 55.824219 Z M 49.453125 25.105469 "/></clipPath></defs><g id="c9bff0bd7b"><g clip-rule="nonzero" clip-path="url(#438ed95db7)"><path style=" stroke:none;fill-rule:nonzero;fill:#ffffff;fill-opacity:1;" d="M 0 0.0585938 L 116.878906 0.0585938 L 116.878906 116.941406 L 0 116.941406 Z M 0 0.0585938 "/></g><g clip-rule="nonzero" clip-path="url(#d1a10fe731)"><g clip-rule="nonzero" clip-path="url(#2b653cc348)"><path style=" stroke:none;fill-rule:nonzero;fill:#f4f4e6;fill-opacity:1;" d="M 0 0.0585938 L 116.136719 0.0585938 L 116.136719 116.195312 L 0 116.195312 Z M 0 0.0585938 "/></g></g><g clip-rule="nonzero" clip-path="url(#e8b72f9d64)"><path style=" stroke:none;fill-rule:nonzero;fill:#000000;fill-opacity:1;" d="M 57.695312 55.75 C 57.800781 55.75 57.894531 55.757812 58.003906 55.757812 L 58.1875 55.757812 C 58.21875 55.757812 58.242188 55.738281 58.273438 55.734375 C 60.789062 55.679688 62.300781 55.214844 63.441406 54.75 C 64.03125 54.511719 64.882812 54.109375 65.429688 53.367188 C 66.019531 52.566406 66.179688 51.53125 66.3125 50.703125 C 66.445312 49.863281 66.535156 49.007812 66.589844 48.007812 C 66.65625 46.867188 66.652344 45.710938 66.644531 44.597656 L 66.644531 44.523438 C 66.640625 43.15625 66.621094 41.820312 66.453125 40.484375 L 66.4375 40.332031 C 66.300781 39.261719 66.152344 38.042969 65.578125 37.015625 C 65.039062 36.074219 64.269531 35.390625 63.503906 34.828125 C 63.699219 34.699219 63.886719 34.5625 64.0625 34.414062 C 65.058594 33.578125 65.769531 32.476562 66.066406 31.304688 C 66.304688 30.328125 66.152344 29.46875 65.617188 28.824219 C 64.863281 27.917969 63.648438 27.59375 62.679688 27.335938 L 62.625 27.320312 C 61.792969 27.101562 61.070312 26.964844 60.304688 26.875 C 60.3125 26.585938 60.273438 26.285156 60.113281 25.992188 C 59.785156 25.398438 59.199219 25.296875 58.878906 25.238281 C 58.515625 25.179688 58.15625 25.15625 57.816406 25.183594 C 57.589844 25.199219 57.402344 25.226562 57.226562 25.28125 C 56.878906 25.386719 56.601562 25.554688 56.402344 25.792969 C 56.167969 26.082031 56.042969 26.449219 56.050781 26.867188 C 55.21875 26.933594 54.355469 27.085938 53.46875 27.320312 L 53.414062 27.335938 C 52.441406 27.59375 51.230469 27.917969 50.476562 28.824219 C 49.941406 29.46875 49.785156 30.328125 50.023438 31.304688 C 50.324219 32.476562 51.03125 33.578125 52.027344 34.414062 C 52.203125 34.570312 52.390625 34.699219 52.585938 34.824219 C 51.820312 35.382812 51.050781 36.074219 50.515625 37.015625 C 49.941406 38.042969 49.789062 39.261719 49.652344 40.332031 L 49.636719 40.484375 C 49.46875 41.820312 49.449219 43.15625 49.445312 44.523438 L 49.445312 44.597656 C 49.4375 45.710938 49.433594 46.867188 49.5 48.007812 C 49.554688 48.996094 49.640625 49.855469 49.777344 50.703125 C 49.910156 51.53125 50.070312 52.570312 50.664062 53.367188 C 51.207031 54.109375 52.058594 54.511719 52.648438 54.75 C 53.800781 55.21875 55.242188 55.710938 57.6875 55.746094 L 57.6875 55.75 L 57.695312 55.75 "/><path style=" stroke:none;fill-rule:nonzero;fill:#000000;fill-opacity:1;" d="M 65.636719 44.601562 C 65.640625 45.703125 65.644531 46.839844 65.585938 47.945312 C 65.527344 48.917969 65.445312 49.738281 65.316406 50.539062 C 65.199219 51.261719 65.058594 52.160156 64.621094 52.761719 C 64.226562 53.292969 63.542969 53.613281 63.070312 53.808594 C 61.871094 54.289062 60.410156 54.726562 57.691406 54.730469 C 55.429688 54.695312 54.140625 54.253906 53.023438 53.808594 C 52.546875 53.613281 51.863281 53.292969 51.46875 52.761719 C 51.03125 52.160156 50.890625 51.261719 50.773438 50.539062 C 50.648438 49.726562 50.5625 48.90625 50.507812 47.953125 C 50.445312 46.839844 50.449219 45.703125 50.457031 44.601562 L 50.457031 44.527344 C 50.460938 43.195312 50.480469 41.886719 50.636719 40.613281 L 50.640625 40.566406 C 52.457031 41.554688 55.332031 42.011719 58.136719 42.011719 C 61.101562 42.011719 63.988281 41.503906 65.449219 40.59375 L 65.453125 40.613281 C 65.609375 41.886719 65.632812 43.195312 65.636719 44.527344 Z M 51.394531 37.523438 C 51.933594 36.574219 52.769531 35.917969 53.609375 35.347656 C 55.011719 35.914062 56.640625 36.042969 58.128906 36.074219 C 58.160156 36.074219 58.179688 36.066406 58.203125 36.066406 C 59.925781 36.0625 61.339844 35.820312 62.488281 35.347656 C 63.320312 35.925781 64.160156 36.574219 64.695312 37.523438 C 65.066406 38.175781 65.226562 38.945312 65.335938 39.734375 C 63.167969 41.582031 54.148438 41.847656 50.746094 39.75 C 50.863281 38.953125 51.027344 38.179688 51.394531 37.523438 Z M 51.007812 31.054688 C 50.855469 30.441406 50.925781 29.941406 51.199219 29.558594 C 51.484375 29.886719 51.839844 30.109375 52.148438 30.269531 C 52.851562 30.628906 53.648438 30.894531 54.660156 31.105469 C 55.902344 31.359375 57.136719 31.484375 58.308594 31.484375 C 59.757812 31.484375 61.117188 31.292969 62.316406 30.910156 C 63.042969 30.679688 64.109375 30.21875 64.933594 29.625 C 65.167969 30 65.226562 30.476562 65.085938 31.054688 C 64.84375 32.019531 64.25 32.929688 63.417969 33.628906 C 62.257812 34.609375 60.492188 35.066406 57.996094 35.046875 L 57.96875 35.046875 C 56.101562 35 54.039062 34.777344 52.675781 33.628906 C 51.839844 32.929688 51.25 32.019531 51.007812 31.054688 Z M 53.667969 28.320312 L 53.722656 28.308594 C 54.589844 28.074219 55.429688 27.9375 56.222656 27.875 C 56.300781 28.148438 56.414062 28.441406 56.578125 28.6875 C 56.949219 29.242188 57.710938 29.402344 58.277344 29.402344 C 58.464844 29.402344 58.636719 29.386719 58.757812 29.359375 C 59.007812 29.308594 59.222656 29.234375 59.464844 29.035156 C 59.8125 28.75 60.003906 28.292969 60.128906 27.882812 C 60.871094 27.960938 61.554688 28.089844 62.367188 28.308594 L 62.421875 28.320312 C 63.09375 28.503906 63.832031 28.703125 64.386719 29.074219 C 63.6875 29.554688 62.773438 29.960938 62.082031 30.179688 C 60.042969 30.835938 57.460938 30.894531 54.808594 30.355469 C 53.871094 30.160156 53.132812 29.917969 52.496094 29.589844 C 52.152344 29.414062 51.921875 29.238281 51.753906 29.042969 C 52.304688 28.6875 53.015625 28.496094 53.667969 28.320312 Z M 57.175781 26.449219 C 57.242188 26.371094 57.359375 26.304688 57.515625 26.257812 C 57.617188 26.234375 57.738281 26.210938 57.894531 26.199219 C 58.152344 26.183594 58.425781 26.199219 58.710938 26.25 C 59.074219 26.308594 59.167969 26.371094 59.226562 26.488281 C 59.328125 26.671875 59.308594 26.921875 59.242188 27.246094 C 59.109375 27.894531 58.945312 28.148438 58.828125 28.238281 C 58.753906 28.304688 58.703125 28.332031 58.554688 28.359375 C 58.1875 28.433594 57.554688 28.332031 57.414062 28.117188 C 57.273438 27.894531 57.136719 27.492188 57.070312 27.058594 C 57.027344 26.789062 57.0625 26.585938 57.175781 26.449219 Z M 66.453125 40.484375 L 66.4375 40.332031 C 66.300781 39.261719 66.152344 38.042969 65.578125 37.015625 C 65.039062 36.074219 64.269531 35.390625 63.503906 34.828125 C 63.699219 34.699219 63.886719 34.5625 64.0625 34.414062 C 65.058594 33.578125 65.769531 32.476562 66.066406 31.304688 C 66.304688 30.328125 66.152344 29.46875 65.617188 28.824219 C 64.863281 27.917969 63.648438 27.59375 62.679688 27.335938 L 62.625 27.320312 C 61.792969 27.101562 61.070312 26.964844 60.304688 26.875 C 60.3125 26.585938 60.273438 26.285156 60.113281 25.992188 C 59.785156 25.398438 59.199219 25.296875 58.878906 25.238281 C 58.515625 25.179688 58.15625 25.15625 57.816406 25.183594 C 57.589844 25.199219 57.402344 25.226562 57.226562 25.28125 C 56.878906 25.386719 56.601562 25.554688 56.402344 25.792969 C 56.167969 26.082031 56.042969 26.449219 56.050781 26.867188 C 55.21875 26.933594 54.355469 27.085938 53.46875 27.320312 L 53.414062 27.335938 C 52.441406 27.59375 51.230469 27.917969 50.476562 28.824219 C 49.941406 29.46875 49.785156 30.328125 50.023438 31.304688 C 50.324219 32.476562 51.03125 33.578125 52.027344 34.414062 C 52.203125 34.570312 52.390625 34.699219 52.585938 34.824219 C 51.820312 35.382812 51.050781 36.074219 50.515625 37.015625 C 49.941406 38.042969 49.789062 39.261719 49.652344 40.332031 L 49.636719 40.484375 C 49.46875 41.820312 49.449219 43.15625 49.445312 44.523438 L 49.445312 44.597656 C 49.4375 45.710938 49.433594 46.867188 49.5 48.007812 C 49.554688 48.996094 49.640625 49.855469 49.777344 50.703125 C 49.910156 51.53125 50.070312 52.570312 50.664062 53.367188 C 51.207031 54.109375 52.058594 54.511719 52.648438 54.75 C 53.800781 55.21875 55.242188 55.710938 57.6875 55.746094 L 57.6875 55.75 L 57.695312 55.75 C 57.800781 55.75 57.894531 55.757812 58.003906 55.757812 L 58.1875 55.757812 C 58.21875 55.757812 58.242188 55.738281 58.273438 55.734375 C 60.789062 55.679688 62.300781 55.214844 63.441406 54.75 C 64.03125 54.511719 64.882812 54.109375 65.429688 53.367188 C 66.019531 52.566406 66.179688 51.53125 66.3125 50.703125 C 66.445312 49.863281 66.535156 49.007812 66.589844 48.007812 C 66.65625 46.867188 66.652344 45.710938 66.644531 44.597656 L 66.644531 44.523438 C 66.640625 43.15625 66.621094 41.820312 66.453125 40.484375 "/></g><path style=" stroke:none;fill-rule:nonzero;fill:#f4f4e6;fill-opacity:1;" d="M 59.910156 53.582031 C 59.546875 53.640625 59.175781 53.652344 58.820312 53.652344 C 58.539062 53.652344 58.269531 53.644531 58.019531 53.628906 C 57.808594 53.617188 57.648438 53.441406 57.660156 53.226562 C 57.671875 53.015625 57.847656 52.851562 58.0625 52.867188 C 58.59375 52.898438 59.21875 52.914062 59.789062 52.824219 C 60.003906 52.792969 60.191406 52.933594 60.222656 53.144531 C 60.257812 53.351562 60.117188 53.546875 59.910156 53.582031 Z M 57.035156 53.835938 C 57.015625 53.84375 57 53.84375 56.984375 53.84375 C 56.796875 53.84375 56.636719 53.707031 56.609375 53.511719 C 56.589844 53.394531 56.578125 53.277344 56.566406 53.160156 C 56.546875 52.945312 56.695312 52.761719 56.902344 52.734375 C 57.113281 52.714844 57.296875 52.867188 57.316406 53.082031 C 57.332031 53.191406 57.34375 53.300781 57.359375 53.410156 C 57.386719 53.617188 57.242188 53.8125 57.035156 53.835938 Z M 55.753906 53.515625 L 55.730469 53.515625 C 55.199219 53.476562 54.761719 53.410156 54.351562 53.296875 C 53.722656 53.128906 53.210938 52.875 52.824219 52.53125 C 51.808594 51.632812 51.703125 50.074219 51.613281 48.824219 C 51.601562 48.65625 51.585938 48.496094 51.578125 48.339844 C 51.558594 48.132812 51.710938 47.945312 51.921875 47.925781 C 52.136719 47.910156 52.316406 48.0625 52.332031 48.273438 C 52.34375 48.433594 52.355469 48.597656 52.371094 48.769531 C 52.445312 49.878906 52.542969 51.265625 53.324219 51.957031 C 53.625 52.222656 54.03125 52.421875 54.542969 52.558594 C 54.90625 52.652344 55.300781 52.722656 55.785156 52.757812 C 55.996094 52.769531 56.148438 52.949219 56.132812 53.164062 C 56.121094 53.363281 55.953125 53.515625 55.753906 53.515625 Z M 65.453125 40.613281 L 65.449219 40.59375 C 63.988281 41.503906 61.101562 42.011719 58.136719 42.011719 C 55.332031 42.011719 52.457031 41.554688 50.640625 40.566406 L 50.636719 40.613281 C 50.480469 41.886719 50.460938 43.195312 50.457031 44.527344 L 50.457031 44.601562 C 50.449219 45.703125 50.445312 46.839844 50.507812 47.953125 C 50.5625 48.90625 50.648438 49.726562 50.773438 50.539062 C 50.890625 51.261719 51.03125 52.160156 51.46875 52.761719 C 51.863281 53.292969 52.546875 53.613281 53.023438 53.808594 C 54.140625 54.253906 55.429688 54.695312 57.691406 54.730469 C 60.410156 54.726562 61.871094 54.289062 63.070312 53.808594 C 63.542969 53.613281 64.226562 53.292969 64.621094 52.761719 C 65.058594 52.160156 65.199219 51.261719 65.316406 50.539062 C 65.445312 49.738281 65.527344 48.917969 65.585938 47.945312 C 65.644531 46.839844 65.640625 45.703125 65.636719 44.601562 L 65.636719 44.527344 C 65.632812 43.195312 65.609375 41.886719 65.453125 40.613281 "/><path style=" stroke:none;fill-rule:nonzero;fill:#d3843d;fill-opacity:1;" d="M 65.335938 39.734375 C 63.167969 41.582031 54.148438 41.847656 50.746094 39.75 C 50.863281 38.953125 51.027344 38.179688 51.394531 37.523438 C 51.933594 36.574219 52.769531 35.917969 53.609375 35.347656 C 55.011719 35.914062 56.640625 36.042969 58.128906 36.074219 C 58.160156 36.074219 58.179688 36.066406 58.203125 36.066406 C 59.925781 36.0625 61.339844 35.820312 62.488281 35.347656 C 63.320312 35.925781 64.160156 36.574219 64.695312 37.523438 C 65.066406 38.175781 65.226562 38.945312 65.335938 39.734375 "/><path style=" stroke:none;fill-rule:nonzero;fill:#f9bb4b;fill-opacity:1;" d="M 65.085938 31.054688 C 64.84375 32.019531 64.25 32.929688 63.417969 33.628906 C 62.257812 34.609375 60.492188 35.066406 57.996094 35.046875 L 57.96875 35.046875 C 56.101562 35 54.039062 34.777344 52.675781 33.628906 C 51.839844 32.929688 51.25 32.019531 51.007812 31.054688 C 50.855469 30.441406 50.925781 29.941406 51.199219 29.558594 C 51.484375 29.886719 51.839844 30.109375 52.148438 30.269531 C 52.851562 30.628906 53.648438 30.894531 54.660156 31.105469 C 55.902344 31.359375 57.136719 31.484375 58.308594 31.484375 C 59.757812 31.484375 61.117188 31.292969 62.316406 30.910156 C 63.042969 30.679688 64.109375 30.21875 64.933594 29.625 C 65.167969 30 65.226562 30.476562 65.085938 31.054688 "/><path style=" stroke:none;fill-rule:nonzero;fill:#d3843d;fill-opacity:1;" d="M 64.386719 29.074219 C 63.6875 29.554688 62.773438 29.960938 62.082031 30.179688 C 60.042969 30.835938 57.460938 30.894531 54.808594 30.355469 C 53.871094 30.160156 53.132812 29.917969 52.496094 29.589844 C 52.152344 29.414062 51.921875 29.238281 51.753906 29.042969 C 52.304688 28.6875 53.015625 28.496094 53.667969 28.320312 L 53.722656 28.308594 C 54.589844 28.074219 55.429688 27.9375 56.222656 27.875 C 56.300781 28.148438 56.414062 28.441406 56.578125 28.6875 C 56.949219 29.242188 57.710938 29.402344 58.277344 29.402344 C 58.464844 29.402344 58.636719 29.386719 58.757812 29.359375 C 59.007812 29.308594 59.222656 29.234375 59.464844 29.035156 C 59.8125 28.75 60.003906 28.292969 60.128906 27.882812 C 60.871094 27.960938 61.554688 28.089844 62.367188 28.308594 L 62.421875 28.320312 C 63.09375 28.503906 63.832031 28.703125 64.386719 29.074219 "/><path style=" stroke:none;fill-rule:nonzero;fill:#f9bb4b;fill-opacity:1;" d="M 59.242188 27.246094 C 59.109375 27.894531 58.945312 28.148438 58.828125 28.238281 C 58.753906 28.304688 58.703125 28.332031 58.554688 28.359375 C 58.1875 28.433594 57.554688 28.332031 57.414062 28.117188 C 57.273438 27.894531 57.136719 27.492188 57.070312 27.058594 C 57.027344 26.789062 57.0625 26.585938 57.175781 26.449219 C 57.242188 26.371094 57.359375 26.304688 57.515625 26.257812 C 57.617188 26.234375 57.738281 26.210938 57.894531 26.199219 C 58.152344 26.183594 58.425781 26.199219 58.710938 26.25 C 59.074219 26.308594 59.167969 26.371094 59.226562 26.488281 C 59.328125 26.671875 59.308594 26.921875 59.242188 27.246094 "/><path style=" stroke:none;fill-rule:nonzero;fill:#000000;fill-opacity:1;" d="M 57.359375 53.410156 C 57.386719 53.617188 57.242188 53.8125 57.035156 53.835938 C 57.015625 53.84375 57 53.84375 56.984375 53.84375 C 56.796875 53.84375 56.636719 53.707031 56.609375 53.511719 C 56.589844 53.394531 56.578125 53.277344 56.566406 53.160156 C 56.546875 52.945312 56.695312 52.761719 56.902344 52.734375 C 57.113281 52.714844 57.296875 52.867188 57.316406 53.082031 C 57.332031 53.191406 57.34375 53.300781 57.359375 53.410156 "/><path style=" stroke:none;fill-rule:nonzero;fill:#000000;fill-opacity:1;" d="M 60.222656 53.144531 C 60.257812 53.351562 60.117188 53.546875 59.910156 53.582031 C 59.546875 53.640625 59.175781 53.652344 58.820312 53.652344 C 58.539062 53.652344 58.269531 53.644531 58.019531 53.628906 C 57.808594 53.617188 57.648438 53.441406 57.660156 53.226562 C 57.671875 53.015625 57.847656 52.851562 58.0625 52.867188 C 58.59375 52.898438 59.21875 52.914062 59.789062 52.824219 C 60.003906 52.792969 60.191406 52.933594 60.222656 53.144531 "/><path style=" stroke:none;fill-rule:nonzero;fill:#000000;fill-opacity:1;" d="M 56.132812 53.164062 C 56.121094 53.363281 55.953125 53.515625 55.753906 53.515625 L 55.730469 53.515625 C 55.199219 53.476562 54.761719 53.410156 54.351562 53.296875 C 53.722656 53.128906 53.210938 52.875 52.824219 52.53125 C 51.808594 51.632812 51.703125 50.074219 51.613281 48.824219 C 51.601562 48.65625 51.585938 48.496094 51.578125 48.339844 C 51.558594 48.132812 51.710938 47.945312 51.921875 47.925781 C 52.136719 47.910156 52.316406 48.0625 52.332031 48.273438 C 52.34375 48.433594 52.355469 48.597656 52.371094 48.769531 C 52.445312 49.878906 52.542969 51.265625 53.324219 51.957031 C 53.625 52.222656 54.03125 52.421875 54.542969 52.558594 C 54.90625 52.652344 55.300781 52.722656 55.785156 52.757812 C 55.996094 52.769531 56.148438 52.949219 56.132812 53.164062 "/><g style="fill:#ffffff;fill-opacity:0.4;"><g transform="translate(42.422394, 66.240369)"><path style="stroke:none" d="M 1.546875 -0.203125 C 1.359375 -0.0351562 1.175781 0.03125 1 0 C 0.820312 -0.0390625 0.664062 -0.140625 0.53125 -0.296875 C 0.40625 -0.460938 0.320312 -0.640625 0.28125 -0.828125 C 0.207031 -1.191406 0.179688 -1.519531 0.203125 -1.8125 C 0.222656 -2.101562 0.226562 -2.429688 0.21875 -2.796875 C 0.207031 -3.296875 0.191406 -3.785156 0.171875 -4.265625 C 0.160156 -4.753906 0.15625 -5.242188 0.15625 -5.734375 C 0.15625 -5.929688 0.160156 -6.128906 0.171875 -6.328125 C 0.191406 -6.523438 0.242188 -6.703125 0.328125 -6.859375 C 0.421875 -7.023438 0.570312 -7.144531 0.78125 -7.21875 C 1.070312 -7.332031 1.304688 -7.359375 1.484375 -7.296875 C 1.671875 -7.234375 1.804688 -7.117188 1.890625 -6.953125 C 1.984375 -6.796875 2.046875 -6.597656 2.078125 -6.359375 C 2.109375 -6.128906 2.117188 -5.890625 2.109375 -5.640625 C 2.097656 -5.390625 2.078125 -5.15625 2.046875 -4.9375 C 2.023438 -4.71875 2.007812 -4.535156 2 -4.390625 C 2.238281 -4.398438 2.472656 -4.398438 2.703125 -4.390625 C 2.941406 -4.378906 3.175781 -4.375 3.40625 -4.375 C 3.375 -4.625 3.335938 -4.882812 3.296875 -5.15625 C 3.253906 -5.425781 3.226562 -5.695312 3.21875 -5.96875 C 3.21875 -6.238281 3.25 -6.5 3.3125 -6.75 C 3.375 -6.957031 3.488281 -7.144531 3.65625 -7.3125 C 3.820312 -7.488281 4.015625 -7.597656 4.234375 -7.640625 C 4.453125 -7.679688 4.660156 -7.617188 4.859375 -7.453125 C 4.984375 -7.347656 5.070312 -7.15625 5.125 -6.875 C 5.175781 -6.601562 5.203125 -6.28125 5.203125 -5.90625 C 5.210938 -5.53125 5.203125 -5.132812 5.171875 -4.71875 C 5.148438 -4.300781 5.117188 -3.894531 5.078125 -3.5 C 5.046875 -3.113281 5.015625 -2.769531 4.984375 -2.46875 C 4.953125 -2.175781 4.925781 -1.960938 4.90625 -1.828125 C 4.894531 -1.722656 4.875 -1.582031 4.84375 -1.40625 C 4.820312 -1.238281 4.78125 -1.066406 4.71875 -0.890625 C 4.664062 -0.710938 4.59375 -0.5625 4.5 -0.4375 C 4.40625 -0.320312 4.296875 -0.265625 4.171875 -0.265625 C 4.054688 -0.273438 3.914062 -0.367188 3.75 -0.546875 C 3.582031 -0.753906 3.484375 -1 3.453125 -1.28125 C 3.421875 -1.570312 3.421875 -1.863281 3.453125 -2.15625 C 3.484375 -2.457031 3.503906 -2.722656 3.515625 -2.953125 C 3.398438 -2.941406 3.25 -2.929688 3.0625 -2.921875 C 2.875 -2.910156 2.6875 -2.894531 2.5 -2.875 C 2.320312 -2.851562 2.179688 -2.816406 2.078125 -2.765625 C 1.953125 -2.691406 1.890625 -2.582031 1.890625 -2.4375 C 1.898438 -2.289062 1.90625 -2.125 1.90625 -1.9375 C 1.894531 -1.757812 1.890625 -1.5625 1.890625 -1.34375 C 1.890625 -1.125 1.863281 -0.910156 1.8125 -0.703125 C 1.769531 -0.503906 1.679688 -0.335938 1.546875 -0.203125 Z M 1.546875 -0.203125 "/></g></g><g style="fill:#ffffff;fill-opacity:0.4;"><g transform="translate(47.850622, 66.240369)"><path style="stroke:none" d="M 0.203125 -6.859375 C 0.140625 -7.066406 0.144531 -7.28125 0.21875 -7.5 C 0.300781 -7.71875 0.425781 -7.910156 0.59375 -8.078125 C 0.769531 -8.253906 0.960938 -8.367188 1.171875 -8.421875 C 1.253906 -8.441406 1.363281 -8.445312 1.5 -8.4375 C 1.644531 -8.425781 1.785156 -8.394531 1.921875 -8.34375 C 2.054688 -8.289062 2.160156 -8.21875 2.234375 -8.125 C 2.316406 -8.03125 2.335938 -7.914062 2.296875 -7.78125 C 2.367188 -7.5625 2.359375 -7.335938 2.265625 -7.109375 C 2.171875 -6.890625 2.023438 -6.695312 1.828125 -6.53125 C 1.640625 -6.375 1.4375 -6.265625 1.21875 -6.203125 C 1 -6.148438 0.796875 -6.171875 0.609375 -6.265625 C 0.421875 -6.359375 0.285156 -6.554688 0.203125 -6.859375 Z M 1.625 -0.15625 C 1.382812 0.0078125 1.148438 0.046875 0.921875 -0.046875 C 0.703125 -0.148438 0.53125 -0.320312 0.40625 -0.5625 C 0.300781 -0.789062 0.234375 -1.054688 0.203125 -1.359375 C 0.171875 -1.660156 0.160156 -1.972656 0.171875 -2.296875 C 0.179688 -2.628906 0.195312 -2.945312 0.21875 -3.25 C 0.25 -3.5625 0.273438 -3.835938 0.296875 -4.078125 C 0.316406 -4.234375 0.332031 -4.410156 0.34375 -4.609375 C 0.363281 -4.804688 0.394531 -5.003906 0.4375 -5.203125 C 0.488281 -5.398438 0.570312 -5.554688 0.6875 -5.671875 C 0.84375 -5.835938 1.003906 -5.914062 1.171875 -5.90625 C 1.347656 -5.894531 1.515625 -5.828125 1.671875 -5.703125 C 1.828125 -5.585938 1.945312 -5.4375 2.03125 -5.25 C 2.207031 -4.863281 2.304688 -4.425781 2.328125 -3.9375 C 2.359375 -3.457031 2.34375 -2.972656 2.28125 -2.484375 C 2.21875 -2.003906 2.144531 -1.5625 2.0625 -1.15625 C 2.03125 -0.976562 1.988281 -0.796875 1.9375 -0.609375 C 1.894531 -0.429688 1.789062 -0.28125 1.625 -0.15625 Z M 1.625 -0.15625 "/></g></g><g style="fill:#ffffff;fill-opacity:0.4;"><g transform="translate(50.358463, 66.240369)"><path style="stroke:none" d="M 5.859375 -0.375 C 5.617188 -0.132812 5.398438 -0.0078125 5.203125 0 C 5.003906 0.0078125 4.828125 -0.0507812 4.671875 -0.1875 C 4.515625 -0.332031 4.378906 -0.519531 4.265625 -0.75 C 4.148438 -0.976562 4.050781 -1.222656 3.96875 -1.484375 C 3.882812 -1.753906 3.816406 -2.003906 3.765625 -2.234375 C 3.710938 -2.472656 3.675781 -2.660156 3.65625 -2.796875 C 3.59375 -2.773438 3.488281 -2.753906 3.34375 -2.734375 C 3.207031 -2.710938 3.070312 -2.6875 2.9375 -2.65625 C 2.8125 -2.625 2.726562 -2.585938 2.6875 -2.546875 C 2.632812 -2.492188 2.601562 -2.394531 2.59375 -2.25 C 2.582031 -2.101562 2.570312 -1.992188 2.5625 -1.921875 C 2.507812 -1.710938 2.453125 -1.5 2.390625 -1.28125 C 2.328125 -1.0625 2.222656 -0.863281 2.078125 -0.6875 C 1.890625 -0.46875 1.675781 -0.335938 1.4375 -0.296875 C 1.195312 -0.253906 0.96875 -0.296875 0.75 -0.421875 C 0.539062 -0.554688 0.390625 -0.757812 0.296875 -1.03125 C 0.179688 -1.332031 0.132812 -1.660156 0.15625 -2.015625 C 0.1875 -2.378906 0.226562 -2.742188 0.28125 -3.109375 C 0.34375 -3.472656 0.382812 -3.804688 0.40625 -4.109375 C 0.445312 -4.609375 0.457031 -5.117188 0.4375 -5.640625 C 0.414062 -6.171875 0.441406 -6.679688 0.515625 -7.171875 C 0.566406 -7.472656 0.691406 -7.710938 0.890625 -7.890625 C 1.085938 -8.066406 1.332031 -8.191406 1.625 -8.265625 C 1.914062 -8.335938 2.226562 -8.367188 2.5625 -8.359375 C 2.90625 -8.359375 3.242188 -8.328125 3.578125 -8.265625 C 3.921875 -8.203125 4.234375 -8.113281 4.515625 -8 C 4.796875 -7.894531 5.03125 -7.785156 5.21875 -7.671875 C 5.59375 -7.429688 5.863281 -7.144531 6.03125 -6.8125 C 6.195312 -6.476562 6.269531 -6.128906 6.25 -5.765625 C 6.238281 -5.398438 6.140625 -5.039062 5.953125 -4.6875 C 5.773438 -4.34375 5.535156 -4.03125 5.234375 -3.75 C 5.367188 -3.539062 5.515625 -3.289062 5.671875 -3 C 5.835938 -2.71875 5.972656 -2.414062 6.078125 -2.09375 C 6.191406 -1.769531 6.238281 -1.457031 6.21875 -1.15625 C 6.207031 -0.851562 6.085938 -0.59375 5.859375 -0.375 Z M 2.515625 -4.140625 C 2.722656 -4.222656 2.925781 -4.3125 3.125 -4.40625 C 3.332031 -4.5 3.523438 -4.613281 3.703125 -4.75 C 3.941406 -4.914062 4.070312 -5.078125 4.09375 -5.234375 C 4.125 -5.398438 4.085938 -5.550781 3.984375 -5.6875 C 3.878906 -5.820312 3.734375 -5.925781 3.546875 -6 C 3.359375 -6.070312 3.160156 -6.101562 2.953125 -6.09375 C 2.796875 -6.082031 2.664062 -6.066406 2.5625 -6.046875 C 2.457031 -6.023438 2.378906 -5.941406 2.328125 -5.796875 C 2.285156 -5.671875 2.273438 -5.503906 2.296875 -5.296875 C 2.328125 -5.085938 2.363281 -4.878906 2.40625 -4.671875 C 2.457031 -4.460938 2.492188 -4.285156 2.515625 -4.140625 Z M 2.515625 -4.140625 "/></g></g><g style="fill:#ffffff;fill-opacity:0.4;"><g transform="translate(56.77463, 66.240369)"><path style="stroke:none" d="M 0.203125 -6.859375 C 0.140625 -7.066406 0.144531 -7.28125 0.21875 -7.5 C 0.300781 -7.71875 0.425781 -7.910156 0.59375 -8.078125 C 0.769531 -8.253906 0.960938 -8.367188 1.171875 -8.421875 C 1.253906 -8.441406 1.363281 -8.445312 1.5 -8.4375 C 1.644531 -8.425781 1.785156 -8.394531 1.921875 -8.34375 C 2.054688 -8.289062 2.160156 -8.21875 2.234375 -8.125 C 2.316406 -8.03125 2.335938 -7.914062 2.296875 -7.78125 C 2.367188 -7.5625 2.359375 -7.335938 2.265625 -7.109375 C 2.171875 -6.890625 2.023438 -6.695312 1.828125 -6.53125 C 1.640625 -6.375 1.4375 -6.265625 1.21875 -6.203125 C 1 -6.148438 0.796875 -6.171875 0.609375 -6.265625 C 0.421875 -6.359375 0.285156 -6.554688 0.203125 -6.859375 Z M 1.625 -0.15625 C 1.382812 0.0078125 1.148438 0.046875 0.921875 -0.046875 C 0.703125 -0.148438 0.53125 -0.320312 0.40625 -0.5625 C 0.300781 -0.789062 0.234375 -1.054688 0.203125 -1.359375 C 0.171875 -1.660156 0.160156 -1.972656 0.171875 -2.296875 C 0.179688 -2.628906 0.195312 -2.945312 0.21875 -3.25 C 0.25 -3.5625 0.273438 -3.835938 0.296875 -4.078125 C 0.316406 -4.234375 0.332031 -4.410156 0.34375 -4.609375 C 0.363281 -4.804688 0.394531 -5.003906 0.4375 -5.203125 C 0.488281 -5.398438 0.570312 -5.554688 0.6875 -5.671875 C 0.84375 -5.835938 1.003906 -5.914062 1.171875 -5.90625 C 1.347656 -5.894531 1.515625 -5.828125 1.671875 -5.703125 C 1.828125 -5.585938 1.945312 -5.4375 2.03125 -5.25 C 2.207031 -4.863281 2.304688 -4.425781 2.328125 -3.9375 C 2.359375 -3.457031 2.34375 -2.972656 2.28125 -2.484375 C 2.21875 -2.003906 2.144531 -1.5625 2.0625 -1.15625 C 2.03125 -0.976562 1.988281 -0.796875 1.9375 -0.609375 C 1.894531 -0.429688 1.789062 -0.28125 1.625 -0.15625 Z M 1.625 -0.15625 "/></g></g><g style="fill:#ffffff;fill-opacity:0.4;"><g transform="translate(59.282471, 66.240369)"><path style="stroke:none" d="M 1.8125 -0.0625 C 1.65625 -0.09375 1.476562 -0.128906 1.28125 -0.171875 C 1.082031 -0.210938 0.894531 -0.269531 0.71875 -0.34375 C 0.550781 -0.425781 0.414062 -0.539062 0.3125 -0.6875 C 0.175781 -0.882812 0.125 -1.066406 0.15625 -1.234375 C 0.195312 -1.398438 0.296875 -1.535156 0.453125 -1.640625 C 0.609375 -1.742188 0.789062 -1.789062 1 -1.78125 C 1.125 -1.78125 1.265625 -1.75 1.421875 -1.6875 C 1.585938 -1.632812 1.75 -1.582031 1.90625 -1.53125 C 2.070312 -1.476562 2.226562 -1.460938 2.375 -1.484375 C 2.519531 -1.515625 2.644531 -1.617188 2.75 -1.796875 C 2.863281 -1.984375 2.878906 -2.148438 2.796875 -2.296875 C 2.710938 -2.441406 2.585938 -2.566406 2.421875 -2.671875 C 2.265625 -2.773438 2.113281 -2.863281 1.96875 -2.9375 C 1.425781 -3.195312 1.023438 -3.550781 0.765625 -4 C 0.503906 -4.445312 0.421875 -4.984375 0.515625 -5.609375 C 0.597656 -6.222656 0.84375 -6.753906 1.25 -7.203125 C 1.664062 -7.660156 2.171875 -7.972656 2.765625 -8.140625 C 3.054688 -8.234375 3.375 -8.28125 3.71875 -8.28125 C 4.0625 -8.289062 4.367188 -8.210938 4.640625 -8.046875 C 4.785156 -7.953125 4.898438 -7.820312 4.984375 -7.65625 C 5.066406 -7.5 5.085938 -7.34375 5.046875 -7.1875 C 5.003906 -7.03125 4.867188 -6.914062 4.640625 -6.84375 C 4.410156 -6.769531 4.175781 -6.671875 3.9375 -6.546875 C 3.707031 -6.421875 3.5 -6.273438 3.3125 -6.109375 C 3.132812 -5.941406 3.003906 -5.753906 2.921875 -5.546875 C 2.847656 -5.347656 2.84375 -5.140625 2.90625 -4.921875 C 2.976562 -4.710938 3.144531 -4.492188 3.40625 -4.265625 C 3.570312 -4.117188 3.742188 -3.984375 3.921875 -3.859375 C 4.097656 -3.742188 4.257812 -3.613281 4.40625 -3.46875 C 4.5625 -3.332031 4.6875 -3.15625 4.78125 -2.9375 C 4.90625 -2.675781 4.972656 -2.382812 4.984375 -2.0625 C 4.992188 -1.75 4.941406 -1.457031 4.828125 -1.1875 C 4.703125 -0.882812 4.523438 -0.644531 4.296875 -0.46875 C 4.078125 -0.300781 3.828125 -0.179688 3.546875 -0.109375 C 3.265625 -0.0351562 2.972656 0 2.671875 0 C 2.378906 0 2.09375 -0.0195312 1.8125 -0.0625 Z M 1.8125 -0.0625 "/></g></g><g style="fill:#ffffff;fill-opacity:0.4;"><g transform="translate(64.504428, 66.240369)"><path style="stroke:none" d="M 1.546875 -0.203125 C 1.359375 -0.0351562 1.175781 0.03125 1 0 C 0.820312 -0.0390625 0.664062 -0.140625 0.53125 -0.296875 C 0.40625 -0.460938 0.320312 -0.640625 0.28125 -0.828125 C 0.207031 -1.191406 0.179688 -1.519531 0.203125 -1.8125 C 0.222656 -2.101562 0.226562 -2.429688 0.21875 -2.796875 C 0.207031 -3.296875 0.191406 -3.785156 0.171875 -4.265625 C 0.160156 -4.753906 0.15625 -5.242188 0.15625 -5.734375 C 0.15625 -5.929688 0.160156 -6.128906 0.171875 -6.328125 C 0.191406 -6.523438 0.242188 -6.703125 0.328125 -6.859375 C 0.421875 -7.023438 0.570312 -7.144531 0.78125 -7.21875 C 1.070312 -7.332031 1.304688 -7.359375 1.484375 -7.296875 C 1.671875 -7.234375 1.804688 -7.117188 1.890625 -6.953125 C 1.984375 -6.796875 2.046875 -6.597656 2.078125 -6.359375 C 2.109375 -6.128906 2.117188 -5.890625 2.109375 -5.640625 C 2.097656 -5.390625 2.078125 -5.15625 2.046875 -4.9375 C 2.023438 -4.71875 2.007812 -4.535156 2 -4.390625 C 2.238281 -4.398438 2.472656 -4.398438 2.703125 -4.390625 C 2.941406 -4.378906 3.175781 -4.375 3.40625 -4.375 C 3.375 -4.625 3.335938 -4.882812 3.296875 -5.15625 C 3.253906 -5.425781 3.226562 -5.695312 3.21875 -5.96875 C 3.21875 -6.238281 3.25 -6.5 3.3125 -6.75 C 3.375 -6.957031 3.488281 -7.144531 3.65625 -7.3125 C 3.820312 -7.488281 4.015625 -7.597656 4.234375 -7.640625 C 4.453125 -7.679688 4.660156 -7.617188 4.859375 -7.453125 C 4.984375 -7.347656 5.070312 -7.15625 5.125 -6.875 C 5.175781 -6.601562 5.203125 -6.28125 5.203125 -5.90625 C 5.210938 -5.53125 5.203125 -5.132812 5.171875 -4.71875 C 5.148438 -4.300781 5.117188 -3.894531 5.078125 -3.5 C 5.046875 -3.113281 5.015625 -2.769531 4.984375 -2.46875 C 4.953125 -2.175781 4.925781 -1.960938 4.90625 -1.828125 C 4.894531 -1.722656 4.875 -1.582031 4.84375 -1.40625 C 4.820312 -1.238281 4.78125 -1.066406 4.71875 -0.890625 C 4.664062 -0.710938 4.59375 -0.5625 4.5 -0.4375 C 4.40625 -0.320312 4.296875 -0.265625 4.171875 -0.265625 C 4.054688 -0.273438 3.914062 -0.367188 3.75 -0.546875 C 3.582031 -0.753906 3.484375 -1 3.453125 -1.28125 C 3.421875 -1.570312 3.421875 -1.863281 3.453125 -2.15625 C 3.484375 -2.457031 3.503906 -2.722656 3.515625 -2.953125 C 3.398438 -2.941406 3.25 -2.929688 3.0625 -2.921875 C 2.875 -2.910156 2.6875 -2.894531 2.5 -2.875 C 2.320312 -2.851562 2.179688 -2.816406 2.078125 -2.765625 C 1.953125 -2.691406 1.890625 -2.582031 1.890625 -2.4375 C 1.898438 -2.289062 1.90625 -2.125 1.90625 -1.9375 C 1.894531 -1.757812 1.890625 -1.5625 1.890625 -1.34375 C 1.890625 -1.125 1.863281 -0.910156 1.8125 -0.703125 C 1.769531 -0.503906 1.679688 -0.335938 1.546875 -0.203125 Z M 1.546875 -0.203125 "/></g></g><g style="fill:#ffffff;fill-opacity:0.4;"><g transform="translate(69.932656, 66.240369)"><path style="stroke:none" d="M 0.203125 -6.859375 C 0.140625 -7.066406 0.144531 -7.28125 0.21875 -7.5 C 0.300781 -7.71875 0.425781 -7.910156 0.59375 -8.078125 C 0.769531 -8.253906 0.960938 -8.367188 1.171875 -8.421875 C 1.253906 -8.441406 1.363281 -8.445312 1.5 -8.4375 C 1.644531 -8.425781 1.785156 -8.394531 1.921875 -8.34375 C 2.054688 -8.289062 2.160156 -8.21875 2.234375 -8.125 C 2.316406 -8.03125 2.335938 -7.914062 2.296875 -7.78125 C 2.367188 -7.5625 2.359375 -7.335938 2.265625 -7.109375 C 2.171875 -6.890625 2.023438 -6.695312 1.828125 -6.53125 C 1.640625 -6.375 1.4375 -6.265625 1.21875 -6.203125 C 1 -6.148438 0.796875 -6.171875 0.609375 -6.265625 C 0.421875 -6.359375 0.285156 -6.554688 0.203125 -6.859375 Z M 1.625 -0.15625 C 1.382812 0.0078125 1.148438 0.046875 0.921875 -0.046875 C 0.703125 -0.148438 0.53125 -0.320312 0.40625 -0.5625 C 0.300781 -0.789062 0.234375 -1.054688 0.203125 -1.359375 C 0.171875 -1.660156 0.160156 -1.972656 0.171875 -2.296875 C 0.179688 -2.628906 0.195312 -2.945312 0.21875 -3.25 C 0.25 -3.5625 0.273438 -3.835938 0.296875 -4.078125 C 0.316406 -4.234375 0.332031 -4.410156 0.34375 -4.609375 C 0.363281 -4.804688 0.394531 -5.003906 0.4375 -5.203125 C 0.488281 -5.398438 0.570312 -5.554688 0.6875 -5.671875 C 0.84375 -5.835938 1.003906 -5.914062 1.171875 -5.90625 C 1.347656 -5.894531 1.515625 -5.828125 1.671875 -5.703125 C 1.828125 -5.585938 1.945312 -5.4375 2.03125 -5.25 C 2.207031 -4.863281 2.304688 -4.425781 2.328125 -3.9375 C 2.359375 -3.457031 2.34375 -2.972656 2.28125 -2.484375 C 2.21875 -2.003906 2.144531 -1.5625 2.0625 -1.15625 C 2.03125 -0.976562 1.988281 -0.796875 1.9375 -0.609375 C 1.894531 -0.429688 1.789062 -0.28125 1.625 -0.15625 Z M 1.625 -0.15625 "/></g></g><g style="fill:#663100;fill-opacity:1;"><g transform="translate(43.05601, 65.997149)"><path style="stroke:none" d="M 1.546875 -0.203125 C 1.359375 -0.0351562 1.175781 0.03125 1 0 C 0.820312 -0.0390625 0.664062 -0.140625 0.53125 -0.296875 C 0.40625 -0.460938 0.320312 -0.640625 0.28125 -0.828125 C 0.207031 -1.191406 0.179688 -1.519531 0.203125 -1.8125 C 0.222656 -2.101562 0.226562 -2.429688 0.21875 -2.796875 C 0.207031 -3.296875 0.191406 -3.785156 0.171875 -4.265625 C 0.160156 -4.753906 0.15625 -5.242188 0.15625 -5.734375 C 0.15625 -5.929688 0.160156 -6.128906 0.171875 -6.328125 C 0.191406 -6.523438 0.242188 -6.703125 0.328125 -6.859375 C 0.421875 -7.023438 0.570312 -7.144531 0.78125 -7.21875 C 1.070312 -7.332031 1.304688 -7.359375 1.484375 -7.296875 C 1.671875 -7.234375 1.804688 -7.117188 1.890625 -6.953125 C 1.984375 -6.796875 2.046875 -6.597656 2.078125 -6.359375 C 2.109375 -6.128906 2.117188 -5.890625 2.109375 -5.640625 C 2.097656 -5.390625 2.078125 -5.15625 2.046875 -4.9375 C 2.023438 -4.71875 2.007812 -4.535156 2 -4.390625 C 2.238281 -4.398438 2.472656 -4.398438 2.703125 -4.390625 C 2.941406 -4.378906 3.175781 -4.375 3.40625 -4.375 C 3.375 -4.625 3.335938 -4.882812 3.296875 -5.15625 C 3.253906 -5.425781 3.226562 -5.695312 3.21875 -5.96875 C 3.21875 -6.238281 3.25 -6.5 3.3125 -6.75 C 3.375 -6.957031 3.488281 -7.144531 3.65625 -7.3125 C 3.820312 -7.488281 4.015625 -7.597656 4.234375 -7.640625 C 4.453125 -7.679688 4.660156 -7.617188 4.859375 -7.453125 C 4.984375 -7.347656 5.070312 -7.15625 5.125 -6.875 C 5.175781 -6.601562 5.203125 -6.28125 5.203125 -5.90625 C 5.210938 -5.53125 5.203125 -5.132812 5.171875 -4.71875 C 5.148438 -4.300781 5.117188 -3.894531 5.078125 -3.5 C 5.046875 -3.113281 5.015625 -2.769531 4.984375 -2.46875 C 4.953125 -2.175781 4.925781 -1.960938 4.90625 -1.828125 C 4.894531 -1.722656 4.875 -1.582031 4.84375 -1.40625 C 4.820312 -1.238281 4.78125 -1.066406 4.71875 -0.890625 C 4.664062 -0.710938 4.59375 -0.5625 4.5 -0.4375 C 4.40625 -0.320312 4.296875 -0.265625 4.171875 -0.265625 C 4.054688 -0.273438 3.914062 -0.367188 3.75 -0.546875 C 3.582031 -0.753906 3.484375 -1 3.453125 -1.28125 C 3.421875 -1.570312 3.421875 -1.863281 3.453125 -2.15625 C 3.484375 -2.457031 3.503906 -2.722656 3.515625 -2.953125 C 3.398438 -2.941406 3.25 -2.929688 3.0625 -2.921875 C 2.875 -2.910156 2.6875 -2.894531 2.5 -2.875 C 2.320312 -2.851562 2.179688 -2.816406 2.078125 -2.765625 C 1.953125 -2.691406 1.890625 -2.582031 1.890625 -2.4375 C 1.898438 -2.289062 1.90625 -2.125 1.90625 -1.9375 C 1.894531 -1.757812 1.890625 -1.5625 1.890625 -1.34375 C 1.890625 -1.125 1.863281 -0.910156 1.8125 -0.703125 C 1.769531 -0.503906 1.679688 -0.335938 1.546875 -0.203125 Z M 1.546875 -0.203125 "/></g></g><g style="fill:#663100;fill-opacity:1;"><g transform="translate(48.484238, 65.997149)"><path style="stroke:none" d="M 0.203125 -6.859375 C 0.140625 -7.066406 0.144531 -7.28125 0.21875 -7.5 C 0.300781 -7.71875 0.425781 -7.910156 0.59375 -8.078125 C 0.769531 -8.253906 0.960938 -8.367188 1.171875 -8.421875 C 1.253906 -8.441406 1.363281 -8.445312 1.5 -8.4375 C 1.644531 -8.425781 1.785156 -8.394531 1.921875 -8.34375 C 2.054688 -8.289062 2.160156 -8.21875 2.234375 -8.125 C 2.316406 -8.03125 2.335938 -7.914062 2.296875 -7.78125 C 2.367188 -7.5625 2.359375 -7.335938 2.265625 -7.109375 C 2.171875 -6.890625 2.023438 -6.695312 1.828125 -6.53125 C 1.640625 -6.375 1.4375 -6.265625 1.21875 -6.203125 C 1 -6.148438 0.796875 -6.171875 0.609375 -6.265625 C 0.421875 -6.359375 0.285156 -6.554688 0.203125 -6.859375 Z M 1.625 -0.15625 C 1.382812 0.0078125 1.148438 0.046875 0.921875 -0.046875 C 0.703125 -0.148438 0.53125 -0.320312 0.40625 -0.5625 C 0.300781 -0.789062 0.234375 -1.054688 0.203125 -1.359375 C 0.171875 -1.660156 0.160156 -1.972656 0.171875 -2.296875 C 0.179688 -2.628906 0.195312 -2.945312 0.21875 -3.25 C 0.25 -3.5625 0.273438 -3.835938 0.296875 -4.078125 C 0.316406 -4.234375 0.332031 -4.410156 0.34375 -4.609375 C 0.363281 -4.804688 0.394531 -5.003906 0.4375 -5.203125 C 0.488281 -5.398438 0.570312 -5.554688 0.6875 -5.671875 C 0.84375 -5.835938 1.003906 -5.914062 1.171875 -5.90625 C 1.347656 -5.894531 1.515625 -5.828125 1.671875 -5.703125 C 1.828125 -5.585938 1.945312 -5.4375 2.03125 -5.25 C 2.207031 -4.863281 2.304688 -4.425781 2.328125 -3.9375 C 2.359375 -3.457031 2.34375 -2.972656 2.28125 -2.484375 C 2.21875 -2.003906 2.144531 -1.5625 2.0625 -1.15625 C 2.03125 -0.976562 1.988281 -0.796875 1.9375 -0.609375 C 1.894531 -0.429688 1.789062 -0.28125 1.625 -0.15625 Z M 1.625 -0.15625 "/></g></g><g style="fill:#663100;fill-opacity:1;"><g transform="translate(50.992079, 65.997149)"><path style="stroke:none" d="M 5.859375 -0.375 C 5.617188 -0.132812 5.398438 -0.0078125 5.203125 0 C 5.003906 0.0078125 4.828125 -0.0507812 4.671875 -0.1875 C 4.515625 -0.332031 4.378906 -0.519531 4.265625 -0.75 C 4.148438 -0.976562 4.050781 -1.222656 3.96875 -1.484375 C 3.882812 -1.753906 3.816406 -2.003906 3.765625 -2.234375 C 3.710938 -2.472656 3.675781 -2.660156 3.65625 -2.796875 C 3.59375 -2.773438 3.488281 -2.753906 3.34375 -2.734375 C 3.207031 -2.710938 3.070312 -2.6875 2.9375 -2.65625 C 2.8125 -2.625 2.726562 -2.585938 2.6875 -2.546875 C 2.632812 -2.492188 2.601562 -2.394531 2.59375 -2.25 C 2.582031 -2.101562 2.570312 -1.992188 2.5625 -1.921875 C 2.507812 -1.710938 2.453125 -1.5 2.390625 -1.28125 C 2.328125 -1.0625 2.222656 -0.863281 2.078125 -0.6875 C 1.890625 -0.46875 1.675781 -0.335938 1.4375 -0.296875 C 1.195312 -0.253906 0.96875 -0.296875 0.75 -0.421875 C 0.539062 -0.554688 0.390625 -0.757812 0.296875 -1.03125 C 0.179688 -1.332031 0.132812 -1.660156 0.15625 -2.015625 C 0.1875 -2.378906 0.226562 -2.742188 0.28125 -3.109375 C 0.34375 -3.472656 0.382812 -3.804688 0.40625 -4.109375 C 0.445312 -4.609375 0.457031 -5.117188 0.4375 -5.640625 C 0.414062 -6.171875 0.441406 -6.679688 0.515625 -7.171875 C 0.566406 -7.472656 0.691406 -7.710938 0.890625 -7.890625 C 1.085938 -8.066406 1.332031 -8.191406 1.625 -8.265625 C 1.914062 -8.335938 2.226562 -8.367188 2.5625 -8.359375 C 2.90625 -8.359375 3.242188 -8.328125 3.578125 -8.265625 C 3.921875 -8.203125 4.234375 -8.113281 4.515625 -8 C 4.796875 -7.894531 5.03125 -7.785156 5.21875 -7.671875 C 5.59375 -7.429688 5.863281 -7.144531 6.03125 -6.8125 C 6.195312 -6.476562 6.269531 -6.128906 6.25 -5.765625 C 6.238281 -5.398438 6.140625 -5.039062 5.953125 -4.6875 C 5.773438 -4.34375 5.535156 -4.03125 5.234375 -3.75 C 5.367188 -3.539062 5.515625 -3.289062 5.671875 -3 C 5.835938 -2.71875 5.972656 -2.414062 6.078125 -2.09375 C 6.191406 -1.769531 6.238281 -1.457031 6.21875 -1.15625 C 6.207031 -0.851562 6.085938 -0.59375 5.859375 -0.375 Z M 2.515625 -4.140625 C 2.722656 -4.222656 2.925781 -4.3125 3.125 -4.40625 C 3.332031 -4.5 3.523438 -4.613281 3.703125 -4.75 C 3.941406 -4.914062 4.070312 -5.078125 4.09375 -5.234375 C 4.125 -5.398438 4.085938 -5.550781 3.984375 -5.6875 C 3.878906 -5.820312 3.734375 -5.925781 3.546875 -6 C 3.359375 -6.070312 3.160156 -6.101562 2.953125 -6.09375 C 2.796875 -6.082031 2.664062 -6.066406 2.5625 -6.046875 C 2.457031 -6.023438 2.378906 -5.941406 2.328125 -5.796875 C 2.285156 -5.671875 2.273438 -5.503906 2.296875 -5.296875 C 2.328125 -5.085938 2.363281 -4.878906 2.40625 -4.671875 C 2.457031 -4.460938 2.492188 -4.285156 2.515625 -4.140625 Z M 2.515625 -4.140625 "/></g></g><g style="fill:#663100;fill-opacity:1;"><g transform="translate(57.408246, 65.997149)"><path style="stroke:none" d="M 0.203125 -6.859375 C 0.140625 -7.066406 0.144531 -7.28125 0.21875 -7.5 C 0.300781 -7.71875 0.425781 -7.910156 0.59375 -8.078125 C 0.769531 -8.253906 0.960938 -8.367188 1.171875 -8.421875 C 1.253906 -8.441406 1.363281 -8.445312 1.5 -8.4375 C 1.644531 -8.425781 1.785156 -8.394531 1.921875 -8.34375 C 2.054688 -8.289062 2.160156 -8.21875 2.234375 -8.125 C 2.316406 -8.03125 2.335938 -7.914062 2.296875 -7.78125 C 2.367188 -7.5625 2.359375 -7.335938 2.265625 -7.109375 C 2.171875 -6.890625 2.023438 -6.695312 1.828125 -6.53125 C 1.640625 -6.375 1.4375 -6.265625 1.21875 -6.203125 C 1 -6.148438 0.796875 -6.171875 0.609375 -6.265625 C 0.421875 -6.359375 0.285156 -6.554688 0.203125 -6.859375 Z M 1.625 -0.15625 C 1.382812 0.0078125 1.148438 0.046875 0.921875 -0.046875 C 0.703125 -0.148438 0.53125 -0.320312 0.40625 -0.5625 C 0.300781 -0.789062 0.234375 -1.054688 0.203125 -1.359375 C 0.171875 -1.660156 0.160156 -1.972656 0.171875 -2.296875 C 0.179688 -2.628906 0.195312 -2.945312 0.21875 -3.25 C 0.25 -3.5625 0.273438 -3.835938 0.296875 -4.078125 C 0.316406 -4.234375 0.332031 -4.410156 0.34375 -4.609375 C 0.363281 -4.804688 0.394531 -5.003906 0.4375 -5.203125 C 0.488281 -5.398438 0.570312 -5.554688 0.6875 -5.671875 C 0.84375 -5.835938 1.003906 -5.914062 1.171875 -5.90625 C 1.347656 -5.894531 1.515625 -5.828125 1.671875 -5.703125 C 1.828125 -5.585938 1.945312 -5.4375 2.03125 -5.25 C 2.207031 -4.863281 2.304688 -4.425781 2.328125 -3.9375 C 2.359375 -3.457031 2.34375 -2.972656 2.28125 -2.484375 C 2.21875 -2.003906 2.144531 -1.5625 2.0625 -1.15625 C 2.03125 -0.976562 1.988281 -0.796875 1.9375 -0.609375 C 1.894531 -0.429688 1.789062 -0.28125 1.625 -0.15625 Z M 1.625 -0.15625 "/></g></g><g style="fill:#663100;fill-opacity:1;"><g transform="translate(59.916087, 65.997149)"><path style="stroke:none" d="M 1.8125 -0.0625 C 1.65625 -0.09375 1.476562 -0.128906 1.28125 -0.171875 C 1.082031 -0.210938 0.894531 -0.269531 0.71875 -0.34375 C 0.550781 -0.425781 0.414062 -0.539062 0.3125 -0.6875 C 0.175781 -0.882812 0.125 -1.066406 0.15625 -1.234375 C 0.195312 -1.398438 0.296875 -1.535156 0.453125 -1.640625 C 0.609375 -1.742188 0.789062 -1.789062 1 -1.78125 C 1.125 -1.78125 1.265625 -1.75 1.421875 -1.6875 C 1.585938 -1.632812 1.75 -1.582031 1.90625 -1.53125 C 2.070312 -1.476562 2.226562 -1.460938 2.375 -1.484375 C 2.519531 -1.515625 2.644531 -1.617188 2.75 -1.796875 C 2.863281 -1.984375 2.878906 -2.148438 2.796875 -2.296875 C 2.710938 -2.441406 2.585938 -2.566406 2.421875 -2.671875 C 2.265625 -2.773438 2.113281 -2.863281 1.96875 -2.9375 C 1.425781 -3.195312 1.023438 -3.550781 0.765625 -4 C 0.503906 -4.445312 0.421875 -4.984375 0.515625 -5.609375 C 0.597656 -6.222656 0.84375 -6.753906 1.25 -7.203125 C 1.664062 -7.660156 2.171875 -7.972656 2.765625 -8.140625 C 3.054688 -8.234375 3.375 -8.28125 3.71875 -8.28125 C 4.0625 -8.289062 4.367188 -8.210938 4.640625 -8.046875 C 4.785156 -7.953125 4.898438 -7.820312 4.984375 -7.65625 C 5.066406 -7.5 5.085938 -7.34375 5.046875 -7.1875 C 5.003906 -7.03125 4.867188 -6.914062 4.640625 -6.84375 C 4.410156 -6.769531 4.175781 -6.671875 3.9375 -6.546875 C 3.707031 -6.421875 3.5 -6.273438 3.3125 -6.109375 C 3.132812 -5.941406 3.003906 -5.753906 2.921875 -5.546875 C 2.847656 -5.347656 2.84375 -5.140625 2.90625 -4.921875 C 2.976562 -4.710938 3.144531 -4.492188 3.40625 -4.265625 C 3.570312 -4.117188 3.742188 -3.984375 3.921875 -3.859375 C 4.097656 -3.742188 4.257812 -3.613281 4.40625 -3.46875 C 4.5625 -3.332031 4.6875 -3.15625 4.78125 -2.9375 C 4.90625 -2.675781 4.972656 -2.382812 4.984375 -2.0625 C 4.992188 -1.75 4.941406 -1.457031 4.828125 -1.1875 C 4.703125 -0.882812 4.523438 -0.644531 4.296875 -0.46875 C 4.078125 -0.300781 3.828125 -0.179688 3.546875 -0.109375 C 3.265625 -0.0351562 2.972656 0 2.671875 0 C 2.378906 0 2.09375 -0.0195312 1.8125 -0.0625 Z M 1.8125 -0.0625 "/></g></g><g style="fill:#663100;fill-opacity:1;"><g transform="translate(65.138044, 65.997149)"><path style="stroke:none" d="M 1.546875 -0.203125 C 1.359375 -0.0351562 1.175781 0.03125 1 0 C 0.820312 -0.0390625 0.664062 -0.140625 0.53125 -0.296875 C 0.40625 -0.460938 0.320312 -0.640625 0.28125 -0.828125 C 0.207031 -1.191406 0.179688 -1.519531 0.203125 -1.8125 C 0.222656 -2.101562 0.226562 -2.429688 0.21875 -2.796875 C 0.207031 -3.296875 0.191406 -3.785156 0.171875 -4.265625 C 0.160156 -4.753906 0.15625 -5.242188 0.15625 -5.734375 C 0.15625 -5.929688 0.160156 -6.128906 0.171875 -6.328125 C 0.191406 -6.523438 0.242188 -6.703125 0.328125 -6.859375 C 0.421875 -7.023438 0.570312 -7.144531 0.78125 -7.21875 C 1.070312 -7.332031 1.304688 -7.359375 1.484375 -7.296875 C 1.671875 -7.234375 1.804688 -7.117188 1.890625 -6.953125 C 1.984375 -6.796875 2.046875 -6.597656 2.078125 -6.359375 C 2.109375 -6.128906 2.117188 -5.890625 2.109375 -5.640625 C 2.097656 -5.390625 2.078125 -5.15625 2.046875 -4.9375 C 2.023438 -4.71875 2.007812 -4.535156 2 -4.390625 C 2.238281 -4.398438 2.472656 -4.398438 2.703125 -4.390625 C 2.941406 -4.378906 3.175781 -4.375 3.40625 -4.375 C 3.375 -4.625 3.335938 -4.882812 3.296875 -5.15625 C 3.253906 -5.425781 3.226562 -5.695312 3.21875 -5.96875 C 3.21875 -6.238281 3.25 -6.5 3.3125 -6.75 C 3.375 -6.957031 3.488281 -7.144531 3.65625 -7.3125 C 3.820312 -7.488281 4.015625 -7.597656 4.234375 -7.640625 C 4.453125 -7.679688 4.660156 -7.617188 4.859375 -7.453125 C 4.984375 -7.347656 5.070312 -7.15625 5.125 -6.875 C 5.175781 -6.601562 5.203125 -6.28125 5.203125 -5.90625 C 5.210938 -5.53125 5.203125 -5.132812 5.171875 -4.71875 C 5.148438 -4.300781 5.117188 -3.894531 5.078125 -3.5 C 5.046875 -3.113281 5.015625 -2.769531 4.984375 -2.46875 C 4.953125 -2.175781 4.925781 -1.960938 4.90625 -1.828125 C 4.894531 -1.722656 4.875 -1.582031 4.84375 -1.40625 C 4.820312 -1.238281 4.78125 -1.066406 4.71875 -0.890625 C 4.664062 -0.710938 4.59375 -0.5625 4.5 -0.4375 C 4.40625 -0.320312 4.296875 -0.265625 4.171875 -0.265625 C 4.054688 -0.273438 3.914062 -0.367188 3.75 -0.546875 C 3.582031 -0.753906 3.484375 -1 3.453125 -1.28125 C 3.421875 -1.570312 3.421875 -1.863281 3.453125 -2.15625 C 3.484375 -2.457031 3.503906 -2.722656 3.515625 -2.953125 C 3.398438 -2.941406 3.25 -2.929688 3.0625 -2.921875 C 2.875 -2.910156 2.6875 -2.894531 2.5 -2.875 C 2.320312 -2.851562 2.179688 -2.816406 2.078125 -2.765625 C 1.953125 -2.691406 1.890625 -2.582031 1.890625 -2.4375 C 1.898438 -2.289062 1.90625 -2.125 1.90625 -1.9375 C 1.894531 -1.757812 1.890625 -1.5625 1.890625 -1.34375 C 1.890625 -1.125 1.863281 -0.910156 1.8125 -0.703125 C 1.769531 -0.503906 1.679688 -0.335938 1.546875 -0.203125 Z M 1.546875 -0.203125 "/></g></g><g style="fill:#663100;fill-opacity:1;"><g transform="translate(70.566272, 65.997149)"><path style="stroke:none" d="M 0.203125 -6.859375 C 0.140625 -7.066406 0.144531 -7.28125 0.21875 -7.5 C 0.300781 -7.71875 0.425781 -7.910156 0.59375 -8.078125 C 0.769531 -8.253906 0.960938 -8.367188 1.171875 -8.421875 C 1.253906 -8.441406 1.363281 -8.445312 1.5 -8.4375 C 1.644531 -8.425781 1.785156 -8.394531 1.921875 -8.34375 C 2.054688 -8.289062 2.160156 -8.21875 2.234375 -8.125 C 2.316406 -8.03125 2.335938 -7.914062 2.296875 -7.78125 C 2.367188 -7.5625 2.359375 -7.335938 2.265625 -7.109375 C 2.171875 -6.890625 2.023438 -6.695312 1.828125 -6.53125 C 1.640625 -6.375 1.4375 -6.265625 1.21875 -6.203125 C 1 -6.148438 0.796875 -6.171875 0.609375 -6.265625 C 0.421875 -6.359375 0.285156 -6.554688 0.203125 -6.859375 Z M 1.625 -0.15625 C 1.382812 0.0078125 1.148438 0.046875 0.921875 -0.046875 C 0.703125 -0.148438 0.53125 -0.320312 0.40625 -0.5625 C 0.300781 -0.789062 0.234375 -1.054688 0.203125 -1.359375 C 0.171875 -1.660156 0.160156 -1.972656 0.171875 -2.296875 C 0.179688 -2.628906 0.195312 -2.945312 0.21875 -3.25 C 0.25 -3.5625 0.273438 -3.835938 0.296875 -4.078125 C 0.316406 -4.234375 0.332031 -4.410156 0.34375 -4.609375 C 0.363281 -4.804688 0.394531 -5.003906 0.4375 -5.203125 C 0.488281 -5.398438 0.570312 -5.554688 0.6875 -5.671875 C 0.84375 -5.835938 1.003906 -5.914062 1.171875 -5.90625 C 1.347656 -5.894531 1.515625 -5.828125 1.671875 -5.703125 C 1.828125 -5.585938 1.945312 -5.4375 2.03125 -5.25 C 2.207031 -4.863281 2.304688 -4.425781 2.328125 -3.9375 C 2.359375 -3.457031 2.34375 -2.972656 2.28125 -2.484375 C 2.21875 -2.003906 2.144531 -1.5625 2.0625 -1.15625 C 2.03125 -0.976562 1.988281 -0.796875 1.9375 -0.609375 C 1.894531 -0.429688 1.789062 -0.28125 1.625 -0.15625 Z M 1.625 -0.15625 "/></g></g><g style="fill:#ffffff;fill-opacity:0.4;"><g transform="translate(37.112824, 77.419798)"><path style="stroke:none" d="M 1.640625 -0.015625 C 1.304688 0.0234375 1.039062 -0.0234375 0.84375 -0.171875 C 0.644531 -0.328125 0.5 -0.535156 0.40625 -0.796875 C 0.3125 -1.054688 0.25 -1.328125 0.21875 -1.609375 C 0.195312 -1.890625 0.191406 -2.144531 0.203125 -2.375 C 0.242188 -3.164062 0.265625 -3.953125 0.265625 -4.734375 C 0.265625 -5.523438 0.28125 -6.316406 0.3125 -7.109375 C 0.332031 -7.410156 0.347656 -7.71875 0.359375 -8.03125 C 0.367188 -8.34375 0.410156 -8.625 0.484375 -8.875 C 0.566406 -9.132812 0.703125 -9.347656 0.890625 -9.515625 C 1.085938 -9.679688 1.375 -9.769531 1.75 -9.78125 C 2.164062 -9.800781 2.613281 -9.78125 3.09375 -9.71875 C 3.570312 -9.65625 4.023438 -9.535156 4.453125 -9.359375 C 4.890625 -9.191406 5.257812 -8.945312 5.5625 -8.625 C 5.863281 -8.300781 6.046875 -7.882812 6.109375 -7.375 C 6.148438 -7 6.097656 -6.65625 5.953125 -6.34375 C 5.804688 -6.039062 5.601562 -5.769531 5.34375 -5.53125 C 5.09375 -5.289062 4.816406 -5.078125 4.515625 -4.890625 C 4.304688 -4.753906 4.050781 -4.644531 3.75 -4.5625 C 3.457031 -4.476562 3.222656 -4.351562 3.046875 -4.1875 C 2.878906 -4.039062 2.765625 -3.847656 2.703125 -3.609375 C 2.640625 -3.378906 2.601562 -3.140625 2.59375 -2.890625 C 2.59375 -2.640625 2.59375 -2.414062 2.59375 -2.21875 C 2.59375 -2.019531 2.585938 -1.800781 2.578125 -1.5625 C 2.578125 -1.320312 2.550781 -1.085938 2.5 -0.859375 C 2.445312 -0.640625 2.351562 -0.453125 2.21875 -0.296875 C 2.082031 -0.140625 1.890625 -0.046875 1.640625 -0.015625 Z M 3.375 -5.78125 C 3.820312 -5.914062 4.054688 -6.234375 4.078125 -6.734375 C 4.097656 -6.960938 4.046875 -7.191406 3.921875 -7.421875 C 3.804688 -7.660156 3.644531 -7.835938 3.4375 -7.953125 C 3.21875 -8.066406 3.054688 -8.082031 2.953125 -8 C 2.859375 -7.925781 2.800781 -7.796875 2.78125 -7.609375 C 2.757812 -7.429688 2.753906 -7.238281 2.765625 -7.03125 C 2.785156 -6.820312 2.796875 -6.644531 2.796875 -6.5 C 2.785156 -6.320312 2.773438 -6.164062 2.765625 -6.03125 C 2.765625 -5.894531 2.804688 -5.800781 2.890625 -5.75 C 2.972656 -5.695312 3.132812 -5.707031 3.375 -5.78125 Z M 3.375 -5.78125 "/></g></g><g style="fill:#ffffff;fill-opacity:0.4;"><g transform="translate(43.232477, 77.419798)"><path style="stroke:none" d="M 0.234375 -8.265625 C 0.160156 -8.535156 0.171875 -8.800781 0.265625 -9.0625 C 0.367188 -9.320312 0.519531 -9.550781 0.71875 -9.75 C 0.925781 -9.957031 1.160156 -10.097656 1.421875 -10.171875 C 1.523438 -10.203125 1.660156 -10.207031 1.828125 -10.1875 C 1.992188 -10.175781 2.15625 -10.132812 2.3125 -10.0625 C 2.476562 -10 2.609375 -9.910156 2.703125 -9.796875 C 2.796875 -9.691406 2.816406 -9.554688 2.765625 -9.390625 C 2.847656 -9.128906 2.832031 -8.863281 2.71875 -8.59375 C 2.613281 -8.320312 2.445312 -8.085938 2.21875 -7.890625 C 1.988281 -7.703125 1.738281 -7.570312 1.46875 -7.5 C 1.207031 -7.425781 0.960938 -7.445312 0.734375 -7.5625 C 0.503906 -7.675781 0.335938 -7.910156 0.234375 -8.265625 Z M 1.953125 -0.1875 C 1.660156 0.0195312 1.378906 0.0625 1.109375 -0.0625 C 0.835938 -0.1875 0.632812 -0.394531 0.5 -0.6875 C 0.363281 -0.957031 0.273438 -1.273438 0.234375 -1.640625 C 0.203125 -2.003906 0.191406 -2.382812 0.203125 -2.78125 C 0.210938 -3.175781 0.234375 -3.5625 0.265625 -3.9375 C 0.304688 -4.3125 0.335938 -4.640625 0.359375 -4.921875 C 0.378906 -5.109375 0.398438 -5.320312 0.421875 -5.5625 C 0.441406 -5.800781 0.476562 -6.039062 0.53125 -6.28125 C 0.59375 -6.519531 0.691406 -6.707031 0.828125 -6.84375 C 1.015625 -7.039062 1.210938 -7.132812 1.421875 -7.125 C 1.640625 -7.113281 1.84375 -7.035156 2.03125 -6.890625 C 2.21875 -6.742188 2.359375 -6.5625 2.453125 -6.34375 C 2.671875 -5.875 2.796875 -5.347656 2.828125 -4.765625 C 2.859375 -4.179688 2.832031 -3.597656 2.75 -3.015625 C 2.675781 -2.429688 2.585938 -1.894531 2.484375 -1.40625 C 2.441406 -1.1875 2.390625 -0.960938 2.328125 -0.734375 C 2.273438 -0.515625 2.148438 -0.332031 1.953125 -0.1875 Z M 1.953125 -0.1875 "/></g></g><g style="fill:#ffffff;fill-opacity:0.4;"><g transform="translate(46.259542, 77.419798)"><path style="stroke:none" d="M 2.96875 -0.171875 C 2.382812 -0.359375 1.875 -0.660156 1.4375 -1.078125 C 1 -1.503906 0.671875 -2.003906 0.453125 -2.578125 C 0.234375 -3.179688 0.148438 -3.78125 0.203125 -4.375 C 0.265625 -4.976562 0.441406 -5.546875 0.734375 -6.078125 C 1.023438 -6.609375 1.398438 -7.070312 1.859375 -7.46875 C 2.328125 -7.875 2.851562 -8.171875 3.4375 -8.359375 C 3.664062 -8.441406 3.925781 -8.507812 4.21875 -8.5625 C 4.507812 -8.625 4.789062 -8.644531 5.0625 -8.625 C 5.332031 -8.601562 5.554688 -8.507812 5.734375 -8.34375 C 5.910156 -8.1875 6.007812 -7.929688 6.03125 -7.578125 C 6.050781 -7.234375 5.976562 -6.945312 5.8125 -6.71875 C 5.644531 -6.5 5.425781 -6.320312 5.15625 -6.1875 C 4.894531 -6.050781 4.613281 -5.9375 4.3125 -5.84375 C 4.019531 -5.75 3.742188 -5.660156 3.484375 -5.578125 C 3.273438 -5.378906 3.085938 -5.148438 2.921875 -4.890625 C 2.765625 -4.640625 2.660156 -4.390625 2.609375 -4.140625 C 2.566406 -3.890625 2.601562 -3.65625 2.71875 -3.4375 C 2.832031 -3.21875 3.0625 -3.035156 3.40625 -2.890625 C 3.613281 -2.796875 3.832031 -2.726562 4.0625 -2.6875 C 4.300781 -2.65625 4.523438 -2.625 4.734375 -2.59375 C 4.953125 -2.5625 5.144531 -2.503906 5.3125 -2.421875 C 5.488281 -2.335938 5.617188 -2.207031 5.703125 -2.03125 C 5.785156 -1.863281 5.804688 -1.617188 5.765625 -1.296875 C 5.734375 -0.953125 5.617188 -0.679688 5.421875 -0.484375 C 5.234375 -0.285156 5 -0.148438 4.71875 -0.078125 C 4.445312 -0.00390625 4.15625 0.0195312 3.84375 0 C 3.539062 -0.03125 3.25 -0.0859375 2.96875 -0.171875 Z M 2.96875 -0.171875 "/></g></g><g style="fill:#ffffff;fill-opacity:0.4;"><g transform="translate(52.484027, 77.419798)"><path style="stroke:none" d="M 5.5 -0.359375 C 5.1875 -0.0976562 4.894531 0.0195312 4.625 0 C 4.351562 -0.0078125 4.101562 -0.109375 3.875 -0.296875 C 3.65625 -0.492188 3.453125 -0.742188 3.265625 -1.046875 C 3.085938 -1.347656 2.925781 -1.671875 2.78125 -2.015625 C 2.632812 -2.367188 2.503906 -2.695312 2.390625 -3 C 2.285156 -3.300781 2.1875 -3.550781 2.09375 -3.75 C 2.0625 -3.71875 2.046875 -3.617188 2.046875 -3.453125 C 2.046875 -3.285156 2.054688 -3.082031 2.078125 -2.84375 C 2.097656 -2.613281 2.113281 -2.398438 2.125 -2.203125 C 2.144531 -2.003906 2.15625 -1.859375 2.15625 -1.765625 C 2.132812 -1.597656 2.09375 -1.410156 2.03125 -1.203125 C 1.976562 -1.003906 1.894531 -0.828125 1.78125 -0.671875 C 1.664062 -0.515625 1.507812 -0.410156 1.3125 -0.359375 C 1.050781 -0.304688 0.84375 -0.34375 0.6875 -0.46875 C 0.53125 -0.59375 0.414062 -0.769531 0.34375 -1 C 0.269531 -1.238281 0.222656 -1.503906 0.203125 -1.796875 C 0.191406 -2.097656 0.191406 -2.398438 0.203125 -2.703125 C 0.222656 -3.003906 0.242188 -3.28125 0.265625 -3.53125 C 0.285156 -3.78125 0.296875 -3.972656 0.296875 -4.109375 C 0.304688 -4.546875 0.3125 -4.976562 0.3125 -5.40625 C 0.320312 -5.84375 0.320312 -6.28125 0.3125 -6.71875 C 0.3125 -6.925781 0.316406 -7.15625 0.328125 -7.40625 C 0.347656 -7.65625 0.410156 -7.882812 0.515625 -8.09375 C 0.617188 -8.3125 0.796875 -8.457031 1.046875 -8.53125 C 1.347656 -8.625 1.582031 -8.617188 1.75 -8.515625 C 1.925781 -8.421875 2.054688 -8.269531 2.140625 -8.0625 C 2.234375 -7.851562 2.285156 -7.609375 2.296875 -7.328125 C 2.316406 -7.046875 2.3125 -6.765625 2.28125 -6.484375 C 2.257812 -6.203125 2.226562 -5.941406 2.1875 -5.703125 C 2.144531 -5.460938 2.109375 -5.285156 2.078125 -5.171875 C 2.140625 -5.234375 2.269531 -5.363281 2.46875 -5.5625 C 2.664062 -5.769531 2.90625 -6 3.1875 -6.25 C 3.476562 -6.507812 3.78125 -6.757812 4.09375 -7 C 4.40625 -7.25 4.710938 -7.453125 5.015625 -7.609375 C 5.316406 -7.773438 5.582031 -7.863281 5.8125 -7.875 C 6.050781 -7.894531 6.234375 -7.800781 6.359375 -7.59375 C 6.515625 -7.332031 6.546875 -7.078125 6.453125 -6.828125 C 6.359375 -6.585938 6.191406 -6.359375 5.953125 -6.140625 C 5.710938 -5.921875 5.441406 -5.710938 5.140625 -5.515625 C 4.847656 -5.328125 4.566406 -5.160156 4.296875 -5.015625 C 4.035156 -4.878906 3.832031 -4.769531 3.6875 -4.6875 C 3.875 -4.570312 4.097656 -4.378906 4.359375 -4.109375 C 4.617188 -3.847656 4.863281 -3.546875 5.09375 -3.203125 C 5.332031 -2.859375 5.523438 -2.503906 5.671875 -2.140625 C 5.828125 -1.773438 5.898438 -1.4375 5.890625 -1.125 C 5.878906 -0.8125 5.75 -0.554688 5.5 -0.359375 Z M 5.5 -0.359375 "/></g></g><g style="fill:#ffffff;fill-opacity:0.4;"><g transform="translate(59.167159, 77.419798)"><path style="stroke:none" d="M 5.078125 -0.203125 C 4.828125 -0.078125 4.535156 -0.0078125 4.203125 0 C 3.867188 0.0078125 3.53125 -0.0078125 3.1875 -0.0625 C 2.851562 -0.125 2.554688 -0.175781 2.296875 -0.21875 C 1.722656 -0.3125 1.253906 -0.5 0.890625 -0.78125 C 0.535156 -1.0625 0.328125 -1.503906 0.265625 -2.109375 C 0.210938 -2.648438 0.1875 -3.207031 0.1875 -3.78125 C 0.195312 -4.363281 0.207031 -4.925781 0.21875 -5.46875 C 0.21875 -5.769531 0.222656 -6.109375 0.234375 -6.484375 C 0.242188 -6.859375 0.289062 -7.21875 0.375 -7.5625 C 0.457031 -7.914062 0.601562 -8.21875 0.8125 -8.46875 C 1.039062 -8.738281 1.285156 -8.882812 1.546875 -8.90625 C 1.816406 -8.9375 2.0625 -8.867188 2.28125 -8.703125 C 2.507812 -8.546875 2.671875 -8.3125 2.765625 -8 C 2.898438 -7.625 2.972656 -7.21875 2.984375 -6.78125 C 3.003906 -6.351562 3 -5.921875 2.96875 -5.484375 C 2.945312 -5.054688 2.925781 -4.644531 2.90625 -4.25 C 2.894531 -4.101562 2.878906 -3.945312 2.859375 -3.78125 C 2.835938 -3.625 2.835938 -3.472656 2.859375 -3.328125 C 2.878906 -3.140625 2.894531 -3.023438 2.90625 -2.984375 C 2.914062 -2.941406 2.945312 -2.925781 3 -2.9375 C 3.0625 -2.957031 3.171875 -2.945312 3.328125 -2.90625 C 3.546875 -2.875 3.757812 -2.851562 3.96875 -2.84375 C 4.175781 -2.832031 4.375 -2.8125 4.5625 -2.78125 C 4.757812 -2.75 4.957031 -2.671875 5.15625 -2.546875 C 5.425781 -2.367188 5.601562 -2.125 5.6875 -1.8125 C 5.769531 -1.5 5.757812 -1.191406 5.65625 -0.890625 C 5.550781 -0.597656 5.359375 -0.367188 5.078125 -0.203125 Z M 5.078125 -0.203125 "/></g></g><g style="fill:#ffffff;fill-opacity:0.4;"><g transform="translate(65.09025, 77.419798)"><path style="stroke:none" d="M 2.171875 -0.03125 C 1.992188 -0.03125 1.804688 -0.0195312 1.609375 0 C 1.410156 0.0078125 1.21875 -0.00390625 1.03125 -0.046875 C 0.84375 -0.0859375 0.675781 -0.175781 0.53125 -0.3125 C 0.363281 -0.46875 0.265625 -0.65625 0.234375 -0.875 C 0.203125 -1.09375 0.191406 -1.320312 0.203125 -1.5625 C 0.222656 -1.800781 0.238281 -2.019531 0.25 -2.21875 C 0.269531 -2.59375 0.285156 -2.960938 0.296875 -3.328125 C 0.316406 -3.703125 0.335938 -4.078125 0.359375 -4.453125 C 0.367188 -4.890625 0.382812 -5.328125 0.40625 -5.765625 C 0.4375 -6.210938 0.453125 -6.65625 0.453125 -7.09375 C 0.472656 -7.332031 0.472656 -7.597656 0.453125 -7.890625 C 0.441406 -8.191406 0.476562 -8.460938 0.5625 -8.703125 C 0.644531 -8.921875 0.789062 -9.082031 1 -9.1875 C 1.21875 -9.300781 1.46875 -9.375 1.75 -9.40625 C 2.039062 -9.4375 2.34375 -9.441406 2.65625 -9.421875 C 2.96875 -9.398438 3.257812 -9.367188 3.53125 -9.328125 C 3.8125 -9.285156 4.035156 -9.253906 4.203125 -9.234375 C 4.410156 -9.203125 4.601562 -9.160156 4.78125 -9.109375 C 4.96875 -9.054688 5.125 -8.96875 5.25 -8.84375 C 5.375 -8.726562 5.453125 -8.554688 5.484375 -8.328125 C 5.515625 -8.078125 5.472656 -7.851562 5.359375 -7.65625 C 5.242188 -7.457031 5.070312 -7.304688 4.84375 -7.203125 C 4.675781 -7.140625 4.503906 -7.117188 4.328125 -7.140625 C 4.148438 -7.171875 3.972656 -7.203125 3.796875 -7.234375 C 3.628906 -7.265625 3.460938 -7.257812 3.296875 -7.21875 C 3.191406 -7.207031 3.082031 -7.140625 2.96875 -7.015625 C 2.863281 -6.890625 2.804688 -6.753906 2.796875 -6.609375 C 2.785156 -6.460938 2.851562 -6.332031 3 -6.21875 C 3.113281 -6.132812 3.273438 -6.097656 3.484375 -6.109375 C 3.691406 -6.117188 3.90625 -6.128906 4.125 -6.140625 C 4.351562 -6.160156 4.539062 -6.144531 4.6875 -6.09375 C 4.90625 -6.007812 5.0625 -5.894531 5.15625 -5.75 C 5.25 -5.613281 5.304688 -5.429688 5.328125 -5.203125 C 5.359375 -4.929688 5.328125 -4.65625 5.234375 -4.375 C 5.148438 -4.101562 4.96875 -3.925781 4.6875 -3.84375 C 4.507812 -3.800781 4.316406 -3.800781 4.109375 -3.84375 C 3.910156 -3.894531 3.710938 -3.929688 3.515625 -3.953125 C 3.328125 -3.972656 3.160156 -3.914062 3.015625 -3.78125 C 2.828125 -3.601562 2.75 -3.445312 2.78125 -3.3125 C 2.8125 -3.175781 2.90625 -3.054688 3.0625 -2.953125 C 3.21875 -2.859375 3.390625 -2.785156 3.578125 -2.734375 C 3.773438 -2.679688 3.929688 -2.648438 4.046875 -2.640625 C 4.234375 -2.640625 4.4375 -2.644531 4.65625 -2.65625 C 4.875 -2.664062 5.085938 -2.660156 5.296875 -2.640625 C 5.503906 -2.617188 5.6875 -2.546875 5.84375 -2.421875 C 5.988281 -2.316406 6.082031 -2.164062 6.125 -1.96875 C 6.164062 -1.78125 6.171875 -1.585938 6.140625 -1.390625 C 6.117188 -1.191406 6.082031 -1.019531 6.03125 -0.875 C 5.894531 -0.550781 5.703125 -0.34375 5.453125 -0.25 C 5.210938 -0.164062 4.925781 -0.113281 4.59375 -0.09375 C 4.195312 -0.0703125 3.796875 -0.0546875 3.390625 -0.046875 C 2.992188 -0.046875 2.585938 -0.0390625 2.171875 -0.03125 Z M 2.171875 -0.03125 "/></g></g><g style="fill:#ffffff;fill-opacity:0.4;"><g transform="translate(71.44578, 77.419798)"><path style="stroke:none" d="M 2.1875 -0.078125 C 2 -0.109375 1.785156 -0.148438 1.546875 -0.203125 C 1.304688 -0.253906 1.082031 -0.328125 0.875 -0.421875 C 0.664062 -0.515625 0.5 -0.648438 0.375 -0.828125 C 0.207031 -1.066406 0.144531 -1.285156 0.1875 -1.484375 C 0.238281 -1.691406 0.359375 -1.851562 0.546875 -1.96875 C 0.734375 -2.09375 0.953125 -2.15625 1.203125 -2.15625 C 1.359375 -2.15625 1.53125 -2.117188 1.71875 -2.046875 C 1.914062 -1.972656 2.113281 -1.90625 2.3125 -1.84375 C 2.507812 -1.78125 2.695312 -1.765625 2.875 -1.796875 C 3.050781 -1.828125 3.195312 -1.945312 3.3125 -2.15625 C 3.457031 -2.382812 3.476562 -2.585938 3.375 -2.765625 C 3.269531 -2.953125 3.117188 -3.109375 2.921875 -3.234375 C 2.734375 -3.359375 2.554688 -3.460938 2.390625 -3.546875 C 1.722656 -3.867188 1.234375 -4.296875 0.921875 -4.828125 C 0.609375 -5.367188 0.503906 -6.015625 0.609375 -6.765625 C 0.722656 -7.515625 1.023438 -8.160156 1.515625 -8.703125 C 2.015625 -9.253906 2.625 -9.628906 3.34375 -9.828125 C 3.695312 -9.929688 4.078125 -9.988281 4.484375 -10 C 4.898438 -10.007812 5.269531 -9.914062 5.59375 -9.71875 C 5.78125 -9.601562 5.921875 -9.445312 6.015625 -9.25 C 6.109375 -9.050781 6.128906 -8.859375 6.078125 -8.671875 C 6.035156 -8.484375 5.878906 -8.347656 5.609375 -8.265625 C 5.328125 -8.171875 5.046875 -8.046875 4.765625 -7.890625 C 4.484375 -7.742188 4.234375 -7.566406 4.015625 -7.359375 C 3.796875 -7.160156 3.632812 -6.941406 3.53125 -6.703125 C 3.4375 -6.460938 3.425781 -6.210938 3.5 -5.953125 C 3.582031 -5.691406 3.785156 -5.425781 4.109375 -5.15625 C 4.316406 -4.976562 4.523438 -4.816406 4.734375 -4.671875 C 4.941406 -4.523438 5.132812 -4.367188 5.3125 -4.203125 C 5.5 -4.035156 5.648438 -3.816406 5.765625 -3.546875 C 5.910156 -3.222656 5.988281 -2.867188 6 -2.484375 C 6.019531 -2.109375 5.960938 -1.753906 5.828125 -1.421875 C 5.671875 -1.066406 5.457031 -0.785156 5.1875 -0.578125 C 4.914062 -0.367188 4.613281 -0.21875 4.28125 -0.125 C 3.945312 -0.0390625 3.597656 0 3.234375 0 C 2.878906 0 2.53125 -0.0234375 2.1875 -0.078125 Z M 2.1875 -0.078125 "/></g></g><g style="fill:#000000;fill-opacity:1;"><g transform="translate(37.74644, 77.176577)"><path style="stroke:none" d="M 1.640625 -0.015625 C 1.304688 0.0234375 1.039062 -0.0234375 0.84375 -0.171875 C 0.644531 -0.328125 0.5 -0.535156 0.40625 -0.796875 C 0.3125 -1.054688 0.25 -1.328125 0.21875 -1.609375 C 0.195312 -1.890625 0.191406 -2.144531 0.203125 -2.375 C 0.242188 -3.164062 0.265625 -3.953125 0.265625 -4.734375 C 0.265625 -5.523438 0.28125 -6.316406 0.3125 -7.109375 C 0.332031 -7.410156 0.347656 -7.71875 0.359375 -8.03125 C 0.367188 -8.34375 0.410156 -8.625 0.484375 -8.875 C 0.566406 -9.132812 0.703125 -9.347656 0.890625 -9.515625 C 1.085938 -9.679688 1.375 -9.769531 1.75 -9.78125 C 2.164062 -9.800781 2.613281 -9.78125 3.09375 -9.71875 C 3.570312 -9.65625 4.023438 -9.535156 4.453125 -9.359375 C 4.890625 -9.191406 5.257812 -8.945312 5.5625 -8.625 C 5.863281 -8.300781 6.046875 -7.882812 6.109375 -7.375 C 6.148438 -7 6.097656 -6.65625 5.953125 -6.34375 C 5.804688 -6.039062 5.601562 -5.769531 5.34375 -5.53125 C 5.09375 -5.289062 4.816406 -5.078125 4.515625 -4.890625 C 4.304688 -4.753906 4.050781 -4.644531 3.75 -4.5625 C 3.457031 -4.476562 3.222656 -4.351562 3.046875 -4.1875 C 2.878906 -4.039062 2.765625 -3.847656 2.703125 -3.609375 C 2.640625 -3.378906 2.601562 -3.140625 2.59375 -2.890625 C 2.59375 -2.640625 2.59375 -2.414062 2.59375 -2.21875 C 2.59375 -2.019531 2.585938 -1.800781 2.578125 -1.5625 C 2.578125 -1.320312 2.550781 -1.085938 2.5 -0.859375 C 2.445312 -0.640625 2.351562 -0.453125 2.21875 -0.296875 C 2.082031 -0.140625 1.890625 -0.046875 1.640625 -0.015625 Z M 3.375 -5.78125 C 3.820312 -5.914062 4.054688 -6.234375 4.078125 -6.734375 C 4.097656 -6.960938 4.046875 -7.191406 3.921875 -7.421875 C 3.804688 -7.660156 3.644531 -7.835938 3.4375 -7.953125 C 3.21875 -8.066406 3.054688 -8.082031 2.953125 -8 C 2.859375 -7.925781 2.800781 -7.796875 2.78125 -7.609375 C 2.757812 -7.429688 2.753906 -7.238281 2.765625 -7.03125 C 2.785156 -6.820312 2.796875 -6.644531 2.796875 -6.5 C 2.785156 -6.320312 2.773438 -6.164062 2.765625 -6.03125 C 2.765625 -5.894531 2.804688 -5.800781 2.890625 -5.75 C 2.972656 -5.695312 3.132812 -5.707031 3.375 -5.78125 Z M 3.375 -5.78125 "/></g></g><g style="fill:#000000;fill-opacity:1;"><g transform="translate(43.866093, 77.176577)"><path style="stroke:none" d="M 0.234375 -8.265625 C 0.160156 -8.535156 0.171875 -8.800781 0.265625 -9.0625 C 0.367188 -9.320312 0.519531 -9.550781 0.71875 -9.75 C 0.925781 -9.957031 1.160156 -10.097656 1.421875 -10.171875 C 1.523438 -10.203125 1.660156 -10.207031 1.828125 -10.1875 C 1.992188 -10.175781 2.15625 -10.132812 2.3125 -10.0625 C 2.476562 -10 2.609375 -9.910156 2.703125 -9.796875 C 2.796875 -9.691406 2.816406 -9.554688 2.765625 -9.390625 C 2.847656 -9.128906 2.832031 -8.863281 2.71875 -8.59375 C 2.613281 -8.320312 2.445312 -8.085938 2.21875 -7.890625 C 1.988281 -7.703125 1.738281 -7.570312 1.46875 -7.5 C 1.207031 -7.425781 0.960938 -7.445312 0.734375 -7.5625 C 0.503906 -7.675781 0.335938 -7.910156 0.234375 -8.265625 Z M 1.953125 -0.1875 C 1.660156 0.0195312 1.378906 0.0625 1.109375 -0.0625 C 0.835938 -0.1875 0.632812 -0.394531 0.5 -0.6875 C 0.363281 -0.957031 0.273438 -1.273438 0.234375 -1.640625 C 0.203125 -2.003906 0.191406 -2.382812 0.203125 -2.78125 C 0.210938 -3.175781 0.234375 -3.5625 0.265625 -3.9375 C 0.304688 -4.3125 0.335938 -4.640625 0.359375 -4.921875 C 0.378906 -5.109375 0.398438 -5.320312 0.421875 -5.5625 C 0.441406 -5.800781 0.476562 -6.039062 0.53125 -6.28125 C 0.59375 -6.519531 0.691406 -6.707031 0.828125 -6.84375 C 1.015625 -7.039062 1.210938 -7.132812 1.421875 -7.125 C 1.640625 -7.113281 1.84375 -7.035156 2.03125 -6.890625 C 2.21875 -6.742188 2.359375 -6.5625 2.453125 -6.34375 C 2.671875 -5.875 2.796875 -5.347656 2.828125 -4.765625 C 2.859375 -4.179688 2.832031 -3.597656 2.75 -3.015625 C 2.675781 -2.429688 2.585938 -1.894531 2.484375 -1.40625 C 2.441406 -1.1875 2.390625 -0.960938 2.328125 -0.734375 C 2.273438 -0.515625 2.148438 -0.332031 1.953125 -0.1875 Z M 1.953125 -0.1875 "/></g></g><g style="fill:#000000;fill-opacity:1;"><g transform="translate(46.893158, 77.176577)"><path style="stroke:none" d="M 2.96875 -0.171875 C 2.382812 -0.359375 1.875 -0.660156 1.4375 -1.078125 C 1 -1.503906 0.671875 -2.003906 0.453125 -2.578125 C 0.234375 -3.179688 0.148438 -3.78125 0.203125 -4.375 C 0.265625 -4.976562 0.441406 -5.546875 0.734375 -6.078125 C 1.023438 -6.609375 1.398438 -7.070312 1.859375 -7.46875 C 2.328125 -7.875 2.851562 -8.171875 3.4375 -8.359375 C 3.664062 -8.441406 3.925781 -8.507812 4.21875 -8.5625 C 4.507812 -8.625 4.789062 -8.644531 5.0625 -8.625 C 5.332031 -8.601562 5.554688 -8.507812 5.734375 -8.34375 C 5.910156 -8.1875 6.007812 -7.929688 6.03125 -7.578125 C 6.050781 -7.234375 5.976562 -6.945312 5.8125 -6.71875 C 5.644531 -6.5 5.425781 -6.320312 5.15625 -6.1875 C 4.894531 -6.050781 4.613281 -5.9375 4.3125 -5.84375 C 4.019531 -5.75 3.742188 -5.660156 3.484375 -5.578125 C 3.273438 -5.378906 3.085938 -5.148438 2.921875 -4.890625 C 2.765625 -4.640625 2.660156 -4.390625 2.609375 -4.140625 C 2.566406 -3.890625 2.601562 -3.65625 2.71875 -3.4375 C 2.832031 -3.21875 3.0625 -3.035156 3.40625 -2.890625 C 3.613281 -2.796875 3.832031 -2.726562 4.0625 -2.6875 C 4.300781 -2.65625 4.523438 -2.625 4.734375 -2.59375 C 4.953125 -2.5625 5.144531 -2.503906 5.3125 -2.421875 C 5.488281 -2.335938 5.617188 -2.207031 5.703125 -2.03125 C 5.785156 -1.863281 5.804688 -1.617188 5.765625 -1.296875 C 5.734375 -0.953125 5.617188 -0.679688 5.421875 -0.484375 C 5.234375 -0.285156 5 -0.148438 4.71875 -0.078125 C 4.445312 -0.00390625 4.15625 0.0195312 3.84375 0 C 3.539062 -0.03125 3.25 -0.0859375 2.96875 -0.171875 Z M 2.96875 -0.171875 "/></g></g><g style="fill:#000000;fill-opacity:1;"><g transform="translate(53.117643, 77.176577)"><path style="stroke:none" d="M 5.5 -0.359375 C 5.1875 -0.0976562 4.894531 0.0195312 4.625 0 C 4.351562 -0.0078125 4.101562 -0.109375 3.875 -0.296875 C 3.65625 -0.492188 3.453125 -0.742188 3.265625 -1.046875 C 3.085938 -1.347656 2.925781 -1.671875 2.78125 -2.015625 C 2.632812 -2.367188 2.503906 -2.695312 2.390625 -3 C 2.285156 -3.300781 2.1875 -3.550781 2.09375 -3.75 C 2.0625 -3.71875 2.046875 -3.617188 2.046875 -3.453125 C 2.046875 -3.285156 2.054688 -3.082031 2.078125 -2.84375 C 2.097656 -2.613281 2.113281 -2.398438 2.125 -2.203125 C 2.144531 -2.003906 2.15625 -1.859375 2.15625 -1.765625 C 2.132812 -1.597656 2.09375 -1.410156 2.03125 -1.203125 C 1.976562 -1.003906 1.894531 -0.828125 1.78125 -0.671875 C 1.664062 -0.515625 1.507812 -0.410156 1.3125 -0.359375 C 1.050781 -0.304688 0.84375 -0.34375 0.6875 -0.46875 C 0.53125 -0.59375 0.414062 -0.769531 0.34375 -1 C 0.269531 -1.238281 0.222656 -1.503906 0.203125 -1.796875 C 0.191406 -2.097656 0.191406 -2.398438 0.203125 -2.703125 C 0.222656 -3.003906 0.242188 -3.28125 0.265625 -3.53125 C 0.285156 -3.78125 0.296875 -3.972656 0.296875 -4.109375 C 0.304688 -4.546875 0.3125 -4.976562 0.3125 -5.40625 C 0.320312 -5.84375 0.320312 -6.28125 0.3125 -6.71875 C 0.3125 -6.925781 0.316406 -7.15625 0.328125 -7.40625 C 0.347656 -7.65625 0.410156 -7.882812 0.515625 -8.09375 C 0.617188 -8.3125 0.796875 -8.457031 1.046875 -8.53125 C 1.347656 -8.625 1.582031 -8.617188 1.75 -8.515625 C 1.925781 -8.421875 2.054688 -8.269531 2.140625 -8.0625 C 2.234375 -7.851562 2.285156 -7.609375 2.296875 -7.328125 C 2.316406 -7.046875 2.3125 -6.765625 2.28125 -6.484375 C 2.257812 -6.203125 2.226562 -5.941406 2.1875 -5.703125 C 2.144531 -5.460938 2.109375 -5.285156 2.078125 -5.171875 C 2.140625 -5.234375 2.269531 -5.363281 2.46875 -5.5625 C 2.664062 -5.769531 2.90625 -6 3.1875 -6.25 C 3.476562 -6.507812 3.78125 -6.757812 4.09375 -7 C 4.40625 -7.25 4.710938 -7.453125 5.015625 -7.609375 C 5.316406 -7.773438 5.582031 -7.863281 5.8125 -7.875 C 6.050781 -7.894531 6.234375 -7.800781 6.359375 -7.59375 C 6.515625 -7.332031 6.546875 -7.078125 6.453125 -6.828125 C 6.359375 -6.585938 6.191406 -6.359375 5.953125 -6.140625 C 5.710938 -5.921875 5.441406 -5.710938 5.140625 -5.515625 C 4.847656 -5.328125 4.566406 -5.160156 4.296875 -5.015625 C 4.035156 -4.878906 3.832031 -4.769531 3.6875 -4.6875 C 3.875 -4.570312 4.097656 -4.378906 4.359375 -4.109375 C 4.617188 -3.847656 4.863281 -3.546875 5.09375 -3.203125 C 5.332031 -2.859375 5.523438 -2.503906 5.671875 -2.140625 C 5.828125 -1.773438 5.898438 -1.4375 5.890625 -1.125 C 5.878906 -0.8125 5.75 -0.554688 5.5 -0.359375 Z M 5.5 -0.359375 "/></g></g><g style="fill:#000000;fill-opacity:1;"><g transform="translate(59.800775, 77.176577)"><path style="stroke:none" d="M 5.078125 -0.203125 C 4.828125 -0.078125 4.535156 -0.0078125 4.203125 0 C 3.867188 0.0078125 3.53125 -0.0078125 3.1875 -0.0625 C 2.851562 -0.125 2.554688 -0.175781 2.296875 -0.21875 C 1.722656 -0.3125 1.253906 -0.5 0.890625 -0.78125 C 0.535156 -1.0625 0.328125 -1.503906 0.265625 -2.109375 C 0.210938 -2.648438 0.1875 -3.207031 0.1875 -3.78125 C 0.195312 -4.363281 0.207031 -4.925781 0.21875 -5.46875 C 0.21875 -5.769531 0.222656 -6.109375 0.234375 -6.484375 C 0.242188 -6.859375 0.289062 -7.21875 0.375 -7.5625 C 0.457031 -7.914062 0.601562 -8.21875 0.8125 -8.46875 C 1.039062 -8.738281 1.285156 -8.882812 1.546875 -8.90625 C 1.816406 -8.9375 2.0625 -8.867188 2.28125 -8.703125 C 2.507812 -8.546875 2.671875 -8.3125 2.765625 -8 C 2.898438 -7.625 2.972656 -7.21875 2.984375 -6.78125 C 3.003906 -6.351562 3 -5.921875 2.96875 -5.484375 C 2.945312 -5.054688 2.925781 -4.644531 2.90625 -4.25 C 2.894531 -4.101562 2.878906 -3.945312 2.859375 -3.78125 C 2.835938 -3.625 2.835938 -3.472656 2.859375 -3.328125 C 2.878906 -3.140625 2.894531 -3.023438 2.90625 -2.984375 C 2.914062 -2.941406 2.945312 -2.925781 3 -2.9375 C 3.0625 -2.957031 3.171875 -2.945312 3.328125 -2.90625 C 3.546875 -2.875 3.757812 -2.851562 3.96875 -2.84375 C 4.175781 -2.832031 4.375 -2.8125 4.5625 -2.78125 C 4.757812 -2.75 4.957031 -2.671875 5.15625 -2.546875 C 5.425781 -2.367188 5.601562 -2.125 5.6875 -1.8125 C 5.769531 -1.5 5.757812 -1.191406 5.65625 -0.890625 C 5.550781 -0.597656 5.359375 -0.367188 5.078125 -0.203125 Z M 5.078125 -0.203125 "/></g></g><g style="fill:#000000;fill-opacity:1;"><g transform="translate(65.723866, 77.176577)"><path style="stroke:none" d="M 2.171875 -0.03125 C 1.992188 -0.03125 1.804688 -0.0195312 1.609375 0 C 1.410156 0.0078125 1.21875 -0.00390625 1.03125 -0.046875 C 0.84375 -0.0859375 0.675781 -0.175781 0.53125 -0.3125 C 0.363281 -0.46875 0.265625 -0.65625 0.234375 -0.875 C 0.203125 -1.09375 0.191406 -1.320312 0.203125 -1.5625 C 0.222656 -1.800781 0.238281 -2.019531 0.25 -2.21875 C 0.269531 -2.59375 0.285156 -2.960938 0.296875 -3.328125 C 0.316406 -3.703125 0.335938 -4.078125 0.359375 -4.453125 C 0.367188 -4.890625 0.382812 -5.328125 0.40625 -5.765625 C 0.4375 -6.210938 0.453125 -6.65625 0.453125 -7.09375 C 0.472656 -7.332031 0.472656 -7.597656 0.453125 -7.890625 C 0.441406 -8.191406 0.476562 -8.460938 0.5625 -8.703125 C 0.644531 -8.921875 0.789062 -9.082031 1 -9.1875 C 1.21875 -9.300781 1.46875 -9.375 1.75 -9.40625 C 2.039062 -9.4375 2.34375 -9.441406 2.65625 -9.421875 C 2.96875 -9.398438 3.257812 -9.367188 3.53125 -9.328125 C 3.8125 -9.285156 4.035156 -9.253906 4.203125 -9.234375 C 4.410156 -9.203125 4.601562 -9.160156 4.78125 -9.109375 C 4.96875 -9.054688 5.125 -8.96875 5.25 -8.84375 C 5.375 -8.726562 5.453125 -8.554688 5.484375 -8.328125 C 5.515625 -8.078125 5.472656 -7.851562 5.359375 -7.65625 C 5.242188 -7.457031 5.070312 -7.304688 4.84375 -7.203125 C 4.675781 -7.140625 4.503906 -7.117188 4.328125 -7.140625 C 4.148438 -7.171875 3.972656 -7.203125 3.796875 -7.234375 C 3.628906 -7.265625 3.460938 -7.257812 3.296875 -7.21875 C 3.191406 -7.207031 3.082031 -7.140625 2.96875 -7.015625 C 2.863281 -6.890625 2.804688 -6.753906 2.796875 -6.609375 C 2.785156 -6.460938 2.851562 -6.332031 3 -6.21875 C 3.113281 -6.132812 3.273438 -6.097656 3.484375 -6.109375 C 3.691406 -6.117188 3.90625 -6.128906 4.125 -6.140625 C 4.351562 -6.160156 4.539062 -6.144531 4.6875 -6.09375 C 4.90625 -6.007812 5.0625 -5.894531 5.15625 -5.75 C 5.25 -5.613281 5.304688 -5.429688 5.328125 -5.203125 C 5.359375 -4.929688 5.328125 -4.65625 5.234375 -4.375 C 5.148438 -4.101562 4.96875 -3.925781 4.6875 -3.84375 C 4.507812 -3.800781 4.316406 -3.800781 4.109375 -3.84375 C 3.910156 -3.894531 3.710938 -3.929688 3.515625 -3.953125 C 3.328125 -3.972656 3.160156 -3.914062 3.015625 -3.78125 C 2.828125 -3.601562 2.75 -3.445312 2.78125 -3.3125 C 2.8125 -3.175781 2.90625 -3.054688 3.0625 -2.953125 C 3.21875 -2.859375 3.390625 -2.785156 3.578125 -2.734375 C 3.773438 -2.679688 3.929688 -2.648438 4.046875 -2.640625 C 4.234375 -2.640625 4.4375 -2.644531 4.65625 -2.65625 C 4.875 -2.664062 5.085938 -2.660156 5.296875 -2.640625 C 5.503906 -2.617188 5.6875 -2.546875 5.84375 -2.421875 C 5.988281 -2.316406 6.082031 -2.164062 6.125 -1.96875 C 6.164062 -1.78125 6.171875 -1.585938 6.140625 -1.390625 C 6.117188 -1.191406 6.082031 -1.019531 6.03125 -0.875 C 5.894531 -0.550781 5.703125 -0.34375 5.453125 -0.25 C 5.210938 -0.164062 4.925781 -0.113281 4.59375 -0.09375 C 4.195312 -0.0703125 3.796875 -0.0546875 3.390625 -0.046875 C 2.992188 -0.046875 2.585938 -0.0390625 2.171875 -0.03125 Z M 2.171875 -0.03125 "/></g></g><g style="fill:#000000;fill-opacity:1;"><g transform="translate(72.079396, 77.176577)"><path style="stroke:none" d="M 2.1875 -0.078125 C 2 -0.109375 1.785156 -0.148438 1.546875 -0.203125 C 1.304688 -0.253906 1.082031 -0.328125 0.875 -0.421875 C 0.664062 -0.515625 0.5 -0.648438 0.375 -0.828125 C 0.207031 -1.066406 0.144531 -1.285156 0.1875 -1.484375 C 0.238281 -1.691406 0.359375 -1.851562 0.546875 -1.96875 C 0.734375 -2.09375 0.953125 -2.15625 1.203125 -2.15625 C 1.359375 -2.15625 1.53125 -2.117188 1.71875 -2.046875 C 1.914062 -1.972656 2.113281 -1.90625 2.3125 -1.84375 C 2.507812 -1.78125 2.695312 -1.765625 2.875 -1.796875 C 3.050781 -1.828125 3.195312 -1.945312 3.3125 -2.15625 C 3.457031 -2.382812 3.476562 -2.585938 3.375 -2.765625 C 3.269531 -2.953125 3.117188 -3.109375 2.921875 -3.234375 C 2.734375 -3.359375 2.554688 -3.460938 2.390625 -3.546875 C 1.722656 -3.867188 1.234375 -4.296875 0.921875 -4.828125 C 0.609375 -5.367188 0.503906 -6.015625 0.609375 -6.765625 C 0.722656 -7.515625 1.023438 -8.160156 1.515625 -8.703125 C 2.015625 -9.253906 2.625 -9.628906 3.34375 -9.828125 C 3.695312 -9.929688 4.078125 -9.988281 4.484375 -10 C 4.898438 -10.007812 5.269531 -9.914062 5.59375 -9.71875 C 5.78125 -9.601562 5.921875 -9.445312 6.015625 -9.25 C 6.109375 -9.050781 6.128906 -8.859375 6.078125 -8.671875 C 6.035156 -8.484375 5.878906 -8.347656 5.609375 -8.265625 C 5.328125 -8.171875 5.046875 -8.046875 4.765625 -7.890625 C 4.484375 -7.742188 4.234375 -7.566406 4.015625 -7.359375 C 3.796875 -7.160156 3.632812 -6.941406 3.53125 -6.703125 C 3.4375 -6.460938 3.425781 -6.210938 3.5 -5.953125 C 3.582031 -5.691406 3.785156 -5.425781 4.109375 -5.15625 C 4.316406 -4.976562 4.523438 -4.816406 4.734375 -4.671875 C 4.941406 -4.523438 5.132812 -4.367188 5.3125 -4.203125 C 5.5 -4.035156 5.648438 -3.816406 5.765625 -3.546875 C 5.910156 -3.222656 5.988281 -2.867188 6 -2.484375 C 6.019531 -2.109375 5.960938 -1.753906 5.828125 -1.421875 C 5.671875 -1.066406 5.457031 -0.785156 5.1875 -0.578125 C 4.914062 -0.367188 4.613281 -0.21875 4.28125 -0.125 C 3.945312 -0.0390625 3.597656 0 3.234375 0 C 2.878906 0 2.53125 -0.0234375 2.1875 -0.078125 Z M 2.1875 -0.078125 "/></g></g><g style="fill:#ffffff;fill-opacity:0.4;"><g transform="translate(54.15552, 100.622386)"><path style="stroke:none" d=""/></g></g><g style="fill:#000000;fill-opacity:1;"><g transform="translate(54.789136, 100.379165)"><path style="stroke:none" d=""/></g></g><g style="fill:#ffffff;fill-opacity:0.4;"><g transform="translate(57.431568, 100.622386)"><path style="stroke:none" d=""/></g></g><g style="fill:#663100;fill-opacity:1;"><g transform="translate(58.065183, 100.379165)"><path style="stroke:none" d=""/></g></g></g></svg>