<svg xmlns="http://www.w3.org/2000/svg" xmlns:xlink="http://www.w3.org/1999/xlink" width="156" zoomAndPan="magnify" viewBox="0 0 116.88 116.999995" height="156" preserveAspectRatio="xMidYMid meet" version="1.2"><defs><clipPath id="8186244146"><path d="M 0 0.0585938 L 116.761719 0.0585938 L 116.761719 116.9375 L 0 116.9375 Z M 0 0.0585938 "/></clipPath><clipPath id="57dfb4b63c"><path d="M 0 0.0585938 L 116.136719 0.0585938 L 116.136719 116.195312 L 0 116.195312 Z M 0 0.0585938 "/></clipPath><clipPath id="598991862f"><path d="M 58.066406 0.0585938 C 25.996094 0.0585938 0 26.058594 0 58.128906 C 0 90.199219 25.996094 116.195312 58.066406 116.195312 C 90.136719 116.195312 116.136719 90.199219 116.136719 58.128906 C 116.136719 26.058594 90.136719 0.0585938 58.066406 0.0585938 Z M 58.066406 0.0585938 "/></clipPath><clipPath id="728017e80a"><path d="M 49 53 L 64 53 L 64 58.757812 L 49 58.757812 Z M 49 53 "/></clipPath><clipPath id="c17b015e99"><path d="M 42 44 L 70.722656 44 L 70.722656 58 L 42 58 Z M 42 44 "/></clipPath><clipPath id="5ec633e2fb"><path d="M 42 44 L 70.722656 44 L 70.722656 51 L 42 51 Z M 42 44 "/></clipPath><clipPath id="510343a23b"><path d="M 41.929688 44 L 70.722656 44 L 70.722656 51 L 41.929688 51 Z M 41.929688 44 "/></clipPath><clipPath id="a95cedd8d0"><path d="M 63 40 L 70.722656 40 L 70.722656 49 L 63 49 Z M 63 40 "/></clipPath><clipPath id="4164bfcf6c"><path d="M 65 40 L 70.722656 40 L 70.722656 49 L 65 49 Z M 65 40 "/></clipPath></defs><g id="56273e27de"><g clip-rule="nonzero" clip-path="url(#8186244146)"><path style=" stroke:none;fill-rule:nonzero;fill:#ffffff;fill-opacity:1;" d="M 0 0.0585938 L 116.878906 0.0585938 L 116.878906 116.941406 L 0 116.941406 Z M 0 0.0585938 "/></g><g clip-rule="nonzero" clip-path="url(#57dfb4b63c)"><g clip-rule="nonzero" clip-path="url(#598991862f)"><path style=" stroke:none;fill-rule:nonzero;fill:#f4f4e6;fill-opacity:1;" d="M 0 0.0585938 L 116.136719 0.0585938 L 116.136719 116.195312 L 0 116.195312 Z M 0 0.0585938 "/></g></g><g clip-rule="nonzero" clip-path="url(#728017e80a)"><path style=" stroke:none;fill-rule:nonzero;fill:#b94713;fill-opacity:1;" d="M 63 57.230469 C 63.082031 57.183594 63.144531 57.097656 63.128906 57 C 62.925781 55.441406 59.929688 53.152344 56.222656 53.152344 C 52.515625 53.152344 49.515625 55.449219 49.3125 57 C 49.300781 57.097656 49.359375 57.191406 49.445312 57.230469 C 50.105469 57.546875 52.875 58.757812 56.222656 58.757812 C 59.566406 58.757812 62.347656 57.546875 63 57.230469 Z M 63 57.230469 "/></g><g clip-rule="nonzero" clip-path="url(#c17b015e99)"><path style=" stroke:none;fill-rule:nonzero;fill:#ff6c2a;fill-opacity:1;" d="M 70.390625 47.738281 C 70.390625 51.605469 64.085938 57.742188 56.222656 57.742188 C 48.347656 57.742188 42.050781 51.601562 42.050781 47.738281 C 42.050781 47.738281 48.355469 44.59375 56.222656 44.59375 C 64.085938 44.59375 70.390625 47.738281 70.390625 47.738281 Z M 70.390625 47.738281 "/></g><g clip-rule="nonzero" clip-path="url(#5ec633e2fb)"><path style=" stroke:none;fill-rule:nonzero;fill:#ffb02e;fill-opacity:1;" d="M 70.0625 47.316406 C 70.0625 47.402344 70.019531 47.523438 69.878906 47.679688 C 69.734375 47.835938 69.492188 48.007812 69.164062 48.1875 C 68.488281 48.535156 67.484375 48.863281 66.207031 49.152344 C 63.667969 49.710938 60.132812 50.0625 56.214844 50.0625 C 52.296875 50.0625 48.753906 49.710938 46.210938 49.152344 C 44.929688 48.878906 43.925781 48.546875 43.25 48.1875 C 42.902344 48.015625 42.675781 47.835938 42.535156 47.679688 C 42.390625 47.523438 42.351562 47.402344 42.351562 47.316406 C 42.351562 47.234375 42.398438 47.113281 42.535156 46.957031 C 42.679688 46.796875 42.921875 46.628906 43.25 46.449219 C 43.925781 46.101562 44.929688 45.773438 46.210938 45.484375 C 48.75 44.925781 52.285156 44.574219 56.203125 44.574219 C 60.117188 44.574219 63.65625 44.925781 66.191406 45.484375 C 67.472656 45.757812 68.476562 46.089844 69.152344 46.449219 C 69.5 46.621094 69.730469 46.796875 69.867188 46.957031 C 70.03125 47.121094 70.0625 47.234375 70.0625 47.316406 Z M 70.0625 47.316406 "/></g><g clip-rule="nonzero" clip-path="url(#510343a23b)"><path style=" stroke:none;fill-rule:nonzero;fill:#ffee96;fill-opacity:1;" d="M 70.0625 47.316406 L 69.664062 47.316406 L 69.761719 47.316406 L 69.664062 47.304688 L 69.664062 47.316406 L 69.761719 47.316406 L 69.664062 47.304688 L 69.691406 47.316406 L 69.664062 47.304688 L 69.691406 47.316406 L 69.664062 47.304688 L 69.652344 47.332031 C 69.636719 47.34375 69.625 47.378906 69.589844 47.402344 C 69.492188 47.503906 69.289062 47.660156 68.976562 47.824219 C 68.359375 48.152344 67.367188 48.476562 66.113281 48.746094 C 63.613281 49.292969 60.097656 49.640625 56.207031 49.640625 C 52.316406 49.640625 48.816406 49.292969 46.300781 48.746094 C 45.054688 48.46875 44.078125 48.140625 43.441406 47.824219 C 43.125 47.667969 42.921875 47.507812 42.824219 47.402344 C 42.777344 47.34375 42.753906 47.316406 42.753906 47.304688 L 42.679688 47.332031 L 42.753906 47.332031 L 42.753906 47.304688 L 42.679688 47.332031 L 42.753906 47.332031 L 42.695312 47.332031 L 42.777344 47.34375 L 42.777344 47.332031 L 42.695312 47.332031 L 42.777344 47.34375 L 42.753906 47.332031 L 42.777344 47.34375 L 42.753906 47.332031 L 42.777344 47.34375 L 42.792969 47.316406 C 42.804688 47.304688 42.820312 47.273438 42.851562 47.246094 C 42.949219 47.148438 43.152344 46.988281 43.46875 46.824219 C 44.085938 46.496094 45.074219 46.171875 46.328125 45.902344 C 48.828125 45.359375 52.34375 45.007812 56.234375 45.007812 C 60.125 45.007812 63.628906 45.359375 66.140625 45.902344 C 67.386719 46.179688 68.363281 46.507812 69 46.824219 C 69.316406 46.984375 69.519531 47.140625 69.617188 47.246094 C 69.664062 47.304688 69.691406 47.332031 69.691406 47.34375 L 69.761719 47.316406 L 69.691406 47.316406 L 69.691406 47.34375 L 69.761719 47.316406 L 69.691406 47.316406 L 70.464844 47.316406 C 70.464844 47.21875 70.4375 47.101562 70.390625 47.003906 C 70.347656 46.902344 70.273438 46.785156 70.175781 46.6875 C 69.972656 46.484375 69.714844 46.285156 69.34375 46.09375 C 68.609375 45.71875 67.589844 45.390625 66.285156 45.101562 C 63.699219 44.535156 60.152344 44.179688 56.203125 44.179688 C 52.265625 44.179688 48.703125 44.527344 46.117188 45.101562 C 44.824219 45.390625 43.789062 45.71875 43.0625 46.09375 C 42.699219 46.285156 42.429688 46.46875 42.226562 46.6875 C 42.128906 46.785156 42.058594 46.890625 42.011719 47.003906 C 41.964844 47.101562 41.9375 47.21875 41.9375 47.316406 C 41.9375 47.417969 41.964844 47.535156 42.011719 47.632812 C 42.058594 47.734375 42.128906 47.851562 42.226562 47.949219 C 42.429688 48.152344 42.6875 48.351562 43.0625 48.542969 C 43.796875 48.917969 44.8125 49.246094 46.117188 49.535156 C 48.703125 50.09375 52.253906 50.457031 56.203125 50.457031 C 60.136719 50.457031 63.699219 50.105469 66.285156 49.535156 C 67.578125 49.246094 68.613281 48.917969 69.34375 48.542969 C 69.703125 48.355469 69.972656 48.167969 70.175781 47.949219 C 70.273438 47.851562 70.347656 47.746094 70.390625 47.632812 C 70.4375 47.535156 70.464844 47.417969 70.464844 47.316406 Z M 70.0625 47.316406 "/></g><path style=" stroke:none;fill-rule:nonzero;fill:#ffb02e;fill-opacity:1;" d="M 59.121094 31.734375 C 60.484375 33.320312 60.296875 35.730469 58.722656 37.082031 C 57.140625 38.4375 54.746094 38.265625 53.394531 36.683594 C 52.03125 35.097656 52.21875 32.691406 53.792969 31.335938 C 55.375 29.960938 57.769531 30.132812 59.121094 31.734375 Z M 59.121094 31.734375 "/><path style=" stroke:none;fill-rule:evenodd;fill:#da931f;fill-opacity:1;" d="M 52.746094 35.136719 C 54.109375 36.722656 56.492188 36.914062 58.070312 35.539062 C 59.121094 34.628906 59.546875 33.273438 59.335938 32.003906 C 60.460938 33.589844 60.214844 35.800781 58.722656 37.082031 C 57.140625 38.453125 54.746094 38.265625 53.394531 36.683594 C 52.933594 36.148438 52.644531 35.511719 52.535156 34.867188 C 52.601562 34.953125 52.671875 35.050781 52.746094 35.136719 Z M 52.746094 35.136719 "/><path style=" stroke:none;fill-rule:nonzero;fill:#ffb02e;fill-opacity:1;" d="M 53.460938 37.023438 C 54.851562 38.582031 54.738281 40.992188 53.183594 42.390625 C 51.628906 43.792969 49.242188 43.675781 47.851562 42.117188 C 46.441406 40.554688 46.570312 38.148438 48.125 36.75 C 49.675781 35.355469 52.054688 35.464844 53.460938 37.023438 Z M 53.460938 37.023438 "/><path style=" stroke:none;fill-rule:evenodd;fill:#da931f;fill-opacity:1;" d="M 47.160156 40.589844 C 48.550781 42.148438 50.953125 42.273438 52.5 40.867188 C 53.539062 39.945312 53.9375 38.570312 53.675781 37.308594 C 54.835938 38.867188 54.640625 41.070312 53.171875 42.398438 C 51.621094 43.800781 49.222656 43.679688 47.832031 42.121094 C 47.359375 41.601562 47.054688 40.972656 46.925781 40.332031 C 46.996094 40.410156 47.089844 40.503906 47.160156 40.589844 Z M 47.160156 40.589844 "/><path style=" stroke:none;fill-rule:nonzero;fill:#ffb02e;fill-opacity:1;" d="M 46.441406 48.71875 C 48.527344 48.71875 50.21875 47.023438 50.21875 44.925781 C 50.21875 42.824219 48.527344 41.128906 46.441406 41.128906 C 44.355469 41.128906 42.660156 42.824219 42.660156 44.925781 C 42.660156 47.023438 44.355469 48.71875 46.441406 48.71875 Z M 46.441406 48.71875 "/><path style=" stroke:none;fill-rule:evenodd;fill:#da931f;fill-opacity:1;" d="M 44.859375 48.199219 C 46.9375 48.199219 48.636719 46.496094 48.636719 44.40625 C 48.636719 43.023438 47.890625 41.792969 46.789062 41.148438 C 48.710938 41.320312 50.21875 42.949219 50.21875 44.925781 C 50.21875 47.015625 48.527344 48.71875 46.441406 48.71875 C 45.738281 48.71875 45.074219 48.527344 44.519531 48.1875 C 44.617188 48.199219 44.734375 48.199219 44.859375 48.199219 Z M 44.859375 48.199219 "/><path style=" stroke:none;fill-rule:nonzero;fill:#da931f;fill-opacity:1;" d="M 53.53125 41.292969 C 55.539062 40.703125 57.636719 41.871094 58.214844 43.871094 C 58.804688 45.890625 57.636719 47.996094 55.644531 48.574219 C 53.636719 49.167969 51.539062 47.996094 50.960938 45.996094 C 50.375 43.976562 51.523438 41.871094 53.53125 41.292969 Z M 53.53125 41.292969 "/><path style=" stroke:none;fill-rule:evenodd;fill:#da931f;fill-opacity:1;" d="M 53.976562 48.535156 C 55.984375 47.941406 57.140625 45.839844 56.550781 43.832031 C 56.164062 42.503906 55.113281 41.535156 53.867188 41.222656 C 55.761719 40.847656 57.671875 41.984375 58.214844 43.890625 C 58.804688 45.910156 57.636719 48.015625 55.644531 48.59375 C 54.96875 48.796875 54.28125 48.796875 53.648438 48.621094 C 53.75 48.585938 53.867188 48.5625 53.976562 48.535156 Z M 53.976562 48.535156 "/><path style=" stroke:none;fill-rule:nonzero;fill:#da931f;fill-opacity:1;" d="M 59.109375 41.265625 C 61.117188 40.675781 63.214844 41.84375 63.792969 43.84375 C 64.382812 45.863281 63.214844 47.96875 61.21875 48.546875 C 59.214844 49.140625 57.113281 47.96875 56.535156 45.96875 C 55.945312 43.964844 57.09375 41.839844 59.109375 41.265625 Z M 59.109375 41.265625 "/><path style=" stroke:none;fill-rule:evenodd;fill:#da931f;fill-opacity:1;" d="M 59.554688 48.503906 C 61.5625 47.910156 62.714844 45.804688 62.125 43.800781 C 61.738281 42.46875 60.6875 41.503906 59.441406 41.1875 C 61.339844 40.8125 63.246094 41.949219 63.792969 43.859375 C 64.382812 45.878906 63.214844 47.984375 61.21875 48.5625 C 60.542969 48.765625 59.855469 48.765625 59.226562 48.585938 C 59.324219 48.5625 59.4375 48.535156 59.554688 48.503906 Z M 59.554688 48.503906 "/><path style=" stroke:none;fill-rule:nonzero;fill:#ffb02e;fill-opacity:1;" d="M 50.21875 42.34375 C 52.296875 42.34375 53.996094 44.050781 53.996094 46.140625 C 53.996094 48.230469 52.304688 49.9375 50.21875 49.9375 C 48.140625 49.9375 46.441406 48.230469 46.441406 46.140625 C 46.441406 44.050781 48.132812 42.34375 50.21875 42.34375 Z M 50.21875 42.34375 "/><path style=" stroke:none;fill-rule:evenodd;fill:#da931f;fill-opacity:1;" d="M 48.636719 49.429688 C 50.71875 49.429688 52.417969 47.726562 52.417969 45.632812 C 52.417969 44.253906 51.667969 43.023438 50.566406 42.378906 C 52.488281 42.550781 53.996094 44.179688 53.996094 46.152344 C 53.996094 48.246094 52.304688 49.949219 50.21875 49.949219 C 49.515625 49.949219 48.855469 49.757812 48.296875 49.417969 C 48.40625 49.410156 48.527344 49.429688 48.636719 49.429688 Z M 48.636719 49.429688 "/><path style=" stroke:none;fill-rule:nonzero;fill:#ffb02e;fill-opacity:1;" d="M 59.613281 40.082031 C 59.769531 37.996094 58.214844 36.167969 56.136719 36.011719 C 54.054688 35.855469 52.238281 37.414062 52.082031 39.503906 C 51.925781 41.597656 53.480469 43.417969 55.558594 43.574219 C 57.636719 43.734375 59.457031 42.175781 59.613281 40.082031 Z M 59.613281 40.082031 "/><path style=" stroke:none;fill-rule:evenodd;fill:#da931f;fill-opacity:1;" d="M 52.34375 40.714844 C 53.707031 42.300781 56.089844 42.492188 57.671875 41.117188 C 58.722656 40.207031 59.148438 38.851562 58.9375 37.582031 C 60.058594 39.167969 59.816406 41.378906 58.320312 42.660156 C 56.738281 44.03125 54.34375 43.84375 52.992188 42.261719 C 52.535156 41.726562 52.246094 41.089844 52.132812 40.445312 C 52.1875 40.542969 52.257812 40.628906 52.34375 40.714844 Z M 52.34375 40.714844 "/><path style=" stroke:none;fill-rule:nonzero;fill:#ffb02e;fill-opacity:1;" d="M 64.402344 37.023438 C 65.792969 38.582031 65.679688 40.992188 64.125 42.390625 C 62.578125 43.792969 60.175781 43.675781 58.785156 42.117188 C 57.394531 40.554688 57.507812 38.148438 59.0625 36.75 C 60.617188 35.339844 63.011719 35.464844 64.402344 37.023438 Z M 64.402344 37.023438 "/><path style=" stroke:none;fill-rule:evenodd;fill:#da931f;fill-opacity:1;" d="M 58.105469 40.578125 C 59.496094 42.136719 61.894531 42.261719 63.445312 40.851562 C 64.480469 39.929688 64.882812 38.558594 64.617188 37.292969 C 65.78125 38.851562 65.582031 41.054688 64.113281 42.386719 C 62.566406 43.785156 60.164062 43.667969 58.773438 42.109375 C 58.300781 41.589844 58 40.957031 57.867188 40.320312 C 57.960938 40.398438 58.03125 40.484375 58.105469 40.578125 Z M 58.105469 40.578125 "/><g clip-rule="nonzero" clip-path="url(#a95cedd8d0)"><path style=" stroke:none;fill-rule:nonzero;fill:#ffb02e;fill-opacity:1;" d="M 66.933594 48.332031 C 69.019531 48.332031 70.714844 46.632812 70.714844 44.535156 C 70.714844 42.4375 69.019531 40.742188 66.933594 40.742188 C 64.847656 40.742188 63.15625 42.4375 63.15625 44.535156 C 63.15625 46.632812 64.847656 48.332031 66.933594 48.332031 Z M 66.933594 48.332031 "/></g><g clip-rule="nonzero" clip-path="url(#4164bfcf6c)"><path style=" stroke:none;fill-rule:evenodd;fill:#da931f;fill-opacity:1;" d="M 65.355469 47.8125 C 67.433594 47.8125 69.132812 46.109375 69.132812 44.015625 C 69.132812 42.636719 68.382812 41.40625 67.28125 40.761719 C 69.203125 40.929688 70.714844 42.5625 70.714844 44.535156 C 70.714844 46.628906 69.019531 48.332031 66.933594 48.332031 C 66.234375 48.332031 65.570312 48.140625 65.011719 47.796875 C 65.125 47.8125 65.234375 47.8125 65.355469 47.8125 Z M 65.355469 47.8125 "/></g><path style=" stroke:none;fill-rule:nonzero;fill:#ffb02e;fill-opacity:1;" d="M 57.125 42.332031 C 59.207031 42.332031 60.90625 44.035156 60.90625 46.128906 C 60.90625 48.21875 59.214844 49.921875 57.125 49.921875 C 55.039062 49.921875 53.347656 48.230469 53.347656 46.128906 C 53.347656 44.035156 55.039062 42.332031 57.125 42.332031 Z M 57.125 42.332031 "/><path style=" stroke:none;fill-rule:evenodd;fill:#da931f;fill-opacity:1;" d="M 55.546875 49.410156 C 57.625 49.410156 59.324219 47.707031 59.324219 45.613281 C 59.324219 44.234375 58.578125 43.003906 57.472656 42.359375 C 59.398438 42.53125 60.90625 44.160156 60.90625 46.132812 C 60.90625 48.226562 59.214844 49.929688 57.125 49.929688 C 56.425781 49.929688 55.761719 49.746094 55.203125 49.398438 C 55.316406 49.398438 55.425781 49.410156 55.546875 49.410156 Z M 55.546875 49.410156 "/><path style=" stroke:none;fill-rule:nonzero;fill:#ffb02e;fill-opacity:1;" d="M 63.15625 42.015625 C 65.234375 42.015625 66.933594 43.71875 66.933594 45.8125 C 66.933594 47.902344 65.242188 49.605469 63.15625 49.605469 C 61.078125 49.605469 59.378906 47.902344 59.378906 45.8125 C 59.378906 43.71875 61.078125 42.015625 63.15625 42.015625 Z M 63.15625 42.015625 "/><path style=" stroke:none;fill-rule:evenodd;fill:#da931f;fill-opacity:1;" d="M 61.574219 49.09375 C 63.65625 49.09375 65.355469 47.390625 65.355469 45.300781 C 65.355469 43.917969 64.605469 42.6875 63.503906 42.042969 C 65.425781 42.214844 66.933594 43.84375 66.933594 45.820312 C 66.933594 47.910156 65.242188 49.613281 63.15625 49.613281 C 62.453125 49.613281 61.792969 49.421875 61.234375 49.082031 C 61.332031 49.09375 61.464844 49.09375 61.574219 49.09375 Z M 61.574219 49.09375 "/><path style=" stroke:none;fill-rule:nonzero;fill:#da931f;fill-opacity:1;" d="M 61.980469 44.484375 C 61.980469 44.554688 61.957031 44.617188 61.90625 44.667969 C 61.851562 44.71875 61.792969 44.746094 61.71875 44.746094 C 61.648438 44.746094 61.585938 44.71875 61.535156 44.667969 C 61.480469 44.617188 61.457031 44.554688 61.457031 44.484375 C 61.457031 44.410156 61.480469 44.347656 61.535156 44.296875 C 61.585938 44.246094 61.648438 44.21875 61.71875 44.21875 C 61.792969 44.21875 61.851562 44.246094 61.90625 44.296875 C 61.957031 44.347656 61.980469 44.410156 61.980469 44.484375 Z M 61.980469 44.484375 "/><path style=" stroke:none;fill-rule:nonzero;fill:#da931f;fill-opacity:1;" d="M 64.082031 45.535156 C 64.082031 45.609375 64.054688 45.671875 64.003906 45.722656 C 63.953125 45.773438 63.890625 45.796875 63.820312 45.796875 C 63.746094 45.796875 63.683594 45.773438 63.632812 45.722656 C 63.582031 45.671875 63.554688 45.609375 63.554688 45.535156 C 63.554688 45.464844 63.582031 45.402344 63.632812 45.351562 C 63.683594 45.296875 63.746094 45.273438 63.820312 45.273438 C 63.890625 45.273438 63.953125 45.296875 64.003906 45.351562 C 64.054688 45.402344 64.082031 45.464844 64.082031 45.535156 Z M 64.082031 45.535156 "/><path style=" stroke:none;fill-rule:nonzero;fill:#da931f;fill-opacity:1;" d="M 62.242188 47.3125 C 62.242188 47.382812 62.21875 47.445312 62.167969 47.496094 C 62.117188 47.550781 62.054688 47.574219 61.980469 47.574219 C 61.910156 47.574219 61.847656 47.550781 61.796875 47.496094 C 61.746094 47.445312 61.71875 47.382812 61.71875 47.3125 C 61.71875 47.238281 61.746094 47.175781 61.796875 47.125 C 61.847656 47.074219 61.910156 47.046875 61.980469 47.046875 C 62.054688 47.046875 62.117188 47.074219 62.167969 47.125 C 62.21875 47.175781 62.242188 47.238281 62.242188 47.3125 Z M 62.242188 47.3125 "/><path style=" stroke:none;fill-rule:nonzero;fill:#da931f;fill-opacity:1;" d="M 60.367188 38.28125 C 60.367188 38.398438 60.308594 38.457031 60.191406 38.457031 C 60.074219 38.457031 60.011719 38.398438 60.011719 38.28125 C 60.011719 38.164062 60.074219 38.101562 60.191406 38.101562 C 60.308594 38.101562 60.367188 38.164062 60.367188 38.28125 Z M 60.367188 38.28125 "/><path style=" stroke:none;fill-rule:nonzero;fill:#da931f;fill-opacity:1;" d="M 48.753906 37.753906 C 48.753906 37.871094 48.695312 37.933594 48.578125 37.933594 C 48.460938 37.933594 48.402344 37.871094 48.402344 37.753906 C 48.402344 37.636719 48.460938 37.578125 48.578125 37.578125 C 48.695312 37.578125 48.753906 37.636719 48.753906 37.753906 Z M 48.753906 37.753906 "/><path style=" stroke:none;fill-rule:nonzero;fill:#da931f;fill-opacity:1;" d="M 47.707031 45.976562 C 47.707031 46.09375 47.648438 46.152344 47.527344 46.152344 C 47.410156 46.152344 47.351562 46.09375 47.351562 45.976562 C 47.351562 45.859375 47.410156 45.796875 47.527344 45.796875 C 47.648438 45.796875 47.707031 45.859375 47.707031 45.976562 Z M 47.707031 45.976562 "/><path style=" stroke:none;fill-rule:nonzero;fill:#da931f;fill-opacity:1;" d="M 45.703125 45.945312 C 45.703125 46.0625 45.644531 46.121094 45.527344 46.121094 C 45.410156 46.121094 45.351562 46.0625 45.351562 45.945312 C 45.351562 45.824219 45.410156 45.765625 45.527344 45.765625 C 45.644531 45.765625 45.703125 45.824219 45.703125 45.945312 Z M 45.703125 45.945312 "/><path style=" stroke:none;fill-rule:nonzero;fill:#da931f;fill-opacity:1;" d="M 49.082031 44.265625 C 49.082031 44.382812 49.023438 44.445312 48.90625 44.445312 C 48.789062 44.445312 48.730469 44.382812 48.730469 44.265625 C 48.730469 44.148438 48.789062 44.089844 48.90625 44.089844 C 49.023438 44.089844 49.082031 44.148438 49.082031 44.265625 Z M 49.082031 44.265625 "/><path style=" stroke:none;fill-rule:nonzero;fill:#da931f;fill-opacity:1;" d="M 44.910156 43.898438 C 44.910156 44.015625 44.851562 44.074219 44.734375 44.074219 C 44.617188 44.074219 44.558594 44.015625 44.558594 43.898438 C 44.558594 43.78125 44.617188 43.71875 44.734375 43.71875 C 44.851562 43.71875 44.910156 43.78125 44.910156 43.898438 Z M 44.910156 43.898438 "/><path style=" stroke:none;fill-rule:nonzero;fill:#da931f;fill-opacity:1;" d="M 50.132812 40.320312 C 50.132812 40.4375 50.074219 40.496094 49.957031 40.496094 C 49.839844 40.496094 49.777344 40.4375 49.777344 40.320312 C 49.777344 40.203125 49.839844 40.140625 49.957031 40.140625 C 50.074219 40.140625 50.132812 40.203125 50.132812 40.320312 Z M 50.132812 40.320312 "/><path style=" stroke:none;fill-rule:nonzero;fill:#da931f;fill-opacity:1;" d="M 49.675781 47.753906 C 49.675781 47.871094 49.613281 47.929688 49.496094 47.929688 C 49.378906 47.929688 49.320312 47.871094 49.320312 47.753906 C 49.320312 47.632812 49.378906 47.574219 49.496094 47.574219 C 49.613281 47.574219 49.675781 47.632812 49.675781 47.753906 Z M 49.675781 47.753906 "/><path style=" stroke:none;fill-rule:nonzero;fill:#da931f;fill-opacity:1;" d="M 51.15625 37.117188 C 51.15625 37.1875 51.132812 37.25 51.078125 37.300781 C 51.027344 37.355469 50.96875 37.378906 50.894531 37.378906 C 50.820312 37.378906 50.761719 37.355469 50.707031 37.300781 C 50.65625 37.25 50.632812 37.1875 50.632812 37.117188 C 50.632812 37.042969 50.65625 36.980469 50.707031 36.929688 C 50.761719 36.878906 50.820312 36.851562 50.894531 36.851562 C 50.96875 36.851562 51.027344 36.878906 51.078125 36.929688 C 51.132812 36.980469 51.15625 37.042969 51.15625 37.117188 Z M 51.15625 37.117188 "/><path style=" stroke:none;fill-rule:nonzero;fill:#da931f;fill-opacity:1;" d="M 50.894531 45.273438 C 50.894531 45.34375 50.867188 45.40625 50.816406 45.457031 C 50.765625 45.511719 50.703125 45.535156 50.632812 45.535156 C 50.558594 45.535156 50.496094 45.511719 50.445312 45.457031 C 50.394531 45.40625 50.371094 45.34375 50.371094 45.273438 C 50.371094 45.199219 50.394531 45.136719 50.445312 45.085938 C 50.496094 45.035156 50.558594 45.007812 50.632812 45.007812 C 50.703125 45.007812 50.765625 45.035156 50.816406 45.085938 C 50.867188 45.136719 50.894531 45.199219 50.894531 45.273438 Z M 50.894531 45.273438 "/><path style=" stroke:none;fill-rule:nonzero;fill:#da931f;fill-opacity:1;" d="M 46.726562 42.898438 C 46.726562 42.972656 46.703125 43.03125 46.652344 43.085938 C 46.601562 43.136719 46.539062 43.160156 46.464844 43.160156 C 46.394531 43.160156 46.332031 43.136719 46.28125 43.085938 C 46.230469 43.03125 46.203125 42.972656 46.203125 42.898438 C 46.203125 42.824219 46.230469 42.761719 46.28125 42.710938 C 46.332031 42.660156 46.394531 42.636719 46.464844 42.636719 C 46.539062 42.636719 46.601562 42.660156 46.652344 42.710938 C 46.703125 42.761719 46.726562 42.824219 46.726562 42.898438 Z M 46.726562 42.898438 "/><path style=" stroke:none;fill-rule:nonzero;fill:#da931f;fill-opacity:1;" d="M 62.636719 38.925781 C 62.636719 39.078125 62.550781 39.15625 62.375 39.15625 C 62.199219 39.15625 62.113281 39.078125 62.113281 38.925781 C 62.113281 38.773438 62.199219 38.695312 62.375 38.695312 C 62.550781 38.695312 62.636719 38.773438 62.636719 38.925781 Z M 62.636719 38.925781 "/><path style=" stroke:none;fill-rule:nonzero;fill:#da931f;fill-opacity:1;" d="M 62.835938 37.246094 C 62.835938 37.378906 62.769531 37.445312 62.636719 37.445312 C 62.507812 37.445312 62.441406 37.378906 62.441406 37.246094 C 62.441406 37.117188 62.507812 37.050781 62.636719 37.050781 C 62.769531 37.050781 62.835938 37.117188 62.835938 37.246094 Z M 62.835938 37.246094 "/><path style=" stroke:none;fill-rule:nonzero;fill:#da931f;fill-opacity:1;" d="M 57.125 32.511719 C 57.125 32.644531 57.0625 32.710938 56.929688 32.710938 C 56.796875 32.710938 56.734375 32.644531 56.734375 32.511719 C 56.734375 32.378906 56.796875 32.316406 56.929688 32.316406 C 57.0625 32.316406 57.125 32.378906 57.125 32.511719 Z M 57.125 32.511719 "/><path style=" stroke:none;fill-rule:nonzero;fill:#da931f;fill-opacity:1;" d="M 56.144531 34.222656 C 56.144531 34.355469 56.078125 34.417969 55.945312 34.417969 C 55.816406 34.417969 55.75 34.355469 55.75 34.222656 C 55.75 34.089844 55.816406 34.023438 55.945312 34.023438 C 56.078125 34.023438 56.144531 34.089844 56.144531 34.222656 Z M 56.144531 34.222656 "/><path style=" stroke:none;fill-rule:nonzero;fill:#da931f;fill-opacity:1;" d="M 54.109375 32.316406 C 54.109375 32.445312 54.042969 32.511719 53.914062 32.511719 C 53.78125 32.511719 53.714844 32.445312 53.714844 32.316406 C 53.714844 32.183594 53.78125 32.117188 53.914062 32.117188 C 54.042969 32.117188 54.109375 32.183594 54.109375 32.316406 Z M 54.109375 32.316406 "/><path style=" stroke:none;fill-rule:nonzero;fill:#da931f;fill-opacity:1;" d="M 56.011719 31.328125 C 56.011719 31.460938 55.945312 31.527344 55.816406 31.527344 C 55.683594 31.527344 55.617188 31.460938 55.617188 31.328125 C 55.617188 31.195312 55.683594 31.132812 55.816406 31.132812 C 55.945312 31.132812 56.011719 31.195312 56.011719 31.328125 Z M 56.011719 31.328125 "/><path style=" stroke:none;fill-rule:nonzero;fill:#da931f;fill-opacity:1;" d="M 67.886719 42.574219 C 67.886719 42.707031 67.820312 42.773438 67.6875 42.773438 C 67.558594 42.773438 67.492188 42.707031 67.492188 42.574219 C 67.492188 42.445312 67.558594 42.378906 67.6875 42.378906 C 67.820312 42.378906 67.886719 42.445312 67.886719 42.574219 Z M 67.886719 42.574219 "/><path style=" stroke:none;fill-rule:nonzero;fill:#da931f;fill-opacity:1;" d="M 66.574219 42.574219 C 66.574219 42.707031 66.507812 42.773438 66.378906 42.773438 C 66.246094 42.773438 66.179688 42.707031 66.179688 42.574219 C 66.179688 42.445312 66.246094 42.378906 66.378906 42.378906 C 66.507812 42.378906 66.574219 42.445312 66.574219 42.574219 Z M 66.574219 42.574219 "/><path style=" stroke:none;fill-rule:nonzero;fill:#da931f;fill-opacity:1;" d="M 67.886719 44.746094 C 67.886719 44.878906 67.820312 44.945312 67.6875 44.945312 C 67.558594 44.945312 67.492188 44.878906 67.492188 44.746094 C 67.492188 44.613281 67.558594 44.550781 67.6875 44.550781 C 67.820312 44.550781 67.886719 44.613281 67.886719 44.746094 Z M 67.886719 44.746094 "/><path style=" stroke:none;fill-rule:nonzero;fill:#da931f;fill-opacity:1;" d="M 60.542969 40.160156 C 60.542969 40.28125 60.484375 40.339844 60.367188 40.339844 C 60.25 40.339844 60.191406 40.28125 60.191406 40.160156 C 60.191406 40.042969 60.25 39.984375 60.367188 39.984375 C 60.484375 39.984375 60.542969 40.042969 60.542969 40.160156 Z M 60.542969 40.160156 "/><path style=" stroke:none;fill-rule:nonzero;fill:#da931f;fill-opacity:1;" d="M 56.675781 43.675781 C 56.675781 43.746094 56.648438 43.808594 56.597656 43.859375 C 56.546875 43.910156 56.484375 43.9375 56.410156 43.9375 C 56.339844 43.9375 56.277344 43.910156 56.226562 43.859375 C 56.175781 43.808594 56.148438 43.746094 56.148438 43.675781 C 56.148438 43.601562 56.175781 43.539062 56.226562 43.488281 C 56.277344 43.4375 56.339844 43.410156 56.410156 43.410156 C 56.484375 43.410156 56.546875 43.4375 56.597656 43.488281 C 56.648438 43.539062 56.675781 43.601562 56.675781 43.675781 Z M 56.675781 43.675781 "/><path style=" stroke:none;fill-rule:nonzero;fill:#da931f;fill-opacity:1;" d="M 59.007812 43.84375 C 59.007812 43.917969 58.984375 43.980469 58.933594 44.03125 C 58.882812 44.082031 58.820312 44.109375 58.746094 44.109375 C 58.675781 44.109375 58.613281 44.082031 58.5625 44.03125 C 58.511719 43.980469 58.484375 43.917969 58.484375 43.84375 C 58.484375 43.773438 58.511719 43.710938 58.5625 43.660156 C 58.613281 43.609375 58.675781 43.582031 58.746094 43.582031 C 58.820312 43.582031 58.882812 43.609375 58.933594 43.660156 C 58.984375 43.710938 59.007812 43.773438 59.007812 43.84375 Z M 59.007812 43.84375 "/><path style=" stroke:none;fill-rule:nonzero;fill:#da931f;fill-opacity:1;" d="M 57.984375 46.1875 C 57.984375 46.257812 57.960938 46.320312 57.910156 46.371094 C 57.859375 46.425781 57.796875 46.449219 57.722656 46.449219 C 57.652344 46.449219 57.589844 46.425781 57.539062 46.371094 C 57.488281 46.320312 57.460938 46.257812 57.460938 46.1875 C 57.460938 46.113281 57.488281 46.050781 57.539062 46 C 57.589844 45.949219 57.652344 45.921875 57.722656 45.921875 C 57.796875 45.921875 57.859375 45.949219 57.910156 46 C 57.960938 46.050781 57.984375 46.113281 57.984375 46.1875 Z M 57.984375 46.1875 "/><path style=" stroke:none;fill-rule:nonzero;fill:#da931f;fill-opacity:1;" d="M 54.0625 38.65625 C 54.0625 38.726562 54.039062 38.789062 53.984375 38.839844 C 53.933594 38.894531 53.875 38.917969 53.800781 38.917969 C 53.726562 38.917969 53.667969 38.894531 53.613281 38.839844 C 53.5625 38.789062 53.539062 38.726562 53.539062 38.65625 C 53.539062 38.582031 53.5625 38.519531 53.613281 38.46875 C 53.667969 38.417969 53.726562 38.390625 53.800781 38.390625 C 53.875 38.390625 53.933594 38.417969 53.984375 38.46875 C 54.039062 38.519531 54.0625 38.582031 54.0625 38.65625 Z M 54.0625 38.65625 "/><path style=" stroke:none;fill-rule:nonzero;fill:#da931f;fill-opacity:1;" d="M 56.398438 38.828125 C 56.398438 38.898438 56.371094 38.960938 56.320312 39.011719 C 56.269531 39.0625 56.207031 39.089844 56.136719 39.089844 C 56.0625 39.089844 56 39.0625 55.949219 39.011719 C 55.898438 38.960938 55.875 38.898438 55.875 38.828125 C 55.875 38.753906 55.898438 38.691406 55.949219 38.640625 C 56 38.589844 56.0625 38.5625 56.136719 38.5625 C 56.207031 38.5625 56.269531 38.589844 56.320312 38.640625 C 56.371094 38.691406 56.398438 38.753906 56.398438 38.828125 Z M 56.398438 38.828125 "/><path style=" stroke:none;fill-rule:nonzero;fill:#da931f;fill-opacity:1;" d="M 57.738281 37.457031 C 57.738281 37.53125 57.710938 37.59375 57.660156 37.644531 C 57.609375 37.695312 57.546875 37.722656 57.472656 37.722656 C 57.402344 37.722656 57.339844 37.695312 57.289062 37.644531 C 57.238281 37.59375 57.210938 37.53125 57.210938 37.457031 C 57.210938 37.386719 57.238281 37.324219 57.289062 37.273438 C 57.339844 37.222656 57.402344 37.195312 57.472656 37.195312 C 57.546875 37.195312 57.609375 37.222656 57.660156 37.273438 C 57.710938 37.324219 57.738281 37.386719 57.738281 37.457031 Z M 57.738281 37.457031 "/><path style=" stroke:none;fill-rule:nonzero;fill:#da931f;fill-opacity:1;" d="M 55.527344 37.019531 C 55.527344 37.152344 55.457031 37.222656 55.324219 37.222656 C 55.1875 37.222656 55.121094 37.152344 55.121094 37.019531 C 55.121094 36.882812 55.1875 36.8125 55.324219 36.8125 C 55.457031 36.8125 55.527344 36.882812 55.527344 37.019531 Z M 55.527344 37.019531 "/><path style=" stroke:none;fill-rule:nonzero;fill:#da931f;fill-opacity:1;" d="M 55.375 41.167969 C 55.375 41.242188 55.347656 41.304688 55.296875 41.355469 C 55.246094 41.40625 55.183594 41.429688 55.113281 41.429688 C 55.039062 41.429688 54.976562 41.40625 54.925781 41.355469 C 54.875 41.304688 54.851562 41.242188 54.851562 41.167969 C 54.851562 41.09375 54.875 41.035156 54.925781 40.980469 C 54.976562 40.929688 55.039062 40.90625 55.113281 40.90625 C 55.183594 40.90625 55.246094 40.929688 55.296875 40.980469 C 55.347656 41.035156 55.375 41.09375 55.375 41.167969 Z M 55.375 41.167969 "/><g style="fill:#ffffff;fill-opacity:0.4;"><g transform="translate(38.138925, 70.903524)"><path style="stroke:none" d="M 1.96875 -0.265625 C 1.738281 -0.046875 1.503906 0.0390625 1.265625 0 C 1.035156 -0.0507812 0.835938 -0.175781 0.671875 -0.375 C 0.503906 -0.582031 0.398438 -0.804688 0.359375 -1.046875 C 0.265625 -1.515625 0.226562 -1.929688 0.25 -2.296875 C 0.28125 -2.671875 0.289062 -3.09375 0.28125 -3.5625 C 0.269531 -4.195312 0.253906 -4.820312 0.234375 -5.4375 C 0.210938 -6.0625 0.203125 -6.679688 0.203125 -7.296875 C 0.203125 -7.546875 0.210938 -7.796875 0.234375 -8.046875 C 0.253906 -8.304688 0.316406 -8.535156 0.421875 -8.734375 C 0.535156 -8.941406 0.726562 -9.097656 1 -9.203125 C 1.363281 -9.335938 1.660156 -9.367188 1.890625 -9.296875 C 2.117188 -9.222656 2.289062 -9.078125 2.40625 -8.859375 C 2.519531 -8.648438 2.597656 -8.394531 2.640625 -8.09375 C 2.679688 -7.800781 2.695312 -7.492188 2.6875 -7.171875 C 2.675781 -6.859375 2.65625 -6.5625 2.625 -6.28125 C 2.59375 -6 2.566406 -5.769531 2.546875 -5.59375 C 2.847656 -5.601562 3.148438 -5.601562 3.453125 -5.59375 C 3.753906 -5.582031 4.050781 -5.578125 4.34375 -5.578125 C 4.300781 -5.890625 4.253906 -6.21875 4.203125 -6.5625 C 4.148438 -6.90625 4.117188 -7.25 4.109375 -7.59375 C 4.097656 -7.9375 4.132812 -8.269531 4.21875 -8.59375 C 4.289062 -8.851562 4.429688 -9.09375 4.640625 -9.3125 C 4.859375 -9.539062 5.109375 -9.679688 5.390625 -9.734375 C 5.671875 -9.785156 5.9375 -9.703125 6.1875 -9.484375 C 6.351562 -9.359375 6.46875 -9.117188 6.53125 -8.765625 C 6.59375 -8.410156 6.625 -7.992188 6.625 -7.515625 C 6.632812 -7.035156 6.625 -6.53125 6.59375 -6 C 6.5625 -5.476562 6.519531 -4.96875 6.46875 -4.46875 C 6.425781 -3.96875 6.382812 -3.523438 6.34375 -3.140625 C 6.300781 -2.765625 6.269531 -2.492188 6.25 -2.328125 C 6.238281 -2.191406 6.210938 -2.015625 6.171875 -1.796875 C 6.140625 -1.578125 6.085938 -1.351562 6.015625 -1.125 C 5.941406 -0.90625 5.847656 -0.71875 5.734375 -0.5625 C 5.617188 -0.414062 5.484375 -0.34375 5.328125 -0.34375 C 5.171875 -0.351562 4.988281 -0.472656 4.78125 -0.703125 C 4.5625 -0.960938 4.429688 -1.273438 4.390625 -1.640625 C 4.359375 -2.003906 4.363281 -2.375 4.40625 -2.75 C 4.445312 -3.125 4.472656 -3.460938 4.484375 -3.765625 C 4.335938 -3.742188 4.144531 -3.726562 3.90625 -3.71875 C 3.664062 -3.707031 3.425781 -3.6875 3.1875 -3.65625 C 2.957031 -3.632812 2.78125 -3.585938 2.65625 -3.515625 C 2.488281 -3.421875 2.410156 -3.28125 2.421875 -3.09375 C 2.429688 -2.914062 2.429688 -2.707031 2.421875 -2.46875 C 2.410156 -2.238281 2.40625 -1.984375 2.40625 -1.703125 C 2.40625 -1.429688 2.375 -1.164062 2.3125 -0.90625 C 2.25 -0.65625 2.132812 -0.441406 1.96875 -0.265625 Z M 1.96875 -0.265625 "/></g></g><g style="fill:#ffffff;fill-opacity:0.4;"><g transform="translate(45.053313, 70.903524)"><path style="stroke:none" d="M 0.25 -8.71875 C 0.175781 -9 0.1875 -9.273438 0.28125 -9.546875 C 0.382812 -9.828125 0.546875 -10.078125 0.765625 -10.296875 C 0.984375 -10.515625 1.226562 -10.660156 1.5 -10.734375 C 1.601562 -10.753906 1.742188 -10.757812 1.921875 -10.75 C 2.097656 -10.738281 2.269531 -10.695312 2.4375 -10.625 C 2.613281 -10.550781 2.75 -10.453125 2.84375 -10.328125 C 2.945312 -10.210938 2.972656 -10.070312 2.921875 -9.90625 C 3.015625 -9.625 3 -9.34375 2.875 -9.0625 C 2.757812 -8.78125 2.582031 -8.535156 2.34375 -8.328125 C 2.101562 -8.117188 1.84375 -7.976562 1.5625 -7.90625 C 1.28125 -7.832031 1.019531 -7.851562 0.78125 -7.96875 C 0.539062 -8.09375 0.363281 -8.34375 0.25 -8.71875 Z M 2.0625 -0.1875 C 1.757812 0.0195312 1.460938 0.0625 1.171875 -0.0625 C 0.890625 -0.195312 0.675781 -0.414062 0.53125 -0.71875 C 0.382812 -1.007812 0.289062 -1.347656 0.25 -1.734375 C 0.207031 -2.117188 0.191406 -2.515625 0.203125 -2.921875 C 0.222656 -3.335938 0.25 -3.742188 0.28125 -4.140625 C 0.320312 -4.546875 0.359375 -4.898438 0.390625 -5.203125 C 0.410156 -5.390625 0.425781 -5.609375 0.4375 -5.859375 C 0.457031 -6.117188 0.5 -6.375 0.5625 -6.625 C 0.625 -6.875 0.726562 -7.070312 0.875 -7.21875 C 1.070312 -7.425781 1.28125 -7.523438 1.5 -7.515625 C 1.726562 -7.503906 1.941406 -7.421875 2.140625 -7.265625 C 2.335938 -7.109375 2.484375 -6.914062 2.578125 -6.6875 C 2.816406 -6.195312 2.953125 -5.644531 2.984375 -5.03125 C 3.015625 -4.414062 2.988281 -3.796875 2.90625 -3.171875 C 2.820312 -2.554688 2.726562 -1.992188 2.625 -1.484375 C 2.582031 -1.253906 2.53125 -1.019531 2.46875 -0.78125 C 2.40625 -0.539062 2.269531 -0.34375 2.0625 -0.1875 Z M 2.0625 -0.1875 "/></g></g><g style="fill:#ffffff;fill-opacity:0.4;"><g transform="translate(48.247759, 70.903524)"><path style="stroke:none" d="M 7.453125 -0.46875 C 7.148438 -0.175781 6.875 -0.0195312 6.625 0 C 6.375 0.0195312 6.148438 -0.0546875 5.953125 -0.234375 C 5.753906 -0.421875 5.582031 -0.660156 5.4375 -0.953125 C 5.289062 -1.242188 5.160156 -1.554688 5.046875 -1.890625 C 4.941406 -2.234375 4.859375 -2.554688 4.796875 -2.859375 C 4.734375 -3.160156 4.679688 -3.390625 4.640625 -3.546875 C 4.566406 -3.535156 4.441406 -3.515625 4.265625 -3.484375 C 4.085938 -3.453125 3.914062 -3.414062 3.75 -3.375 C 3.582031 -3.34375 3.472656 -3.300781 3.421875 -3.25 C 3.347656 -3.1875 3.304688 -3.054688 3.296875 -2.859375 C 3.296875 -2.671875 3.285156 -2.535156 3.265625 -2.453125 C 3.203125 -2.179688 3.128906 -1.90625 3.046875 -1.625 C 2.972656 -1.351562 2.84375 -1.109375 2.65625 -0.890625 C 2.414062 -0.597656 2.140625 -0.425781 1.828125 -0.375 C 1.523438 -0.320312 1.238281 -0.378906 0.96875 -0.546875 C 0.695312 -0.710938 0.5 -0.96875 0.375 -1.3125 C 0.238281 -1.6875 0.179688 -2.101562 0.203125 -2.5625 C 0.234375 -3.03125 0.285156 -3.492188 0.359375 -3.953125 C 0.441406 -4.421875 0.5 -4.847656 0.53125 -5.234375 C 0.570312 -5.867188 0.578125 -6.519531 0.546875 -7.1875 C 0.523438 -7.863281 0.5625 -8.507812 0.65625 -9.125 C 0.726562 -9.507812 0.882812 -9.816406 1.125 -10.046875 C 1.375 -10.273438 1.6875 -10.429688 2.0625 -10.515625 C 2.4375 -10.609375 2.835938 -10.648438 3.265625 -10.640625 C 3.703125 -10.640625 4.132812 -10.597656 4.5625 -10.515625 C 5 -10.441406 5.394531 -10.335938 5.75 -10.203125 C 6.113281 -10.066406 6.410156 -9.925781 6.640625 -9.78125 C 7.128906 -9.46875 7.476562 -9.097656 7.6875 -8.671875 C 7.894531 -8.242188 7.988281 -7.800781 7.96875 -7.34375 C 7.945312 -6.882812 7.820312 -6.429688 7.59375 -5.984375 C 7.363281 -5.535156 7.054688 -5.128906 6.671875 -4.765625 C 6.828125 -4.515625 7.007812 -4.203125 7.21875 -3.828125 C 7.425781 -3.460938 7.597656 -3.070312 7.734375 -2.65625 C 7.878906 -2.25 7.941406 -1.851562 7.921875 -1.46875 C 7.898438 -1.09375 7.742188 -0.757812 7.453125 -0.46875 Z M 3.1875 -5.28125 C 3.457031 -5.382812 3.722656 -5.492188 3.984375 -5.609375 C 4.242188 -5.734375 4.488281 -5.878906 4.71875 -6.046875 C 5.019531 -6.253906 5.1875 -6.460938 5.21875 -6.671875 C 5.257812 -6.878906 5.210938 -7.066406 5.078125 -7.234375 C 4.941406 -7.410156 4.75 -7.546875 4.5 -7.640625 C 4.257812 -7.734375 4.015625 -7.769531 3.765625 -7.75 C 3.554688 -7.75 3.382812 -7.734375 3.25 -7.703125 C 3.125 -7.671875 3.03125 -7.566406 2.96875 -7.390625 C 2.914062 -7.222656 2.90625 -7.003906 2.9375 -6.734375 C 2.96875 -6.472656 3.015625 -6.210938 3.078125 -5.953125 C 3.140625 -5.691406 3.175781 -5.46875 3.1875 -5.28125 Z M 3.1875 -5.28125 "/></g></g><g style="fill:#ffffff;fill-opacity:0.4;"><g transform="translate(56.420567, 70.903524)"><path style="stroke:none" d="M 0.25 -8.71875 C 0.175781 -9 0.1875 -9.273438 0.28125 -9.546875 C 0.382812 -9.828125 0.546875 -10.078125 0.765625 -10.296875 C 0.984375 -10.515625 1.226562 -10.660156 1.5 -10.734375 C 1.601562 -10.753906 1.742188 -10.757812 1.921875 -10.75 C 2.097656 -10.738281 2.269531 -10.695312 2.4375 -10.625 C 2.613281 -10.550781 2.75 -10.453125 2.84375 -10.328125 C 2.945312 -10.210938 2.972656 -10.070312 2.921875 -9.90625 C 3.015625 -9.625 3 -9.34375 2.875 -9.0625 C 2.757812 -8.78125 2.582031 -8.535156 2.34375 -8.328125 C 2.101562 -8.117188 1.84375 -7.976562 1.5625 -7.90625 C 1.28125 -7.832031 1.019531 -7.851562 0.78125 -7.96875 C 0.539062 -8.09375 0.363281 -8.34375 0.25 -8.71875 Z M 2.0625 -0.1875 C 1.757812 0.0195312 1.460938 0.0625 1.171875 -0.0625 C 0.890625 -0.195312 0.675781 -0.414062 0.53125 -0.71875 C 0.382812 -1.007812 0.289062 -1.347656 0.25 -1.734375 C 0.207031 -2.117188 0.191406 -2.515625 0.203125 -2.921875 C 0.222656 -3.335938 0.25 -3.742188 0.28125 -4.140625 C 0.320312 -4.546875 0.359375 -4.898438 0.390625 -5.203125 C 0.410156 -5.390625 0.425781 -5.609375 0.4375 -5.859375 C 0.457031 -6.117188 0.5 -6.375 0.5625 -6.625 C 0.625 -6.875 0.726562 -7.070312 0.875 -7.21875 C 1.070312 -7.425781 1.28125 -7.523438 1.5 -7.515625 C 1.726562 -7.503906 1.941406 -7.421875 2.140625 -7.265625 C 2.335938 -7.109375 2.484375 -6.914062 2.578125 -6.6875 C 2.816406 -6.195312 2.953125 -5.644531 2.984375 -5.03125 C 3.015625 -4.414062 2.988281 -3.796875 2.90625 -3.171875 C 2.820312 -2.554688 2.726562 -1.992188 2.625 -1.484375 C 2.582031 -1.253906 2.53125 -1.019531 2.46875 -0.78125 C 2.40625 -0.539062 2.269531 -0.34375 2.0625 -0.1875 Z M 2.0625 -0.1875 "/></g></g><g style="fill:#ffffff;fill-opacity:0.4;"><g transform="translate(59.615012, 70.903524)"><path style="stroke:none" d="M 2.3125 -0.078125 C 2.101562 -0.117188 1.875 -0.164062 1.625 -0.21875 C 1.382812 -0.269531 1.148438 -0.34375 0.921875 -0.4375 C 0.703125 -0.539062 0.53125 -0.6875 0.40625 -0.875 C 0.226562 -1.132812 0.160156 -1.367188 0.203125 -1.578125 C 0.253906 -1.785156 0.378906 -1.953125 0.578125 -2.078125 C 0.773438 -2.210938 1.003906 -2.273438 1.265625 -2.265625 C 1.429688 -2.265625 1.613281 -2.226562 1.8125 -2.15625 C 2.019531 -2.082031 2.226562 -2.015625 2.4375 -1.953125 C 2.644531 -1.890625 2.84375 -1.875 3.03125 -1.90625 C 3.21875 -1.9375 3.375 -2.0625 3.5 -2.28125 C 3.644531 -2.519531 3.664062 -2.734375 3.5625 -2.921875 C 3.457031 -3.109375 3.300781 -3.269531 3.09375 -3.40625 C 2.882812 -3.539062 2.691406 -3.648438 2.515625 -3.734375 C 1.816406 -4.078125 1.300781 -4.53125 0.96875 -5.09375 C 0.644531 -5.664062 0.539062 -6.347656 0.65625 -7.140625 C 0.757812 -7.929688 1.070312 -8.613281 1.59375 -9.1875 C 2.125 -9.757812 2.769531 -10.15625 3.53125 -10.375 C 3.894531 -10.476562 4.296875 -10.535156 4.734375 -10.546875 C 5.171875 -10.554688 5.5625 -10.457031 5.90625 -10.25 C 6.09375 -10.125 6.238281 -9.957031 6.34375 -9.75 C 6.445312 -9.539062 6.472656 -9.335938 6.421875 -9.140625 C 6.367188 -8.941406 6.203125 -8.800781 5.921875 -8.71875 C 5.617188 -8.625 5.316406 -8.492188 5.015625 -8.328125 C 4.722656 -8.171875 4.460938 -7.984375 4.234375 -7.765625 C 4.003906 -7.554688 3.835938 -7.320312 3.734375 -7.0625 C 3.628906 -6.8125 3.617188 -6.546875 3.703125 -6.265625 C 3.785156 -5.992188 4 -5.71875 4.34375 -5.4375 C 4.550781 -5.25 4.765625 -5.078125 4.984375 -4.921875 C 5.210938 -4.773438 5.421875 -4.609375 5.609375 -4.421875 C 5.804688 -4.242188 5.960938 -4.019531 6.078125 -3.75 C 6.234375 -3.40625 6.316406 -3.03125 6.328125 -2.625 C 6.347656 -2.226562 6.285156 -1.851562 6.140625 -1.5 C 5.984375 -1.125 5.757812 -0.828125 5.46875 -0.609375 C 5.1875 -0.390625 4.867188 -0.234375 4.515625 -0.140625 C 4.160156 -0.046875 3.789062 0 3.40625 0 C 3.03125 0 2.664062 -0.0234375 2.3125 -0.078125 Z M 2.3125 -0.078125 "/></g></g><g style="fill:#ffffff;fill-opacity:0.4;"><g transform="translate(66.266654, 70.903524)"><path style="stroke:none" d="M 1.96875 -0.265625 C 1.738281 -0.046875 1.503906 0.0390625 1.265625 0 C 1.035156 -0.0507812 0.835938 -0.175781 0.671875 -0.375 C 0.503906 -0.582031 0.398438 -0.804688 0.359375 -1.046875 C 0.265625 -1.515625 0.226562 -1.929688 0.25 -2.296875 C 0.28125 -2.671875 0.289062 -3.09375 0.28125 -3.5625 C 0.269531 -4.195312 0.253906 -4.820312 0.234375 -5.4375 C 0.210938 -6.0625 0.203125 -6.679688 0.203125 -7.296875 C 0.203125 -7.546875 0.210938 -7.796875 0.234375 -8.046875 C 0.253906 -8.304688 0.316406 -8.535156 0.421875 -8.734375 C 0.535156 -8.941406 0.726562 -9.097656 1 -9.203125 C 1.363281 -9.335938 1.660156 -9.367188 1.890625 -9.296875 C 2.117188 -9.222656 2.289062 -9.078125 2.40625 -8.859375 C 2.519531 -8.648438 2.597656 -8.394531 2.640625 -8.09375 C 2.679688 -7.800781 2.695312 -7.492188 2.6875 -7.171875 C 2.675781 -6.859375 2.65625 -6.5625 2.625 -6.28125 C 2.59375 -6 2.566406 -5.769531 2.546875 -5.59375 C 2.847656 -5.601562 3.148438 -5.601562 3.453125 -5.59375 C 3.753906 -5.582031 4.050781 -5.578125 4.34375 -5.578125 C 4.300781 -5.890625 4.253906 -6.21875 4.203125 -6.5625 C 4.148438 -6.90625 4.117188 -7.25 4.109375 -7.59375 C 4.097656 -7.9375 4.132812 -8.269531 4.21875 -8.59375 C 4.289062 -8.851562 4.429688 -9.09375 4.640625 -9.3125 C 4.859375 -9.539062 5.109375 -9.679688 5.390625 -9.734375 C 5.671875 -9.785156 5.9375 -9.703125 6.1875 -9.484375 C 6.351562 -9.359375 6.46875 -9.117188 6.53125 -8.765625 C 6.59375 -8.410156 6.625 -7.992188 6.625 -7.515625 C 6.632812 -7.035156 6.625 -6.53125 6.59375 -6 C 6.5625 -5.476562 6.519531 -4.96875 6.46875 -4.46875 C 6.425781 -3.96875 6.382812 -3.523438 6.34375 -3.140625 C 6.300781 -2.765625 6.269531 -2.492188 6.25 -2.328125 C 6.238281 -2.191406 6.210938 -2.015625 6.171875 -1.796875 C 6.140625 -1.578125 6.085938 -1.351562 6.015625 -1.125 C 5.941406 -0.90625 5.847656 -0.71875 5.734375 -0.5625 C 5.617188 -0.414062 5.484375 -0.34375 5.328125 -0.34375 C 5.171875 -0.351562 4.988281 -0.472656 4.78125 -0.703125 C 4.5625 -0.960938 4.429688 -1.273438 4.390625 -1.640625 C 4.359375 -2.003906 4.363281 -2.375 4.40625 -2.75 C 4.445312 -3.125 4.472656 -3.460938 4.484375 -3.765625 C 4.335938 -3.742188 4.144531 -3.726562 3.90625 -3.71875 C 3.664062 -3.707031 3.425781 -3.6875 3.1875 -3.65625 C 2.957031 -3.632812 2.78125 -3.585938 2.65625 -3.515625 C 2.488281 -3.421875 2.410156 -3.28125 2.421875 -3.09375 C 2.429688 -2.914062 2.429688 -2.707031 2.421875 -2.46875 C 2.410156 -2.238281 2.40625 -1.984375 2.40625 -1.703125 C 2.40625 -1.429688 2.375 -1.164062 2.3125 -0.90625 C 2.25 -0.65625 2.132812 -0.441406 1.96875 -0.265625 Z M 1.96875 -0.265625 "/></g></g><g style="fill:#ffffff;fill-opacity:0.4;"><g transform="translate(73.181042, 70.903524)"><path style="stroke:none" d="M 0.25 -8.71875 C 0.175781 -9 0.1875 -9.273438 0.28125 -9.546875 C 0.382812 -9.828125 0.546875 -10.078125 0.765625 -10.296875 C 0.984375 -10.515625 1.226562 -10.660156 1.5 -10.734375 C 1.601562 -10.753906 1.742188 -10.757812 1.921875 -10.75 C 2.097656 -10.738281 2.269531 -10.695312 2.4375 -10.625 C 2.613281 -10.550781 2.75 -10.453125 2.84375 -10.328125 C 2.945312 -10.210938 2.972656 -10.070312 2.921875 -9.90625 C 3.015625 -9.625 3 -9.34375 2.875 -9.0625 C 2.757812 -8.78125 2.582031 -8.535156 2.34375 -8.328125 C 2.101562 -8.117188 1.84375 -7.976562 1.5625 -7.90625 C 1.28125 -7.832031 1.019531 -7.851562 0.78125 -7.96875 C 0.539062 -8.09375 0.363281 -8.34375 0.25 -8.71875 Z M 2.0625 -0.1875 C 1.757812 0.0195312 1.460938 0.0625 1.171875 -0.0625 C 0.890625 -0.195312 0.675781 -0.414062 0.53125 -0.71875 C 0.382812 -1.007812 0.289062 -1.347656 0.25 -1.734375 C 0.207031 -2.117188 0.191406 -2.515625 0.203125 -2.921875 C 0.222656 -3.335938 0.25 -3.742188 0.28125 -4.140625 C 0.320312 -4.546875 0.359375 -4.898438 0.390625 -5.203125 C 0.410156 -5.390625 0.425781 -5.609375 0.4375 -5.859375 C 0.457031 -6.117188 0.5 -6.375 0.5625 -6.625 C 0.625 -6.875 0.726562 -7.070312 0.875 -7.21875 C 1.070312 -7.425781 1.28125 -7.523438 1.5 -7.515625 C 1.726562 -7.503906 1.941406 -7.421875 2.140625 -7.265625 C 2.335938 -7.109375 2.484375 -6.914062 2.578125 -6.6875 C 2.816406 -6.195312 2.953125 -5.644531 2.984375 -5.03125 C 3.015625 -4.414062 2.988281 -3.796875 2.90625 -3.171875 C 2.820312 -2.554688 2.726562 -1.992188 2.625 -1.484375 C 2.582031 -1.253906 2.53125 -1.019531 2.46875 -0.78125 C 2.40625 -0.539062 2.269531 -0.34375 2.0625 -0.1875 Z M 2.0625 -0.1875 "/></g></g><g style="fill:#663100;fill-opacity:1;"><g transform="translate(38.946015, 70.593712)"><path style="stroke:none" d="M 1.96875 -0.265625 C 1.738281 -0.046875 1.503906 0.0390625 1.265625 0 C 1.035156 -0.0507812 0.835938 -0.175781 0.671875 -0.375 C 0.503906 -0.582031 0.398438 -0.804688 0.359375 -1.046875 C 0.265625 -1.515625 0.226562 -1.929688 0.25 -2.296875 C 0.28125 -2.671875 0.289062 -3.09375 0.28125 -3.5625 C 0.269531 -4.195312 0.253906 -4.820312 0.234375 -5.4375 C 0.210938 -6.0625 0.203125 -6.679688 0.203125 -7.296875 C 0.203125 -7.546875 0.210938 -7.796875 0.234375 -8.046875 C 0.253906 -8.304688 0.316406 -8.535156 0.421875 -8.734375 C 0.535156 -8.941406 0.726562 -9.097656 1 -9.203125 C 1.363281 -9.335938 1.660156 -9.367188 1.890625 -9.296875 C 2.117188 -9.222656 2.289062 -9.078125 2.40625 -8.859375 C 2.519531 -8.648438 2.597656 -8.394531 2.640625 -8.09375 C 2.679688 -7.800781 2.695312 -7.492188 2.6875 -7.171875 C 2.675781 -6.859375 2.65625 -6.5625 2.625 -6.28125 C 2.59375 -6 2.566406 -5.769531 2.546875 -5.59375 C 2.847656 -5.601562 3.148438 -5.601562 3.453125 -5.59375 C 3.753906 -5.582031 4.050781 -5.578125 4.34375 -5.578125 C 4.300781 -5.890625 4.253906 -6.21875 4.203125 -6.5625 C 4.148438 -6.90625 4.117188 -7.25 4.109375 -7.59375 C 4.097656 -7.9375 4.132812 -8.269531 4.21875 -8.59375 C 4.289062 -8.851562 4.429688 -9.09375 4.640625 -9.3125 C 4.859375 -9.539062 5.109375 -9.679688 5.390625 -9.734375 C 5.671875 -9.785156 5.9375 -9.703125 6.1875 -9.484375 C 6.351562 -9.359375 6.46875 -9.117188 6.53125 -8.765625 C 6.59375 -8.410156 6.625 -7.992188 6.625 -7.515625 C 6.632812 -7.035156 6.625 -6.53125 6.59375 -6 C 6.5625 -5.476562 6.519531 -4.96875 6.46875 -4.46875 C 6.425781 -3.96875 6.382812 -3.523438 6.34375 -3.140625 C 6.300781 -2.765625 6.269531 -2.492188 6.25 -2.328125 C 6.238281 -2.191406 6.210938 -2.015625 6.171875 -1.796875 C 6.140625 -1.578125 6.085938 -1.351562 6.015625 -1.125 C 5.941406 -0.90625 5.847656 -0.71875 5.734375 -0.5625 C 5.617188 -0.414062 5.484375 -0.34375 5.328125 -0.34375 C 5.171875 -0.351562 4.988281 -0.472656 4.78125 -0.703125 C 4.5625 -0.960938 4.429688 -1.273438 4.390625 -1.640625 C 4.359375 -2.003906 4.363281 -2.375 4.40625 -2.75 C 4.445312 -3.125 4.472656 -3.460938 4.484375 -3.765625 C 4.335938 -3.742188 4.144531 -3.726562 3.90625 -3.71875 C 3.664062 -3.707031 3.425781 -3.6875 3.1875 -3.65625 C 2.957031 -3.632812 2.78125 -3.585938 2.65625 -3.515625 C 2.488281 -3.421875 2.410156 -3.28125 2.421875 -3.09375 C 2.429688 -2.914062 2.429688 -2.707031 2.421875 -2.46875 C 2.410156 -2.238281 2.40625 -1.984375 2.40625 -1.703125 C 2.40625 -1.429688 2.375 -1.164062 2.3125 -0.90625 C 2.25 -0.65625 2.132812 -0.441406 1.96875 -0.265625 Z M 1.96875 -0.265625 "/></g></g><g style="fill:#663100;fill-opacity:1;"><g transform="translate(45.860402, 70.593712)"><path style="stroke:none" d="M 0.25 -8.71875 C 0.175781 -9 0.1875 -9.273438 0.28125 -9.546875 C 0.382812 -9.828125 0.546875 -10.078125 0.765625 -10.296875 C 0.984375 -10.515625 1.226562 -10.660156 1.5 -10.734375 C 1.601562 -10.753906 1.742188 -10.757812 1.921875 -10.75 C 2.097656 -10.738281 2.269531 -10.695312 2.4375 -10.625 C 2.613281 -10.550781 2.75 -10.453125 2.84375 -10.328125 C 2.945312 -10.210938 2.972656 -10.070312 2.921875 -9.90625 C 3.015625 -9.625 3 -9.34375 2.875 -9.0625 C 2.757812 -8.78125 2.582031 -8.535156 2.34375 -8.328125 C 2.101562 -8.117188 1.84375 -7.976562 1.5625 -7.90625 C 1.28125 -7.832031 1.019531 -7.851562 0.78125 -7.96875 C 0.539062 -8.09375 0.363281 -8.34375 0.25 -8.71875 Z M 2.0625 -0.1875 C 1.757812 0.0195312 1.460938 0.0625 1.171875 -0.0625 C 0.890625 -0.195312 0.675781 -0.414062 0.53125 -0.71875 C 0.382812 -1.007812 0.289062 -1.347656 0.25 -1.734375 C 0.207031 -2.117188 0.191406 -2.515625 0.203125 -2.921875 C 0.222656 -3.335938 0.25 -3.742188 0.28125 -4.140625 C 0.320312 -4.546875 0.359375 -4.898438 0.390625 -5.203125 C 0.410156 -5.390625 0.425781 -5.609375 0.4375 -5.859375 C 0.457031 -6.117188 0.5 -6.375 0.5625 -6.625 C 0.625 -6.875 0.726562 -7.070312 0.875 -7.21875 C 1.070312 -7.425781 1.28125 -7.523438 1.5 -7.515625 C 1.726562 -7.503906 1.941406 -7.421875 2.140625 -7.265625 C 2.335938 -7.109375 2.484375 -6.914062 2.578125 -6.6875 C 2.816406 -6.195312 2.953125 -5.644531 2.984375 -5.03125 C 3.015625 -4.414062 2.988281 -3.796875 2.90625 -3.171875 C 2.820312 -2.554688 2.726562 -1.992188 2.625 -1.484375 C 2.582031 -1.253906 2.53125 -1.019531 2.46875 -0.78125 C 2.40625 -0.539062 2.269531 -0.34375 2.0625 -0.1875 Z M 2.0625 -0.1875 "/></g></g><g style="fill:#663100;fill-opacity:1;"><g transform="translate(49.054848, 70.593712)"><path style="stroke:none" d="M 7.453125 -0.46875 C 7.148438 -0.175781 6.875 -0.0195312 6.625 0 C 6.375 0.0195312 6.148438 -0.0546875 5.953125 -0.234375 C 5.753906 -0.421875 5.582031 -0.660156 5.4375 -0.953125 C 5.289062 -1.242188 5.160156 -1.554688 5.046875 -1.890625 C 4.941406 -2.234375 4.859375 -2.554688 4.796875 -2.859375 C 4.734375 -3.160156 4.679688 -3.390625 4.640625 -3.546875 C 4.566406 -3.535156 4.441406 -3.515625 4.265625 -3.484375 C 4.085938 -3.453125 3.914062 -3.414062 3.75 -3.375 C 3.582031 -3.34375 3.472656 -3.300781 3.421875 -3.25 C 3.347656 -3.1875 3.304688 -3.054688 3.296875 -2.859375 C 3.296875 -2.671875 3.285156 -2.535156 3.265625 -2.453125 C 3.203125 -2.179688 3.128906 -1.90625 3.046875 -1.625 C 2.972656 -1.351562 2.84375 -1.109375 2.65625 -0.890625 C 2.414062 -0.597656 2.140625 -0.425781 1.828125 -0.375 C 1.523438 -0.320312 1.238281 -0.378906 0.96875 -0.546875 C 0.695312 -0.710938 0.5 -0.96875 0.375 -1.3125 C 0.238281 -1.6875 0.179688 -2.101562 0.203125 -2.5625 C 0.234375 -3.03125 0.285156 -3.492188 0.359375 -3.953125 C 0.441406 -4.421875 0.5 -4.847656 0.53125 -5.234375 C 0.570312 -5.867188 0.578125 -6.519531 0.546875 -7.1875 C 0.523438 -7.863281 0.5625 -8.507812 0.65625 -9.125 C 0.726562 -9.507812 0.882812 -9.816406 1.125 -10.046875 C 1.375 -10.273438 1.6875 -10.429688 2.0625 -10.515625 C 2.4375 -10.609375 2.835938 -10.648438 3.265625 -10.640625 C 3.703125 -10.640625 4.132812 -10.597656 4.5625 -10.515625 C 5 -10.441406 5.394531 -10.335938 5.75 -10.203125 C 6.113281 -10.066406 6.410156 -9.925781 6.640625 -9.78125 C 7.128906 -9.46875 7.476562 -9.097656 7.6875 -8.671875 C 7.894531 -8.242188 7.988281 -7.800781 7.96875 -7.34375 C 7.945312 -6.882812 7.820312 -6.429688 7.59375 -5.984375 C 7.363281 -5.535156 7.054688 -5.128906 6.671875 -4.765625 C 6.828125 -4.515625 7.007812 -4.203125 7.21875 -3.828125 C 7.425781 -3.460938 7.597656 -3.070312 7.734375 -2.65625 C 7.878906 -2.25 7.941406 -1.851562 7.921875 -1.46875 C 7.898438 -1.09375 7.742188 -0.757812 7.453125 -0.46875 Z M 3.1875 -5.28125 C 3.457031 -5.382812 3.722656 -5.492188 3.984375 -5.609375 C 4.242188 -5.734375 4.488281 -5.878906 4.71875 -6.046875 C 5.019531 -6.253906 5.1875 -6.460938 5.21875 -6.671875 C 5.257812 -6.878906 5.210938 -7.066406 5.078125 -7.234375 C 4.941406 -7.410156 4.75 -7.546875 4.5 -7.640625 C 4.257812 -7.734375 4.015625 -7.769531 3.765625 -7.75 C 3.554688 -7.75 3.382812 -7.734375 3.25 -7.703125 C 3.125 -7.671875 3.03125 -7.566406 2.96875 -7.390625 C 2.914062 -7.222656 2.90625 -7.003906 2.9375 -6.734375 C 2.96875 -6.472656 3.015625 -6.210938 3.078125 -5.953125 C 3.140625 -5.691406 3.175781 -5.46875 3.1875 -5.28125 Z M 3.1875 -5.28125 "/></g></g><g style="fill:#663100;fill-opacity:1;"><g transform="translate(57.227656, 70.593712)"><path style="stroke:none" d="M 0.25 -8.71875 C 0.175781 -9 0.1875 -9.273438 0.28125 -9.546875 C 0.382812 -9.828125 0.546875 -10.078125 0.765625 -10.296875 C 0.984375 -10.515625 1.226562 -10.660156 1.5 -10.734375 C 1.601562 -10.753906 1.742188 -10.757812 1.921875 -10.75 C 2.097656 -10.738281 2.269531 -10.695312 2.4375 -10.625 C 2.613281 -10.550781 2.75 -10.453125 2.84375 -10.328125 C 2.945312 -10.210938 2.972656 -10.070312 2.921875 -9.90625 C 3.015625 -9.625 3 -9.34375 2.875 -9.0625 C 2.757812 -8.78125 2.582031 -8.535156 2.34375 -8.328125 C 2.101562 -8.117188 1.84375 -7.976562 1.5625 -7.90625 C 1.28125 -7.832031 1.019531 -7.851562 0.78125 -7.96875 C 0.539062 -8.09375 0.363281 -8.34375 0.25 -8.71875 Z M 2.0625 -0.1875 C 1.757812 0.0195312 1.460938 0.0625 1.171875 -0.0625 C 0.890625 -0.195312 0.675781 -0.414062 0.53125 -0.71875 C 0.382812 -1.007812 0.289062 -1.347656 0.25 -1.734375 C 0.207031 -2.117188 0.191406 -2.515625 0.203125 -2.921875 C 0.222656 -3.335938 0.25 -3.742188 0.28125 -4.140625 C 0.320312 -4.546875 0.359375 -4.898438 0.390625 -5.203125 C 0.410156 -5.390625 0.425781 -5.609375 0.4375 -5.859375 C 0.457031 -6.117188 0.5 -6.375 0.5625 -6.625 C 0.625 -6.875 0.726562 -7.070312 0.875 -7.21875 C 1.070312 -7.425781 1.28125 -7.523438 1.5 -7.515625 C 1.726562 -7.503906 1.941406 -7.421875 2.140625 -7.265625 C 2.335938 -7.109375 2.484375 -6.914062 2.578125 -6.6875 C 2.816406 -6.195312 2.953125 -5.644531 2.984375 -5.03125 C 3.015625 -4.414062 2.988281 -3.796875 2.90625 -3.171875 C 2.820312 -2.554688 2.726562 -1.992188 2.625 -1.484375 C 2.582031 -1.253906 2.53125 -1.019531 2.46875 -0.78125 C 2.40625 -0.539062 2.269531 -0.34375 2.0625 -0.1875 Z M 2.0625 -0.1875 "/></g></g><g style="fill:#663100;fill-opacity:1;"><g transform="translate(60.422102, 70.593712)"><path style="stroke:none" d="M 2.3125 -0.078125 C 2.101562 -0.117188 1.875 -0.164062 1.625 -0.21875 C 1.382812 -0.269531 1.148438 -0.34375 0.921875 -0.4375 C 0.703125 -0.539062 0.53125 -0.6875 0.40625 -0.875 C 0.226562 -1.132812 0.160156 -1.367188 0.203125 -1.578125 C 0.253906 -1.785156 0.378906 -1.953125 0.578125 -2.078125 C 0.773438 -2.210938 1.003906 -2.273438 1.265625 -2.265625 C 1.429688 -2.265625 1.613281 -2.226562 1.8125 -2.15625 C 2.019531 -2.082031 2.226562 -2.015625 2.4375 -1.953125 C 2.644531 -1.890625 2.84375 -1.875 3.03125 -1.90625 C 3.21875 -1.9375 3.375 -2.0625 3.5 -2.28125 C 3.644531 -2.519531 3.664062 -2.734375 3.5625 -2.921875 C 3.457031 -3.109375 3.300781 -3.269531 3.09375 -3.40625 C 2.882812 -3.539062 2.691406 -3.648438 2.515625 -3.734375 C 1.816406 -4.078125 1.300781 -4.53125 0.96875 -5.09375 C 0.644531 -5.664062 0.539062 -6.347656 0.65625 -7.140625 C 0.757812 -7.929688 1.070312 -8.613281 1.59375 -9.1875 C 2.125 -9.757812 2.769531 -10.15625 3.53125 -10.375 C 3.894531 -10.476562 4.296875 -10.535156 4.734375 -10.546875 C 5.171875 -10.554688 5.5625 -10.457031 5.90625 -10.25 C 6.09375 -10.125 6.238281 -9.957031 6.34375 -9.75 C 6.445312 -9.539062 6.472656 -9.335938 6.421875 -9.140625 C 6.367188 -8.941406 6.203125 -8.800781 5.921875 -8.71875 C 5.617188 -8.625 5.316406 -8.492188 5.015625 -8.328125 C 4.722656 -8.171875 4.460938 -7.984375 4.234375 -7.765625 C 4.003906 -7.554688 3.835938 -7.320312 3.734375 -7.0625 C 3.628906 -6.8125 3.617188 -6.546875 3.703125 -6.265625 C 3.785156 -5.992188 4 -5.71875 4.34375 -5.4375 C 4.550781 -5.25 4.765625 -5.078125 4.984375 -4.921875 C 5.210938 -4.773438 5.421875 -4.609375 5.609375 -4.421875 C 5.804688 -4.242188 5.960938 -4.019531 6.078125 -3.75 C 6.234375 -3.40625 6.316406 -3.03125 6.328125 -2.625 C 6.347656 -2.226562 6.285156 -1.851562 6.140625 -1.5 C 5.984375 -1.125 5.757812 -0.828125 5.46875 -0.609375 C 5.1875 -0.390625 4.867188 -0.234375 4.515625 -0.140625 C 4.160156 -0.046875 3.789062 0 3.40625 0 C 3.03125 0 2.664062 -0.0234375 2.3125 -0.078125 Z M 2.3125 -0.078125 "/></g></g><g style="fill:#663100;fill-opacity:1;"><g transform="translate(67.073743, 70.593712)"><path style="stroke:none" d="M 1.96875 -0.265625 C 1.738281 -0.046875 1.503906 0.0390625 1.265625 0 C 1.035156 -0.0507812 0.835938 -0.175781 0.671875 -0.375 C 0.503906 -0.582031 0.398438 -0.804688 0.359375 -1.046875 C 0.265625 -1.515625 0.226562 -1.929688 0.25 -2.296875 C 0.28125 -2.671875 0.289062 -3.09375 0.28125 -3.5625 C 0.269531 -4.195312 0.253906 -4.820312 0.234375 -5.4375 C 0.210938 -6.0625 0.203125 -6.679688 0.203125 -7.296875 C 0.203125 -7.546875 0.210938 -7.796875 0.234375 -8.046875 C 0.253906 -8.304688 0.316406 -8.535156 0.421875 -8.734375 C 0.535156 -8.941406 0.726562 -9.097656 1 -9.203125 C 1.363281 -9.335938 1.660156 -9.367188 1.890625 -9.296875 C 2.117188 -9.222656 2.289062 -9.078125 2.40625 -8.859375 C 2.519531 -8.648438 2.597656 -8.394531 2.640625 -8.09375 C 2.679688 -7.800781 2.695312 -7.492188 2.6875 -7.171875 C 2.675781 -6.859375 2.65625 -6.5625 2.625 -6.28125 C 2.59375 -6 2.566406 -5.769531 2.546875 -5.59375 C 2.847656 -5.601562 3.148438 -5.601562 3.453125 -5.59375 C 3.753906 -5.582031 4.050781 -5.578125 4.34375 -5.578125 C 4.300781 -5.890625 4.253906 -6.21875 4.203125 -6.5625 C 4.148438 -6.90625 4.117188 -7.25 4.109375 -7.59375 C 4.097656 -7.9375 4.132812 -8.269531 4.21875 -8.59375 C 4.289062 -8.851562 4.429688 -9.09375 4.640625 -9.3125 C 4.859375 -9.539062 5.109375 -9.679688 5.390625 -9.734375 C 5.671875 -9.785156 5.9375 -9.703125 6.1875 -9.484375 C 6.351562 -9.359375 6.46875 -9.117188 6.53125 -8.765625 C 6.59375 -8.410156 6.625 -7.992188 6.625 -7.515625 C 6.632812 -7.035156 6.625 -6.53125 6.59375 -6 C 6.5625 -5.476562 6.519531 -4.96875 6.46875 -4.46875 C 6.425781 -3.96875 6.382812 -3.523438 6.34375 -3.140625 C 6.300781 -2.765625 6.269531 -2.492188 6.25 -2.328125 C 6.238281 -2.191406 6.210938 -2.015625 6.171875 -1.796875 C 6.140625 -1.578125 6.085938 -1.351562 6.015625 -1.125 C 5.941406 -0.90625 5.847656 -0.71875 5.734375 -0.5625 C 5.617188 -0.414062 5.484375 -0.34375 5.328125 -0.34375 C 5.171875 -0.351562 4.988281 -0.472656 4.78125 -0.703125 C 4.5625 -0.960938 4.429688 -1.273438 4.390625 -1.640625 C 4.359375 -2.003906 4.363281 -2.375 4.40625 -2.75 C 4.445312 -3.125 4.472656 -3.460938 4.484375 -3.765625 C 4.335938 -3.742188 4.144531 -3.726562 3.90625 -3.71875 C 3.664062 -3.707031 3.425781 -3.6875 3.1875 -3.65625 C 2.957031 -3.632812 2.78125 -3.585938 2.65625 -3.515625 C 2.488281 -3.421875 2.410156 -3.28125 2.421875 -3.09375 C 2.429688 -2.914062 2.429688 -2.707031 2.421875 -2.46875 C 2.410156 -2.238281 2.40625 -1.984375 2.40625 -1.703125 C 2.40625 -1.429688 2.375 -1.164062 2.3125 -0.90625 C 2.25 -0.65625 2.132812 -0.441406 1.96875 -0.265625 Z M 1.96875 -0.265625 "/></g></g><g style="fill:#663100;fill-opacity:1;"><g transform="translate(73.988131, 70.593712)"><path style="stroke:none" d="M 0.25 -8.71875 C 0.175781 -9 0.1875 -9.273438 0.28125 -9.546875 C 0.382812 -9.828125 0.546875 -10.078125 0.765625 -10.296875 C 0.984375 -10.515625 1.226562 -10.660156 1.5 -10.734375 C 1.601562 -10.753906 1.742188 -10.757812 1.921875 -10.75 C 2.097656 -10.738281 2.269531 -10.695312 2.4375 -10.625 C 2.613281 -10.550781 2.75 -10.453125 2.84375 -10.328125 C 2.945312 -10.210938 2.972656 -10.070312 2.921875 -9.90625 C 3.015625 -9.625 3 -9.34375 2.875 -9.0625 C 2.757812 -8.78125 2.582031 -8.535156 2.34375 -8.328125 C 2.101562 -8.117188 1.84375 -7.976562 1.5625 -7.90625 C 1.28125 -7.832031 1.019531 -7.851562 0.78125 -7.96875 C 0.539062 -8.09375 0.363281 -8.34375 0.25 -8.71875 Z M 2.0625 -0.1875 C 1.757812 0.0195312 1.460938 0.0625 1.171875 -0.0625 C 0.890625 -0.195312 0.675781 -0.414062 0.53125 -0.71875 C 0.382812 -1.007812 0.289062 -1.347656 0.25 -1.734375 C 0.207031 -2.117188 0.191406 -2.515625 0.203125 -2.921875 C 0.222656 -3.335938 0.25 -3.742188 0.28125 -4.140625 C 0.320312 -4.546875 0.359375 -4.898438 0.390625 -5.203125 C 0.410156 -5.390625 0.425781 -5.609375 0.4375 -5.859375 C 0.457031 -6.117188 0.5 -6.375 0.5625 -6.625 C 0.625 -6.875 0.726562 -7.070312 0.875 -7.21875 C 1.070312 -7.425781 1.28125 -7.523438 1.5 -7.515625 C 1.726562 -7.503906 1.941406 -7.421875 2.140625 -7.265625 C 2.335938 -7.109375 2.484375 -6.914062 2.578125 -6.6875 C 2.816406 -6.195312 2.953125 -5.644531 2.984375 -5.03125 C 3.015625 -4.414062 2.988281 -3.796875 2.90625 -3.171875 C 2.820312 -2.554688 2.726562 -1.992188 2.625 -1.484375 C 2.582031 -1.253906 2.53125 -1.019531 2.46875 -0.78125 C 2.40625 -0.539062 2.269531 -0.34375 2.0625 -0.1875 Z M 2.0625 -0.1875 "/></g></g><g style="fill:#ffffff;fill-opacity:0.4;"><g transform="translate(30.792139, 85.143695)"><path style="stroke:none" d="M 2.796875 -0.09375 C 2.546875 -0.144531 2.269531 -0.195312 1.96875 -0.25 C 1.664062 -0.3125 1.378906 -0.40625 1.109375 -0.53125 C 0.847656 -0.65625 0.640625 -0.828125 0.484375 -1.046875 C 0.273438 -1.359375 0.195312 -1.640625 0.25 -1.890625 C 0.300781 -2.148438 0.445312 -2.359375 0.6875 -2.515625 C 0.925781 -2.671875 1.207031 -2.742188 1.53125 -2.734375 C 1.738281 -2.734375 1.960938 -2.6875 2.203125 -2.59375 C 2.453125 -2.507812 2.703125 -2.425781 2.953125 -2.34375 C 3.203125 -2.269531 3.4375 -2.253906 3.65625 -2.296875 C 3.875 -2.335938 4.0625 -2.488281 4.21875 -2.75 C 4.40625 -3.039062 4.429688 -3.300781 4.296875 -3.53125 C 4.171875 -3.757812 3.984375 -3.953125 3.734375 -4.109375 C 3.484375 -4.273438 3.253906 -4.410156 3.046875 -4.515625 C 2.191406 -4.921875 1.566406 -5.46875 1.171875 -6.15625 C 0.773438 -6.84375 0.644531 -7.664062 0.78125 -8.625 C 0.914062 -9.582031 1.300781 -10.40625 1.9375 -11.09375 C 2.570312 -11.789062 3.347656 -12.269531 4.265625 -12.53125 C 4.703125 -12.664062 5.1875 -12.738281 5.71875 -12.75 C 6.25 -12.757812 6.71875 -12.632812 7.125 -12.375 C 7.363281 -12.226562 7.539062 -12.03125 7.65625 -11.78125 C 7.78125 -11.53125 7.8125 -11.285156 7.75 -11.046875 C 7.695312 -10.804688 7.5 -10.628906 7.15625 -10.515625 C 6.789062 -10.410156 6.425781 -10.257812 6.0625 -10.0625 C 5.707031 -9.863281 5.390625 -9.632812 5.109375 -9.375 C 4.828125 -9.125 4.625 -8.84375 4.5 -8.53125 C 4.382812 -8.226562 4.375 -7.910156 4.46875 -7.578125 C 4.570312 -7.242188 4.832031 -6.90625 5.25 -6.5625 C 5.5 -6.34375 5.757812 -6.140625 6.03125 -5.953125 C 6.300781 -5.765625 6.550781 -5.5625 6.78125 -5.34375 C 7.007812 -5.132812 7.195312 -4.863281 7.34375 -4.53125 C 7.539062 -4.113281 7.644531 -3.660156 7.65625 -3.171875 C 7.675781 -2.691406 7.597656 -2.242188 7.421875 -1.828125 C 7.222656 -1.367188 6.953125 -1.003906 6.609375 -0.734375 C 6.265625 -0.460938 5.878906 -0.269531 5.453125 -0.15625 C 5.023438 -0.0507812 4.582031 0 4.125 0 C 3.664062 0 3.222656 -0.03125 2.796875 -0.09375 Z M 2.796875 -0.09375 "/></g></g><g style="fill:#ffffff;fill-opacity:0.4;"><g transform="translate(38.820939, 85.143695)"><path style="stroke:none" d="M 4.0625 0 C 3.78125 -0.0195312 3.539062 -0.109375 3.34375 -0.265625 C 3.15625 -0.421875 2.992188 -0.613281 2.859375 -0.84375 C 2.722656 -1.070312 2.597656 -1.296875 2.484375 -1.515625 C 2.097656 -2.335938 1.707031 -3.171875 1.3125 -4.015625 C 0.925781 -4.867188 0.613281 -5.734375 0.375 -6.609375 C 0.3125 -6.816406 0.269531 -7.066406 0.25 -7.359375 C 0.238281 -7.660156 0.253906 -7.960938 0.296875 -8.265625 C 0.347656 -8.566406 0.429688 -8.820312 0.546875 -9.03125 C 0.671875 -9.238281 0.84375 -9.351562 1.0625 -9.375 C 1.28125 -9.394531 1.554688 -9.265625 1.890625 -8.984375 C 2.148438 -8.765625 2.359375 -8.472656 2.515625 -8.109375 C 2.671875 -7.753906 2.816406 -7.421875 2.953125 -7.109375 C 3.203125 -6.535156 3.429688 -5.957031 3.640625 -5.375 C 3.859375 -4.800781 4.078125 -4.21875 4.296875 -3.625 C 4.429688 -3.945312 4.523438 -4.191406 4.578125 -4.359375 C 4.640625 -4.535156 4.628906 -4.78125 4.546875 -5.09375 C 4.515625 -5.238281 4.46875 -5.382812 4.40625 -5.53125 C 4.34375 -5.675781 4.28125 -5.816406 4.21875 -5.953125 C 4.125 -6.222656 4.035156 -6.5 3.953125 -6.78125 C 3.867188 -7.070312 3.816406 -7.359375 3.796875 -7.640625 C 3.753906 -8.117188 3.8125 -8.484375 3.96875 -8.734375 C 4.132812 -8.992188 4.347656 -9.140625 4.609375 -9.171875 C 4.878906 -9.203125 5.15625 -9.125 5.4375 -8.9375 C 5.71875 -8.757812 5.957031 -8.46875 6.15625 -8.0625 C 6.3125 -8.351562 6.519531 -8.59375 6.78125 -8.78125 C 7.050781 -8.96875 7.320312 -9.085938 7.59375 -9.140625 C 7.875 -9.191406 8.128906 -9.140625 8.359375 -8.984375 C 8.585938 -8.828125 8.753906 -8.539062 8.859375 -8.125 C 8.941406 -7.71875 8.921875 -7.320312 8.796875 -6.9375 C 8.679688 -6.550781 8.523438 -6.175781 8.328125 -5.8125 C 8.140625 -5.445312 7.992188 -5.082031 7.890625 -4.71875 C 7.785156 -4.351562 7.800781 -3.988281 7.9375 -3.625 C 8.007812 -3.8125 8.113281 -4.101562 8.25 -4.5 C 8.382812 -4.894531 8.539062 -5.332031 8.71875 -5.8125 C 8.894531 -6.300781 9.097656 -6.78125 9.328125 -7.25 C 9.554688 -7.71875 9.800781 -8.125 10.0625 -8.46875 C 10.332031 -8.820312 10.617188 -9.0625 10.921875 -9.1875 C 11.234375 -9.3125 11.5625 -9.257812 11.90625 -9.03125 C 12.226562 -8.820312 12.429688 -8.550781 12.515625 -8.21875 C 12.609375 -7.882812 12.613281 -7.507812 12.53125 -7.09375 C 12.457031 -6.6875 12.328125 -6.265625 12.140625 -5.828125 C 11.960938 -5.390625 11.757812 -4.96875 11.53125 -4.5625 C 11.300781 -4.15625 11.082031 -3.785156 10.875 -3.453125 C 10.664062 -3.117188 10.492188 -2.847656 10.359375 -2.640625 C 10.191406 -2.378906 10 -2.066406 9.78125 -1.703125 C 9.570312 -1.335938 9.332031 -1 9.0625 -0.6875 C 8.800781 -0.382812 8.507812 -0.179688 8.1875 -0.078125 C 7.820312 0.0234375 7.5 0.00390625 7.21875 -0.140625 C 6.945312 -0.296875 6.71875 -0.515625 6.53125 -0.796875 C 6.34375 -1.085938 6.1875 -1.378906 6.0625 -1.671875 C 5.90625 -1.429688 5.734375 -1.175781 5.546875 -0.90625 C 5.359375 -0.644531 5.144531 -0.421875 4.90625 -0.234375 C 4.675781 -0.0546875 4.394531 0.0195312 4.0625 0 Z M 4.0625 0 "/></g></g><g style="fill:#ffffff;fill-opacity:0.4;"><g transform="translate(51.657, 85.143695)"><path style="stroke:none" d="M 2.765625 -0.03125 C 2.546875 -0.03125 2.304688 -0.0195312 2.046875 0 C 1.796875 0.0078125 1.550781 -0.0078125 1.3125 -0.0625 C 1.070312 -0.113281 0.859375 -0.226562 0.671875 -0.40625 C 0.472656 -0.601562 0.347656 -0.835938 0.296875 -1.109375 C 0.253906 -1.390625 0.242188 -1.679688 0.265625 -1.984375 C 0.285156 -2.296875 0.300781 -2.578125 0.3125 -2.828125 C 0.332031 -3.304688 0.351562 -3.78125 0.375 -4.25 C 0.40625 -4.71875 0.429688 -5.191406 0.453125 -5.671875 C 0.472656 -6.234375 0.492188 -6.796875 0.515625 -7.359375 C 0.546875 -7.921875 0.566406 -8.476562 0.578125 -9.03125 C 0.609375 -9.34375 0.609375 -9.6875 0.578125 -10.0625 C 0.554688 -10.445312 0.601562 -10.789062 0.71875 -11.09375 C 0.820312 -11.375 1.007812 -11.582031 1.28125 -11.71875 C 1.550781 -11.851562 1.867188 -11.941406 2.234375 -11.984375 C 2.609375 -12.023438 2.988281 -12.03125 3.375 -12 C 3.769531 -11.96875 4.144531 -11.925781 4.5 -11.875 C 4.851562 -11.832031 5.140625 -11.796875 5.359375 -11.765625 C 5.617188 -11.722656 5.863281 -11.671875 6.09375 -11.609375 C 6.332031 -11.546875 6.53125 -11.4375 6.6875 -11.28125 C 6.851562 -11.132812 6.953125 -10.910156 6.984375 -10.609375 C 7.023438 -10.296875 6.972656 -10.007812 6.828125 -9.75 C 6.679688 -9.5 6.46875 -9.3125 6.1875 -9.1875 C 5.957031 -9.09375 5.726562 -9.0625 5.5 -9.09375 C 5.28125 -9.132812 5.0625 -9.175781 4.84375 -9.21875 C 4.625 -9.257812 4.40625 -9.253906 4.1875 -9.203125 C 4.050781 -9.179688 3.914062 -9.09375 3.78125 -8.9375 C 3.65625 -8.78125 3.582031 -8.609375 3.5625 -8.421875 C 3.550781 -8.234375 3.640625 -8.066406 3.828125 -7.921875 C 3.972656 -7.816406 4.175781 -7.769531 4.4375 -7.78125 C 4.707031 -7.789062 4.984375 -7.804688 5.265625 -7.828125 C 5.554688 -7.847656 5.789062 -7.828125 5.96875 -7.765625 C 6.25 -7.648438 6.445312 -7.503906 6.5625 -7.328125 C 6.6875 -7.148438 6.757812 -6.914062 6.78125 -6.625 C 6.820312 -6.28125 6.785156 -5.929688 6.671875 -5.578125 C 6.566406 -5.234375 6.332031 -5.003906 5.96875 -4.890625 C 5.738281 -4.835938 5.492188 -4.84375 5.234375 -4.90625 C 4.984375 -4.96875 4.734375 -5.007812 4.484375 -5.03125 C 4.242188 -5.0625 4.03125 -4.988281 3.84375 -4.8125 C 3.601562 -4.582031 3.503906 -4.378906 3.546875 -4.203125 C 3.585938 -4.035156 3.707031 -3.890625 3.90625 -3.765625 C 4.101562 -3.648438 4.320312 -3.554688 4.5625 -3.484375 C 4.800781 -3.421875 5 -3.382812 5.15625 -3.375 C 5.394531 -3.363281 5.648438 -3.363281 5.921875 -3.375 C 6.203125 -3.394531 6.476562 -3.390625 6.75 -3.359375 C 7.019531 -3.335938 7.253906 -3.25 7.453125 -3.09375 C 7.640625 -2.957031 7.757812 -2.765625 7.8125 -2.515625 C 7.863281 -2.273438 7.867188 -2.03125 7.828125 -1.78125 C 7.796875 -1.53125 7.75 -1.3125 7.6875 -1.125 C 7.519531 -0.707031 7.28125 -0.441406 6.96875 -0.328125 C 6.65625 -0.210938 6.285156 -0.140625 5.859375 -0.109375 C 5.347656 -0.0859375 4.835938 -0.0703125 4.328125 -0.0625 C 3.816406 -0.0625 3.296875 -0.0507812 2.765625 -0.03125 Z M 2.765625 -0.03125 "/></g></g><g style="fill:#ffffff;fill-opacity:0.4;"><g transform="translate(59.752568, 85.143695)"><path style="stroke:none" d="M 2.765625 -0.03125 C 2.546875 -0.03125 2.304688 -0.0195312 2.046875 0 C 1.796875 0.0078125 1.550781 -0.0078125 1.3125 -0.0625 C 1.070312 -0.113281 0.859375 -0.226562 0.671875 -0.40625 C 0.472656 -0.601562 0.347656 -0.835938 0.296875 -1.109375 C 0.253906 -1.390625 0.242188 -1.679688 0.265625 -1.984375 C 0.285156 -2.296875 0.300781 -2.578125 0.3125 -2.828125 C 0.332031 -3.304688 0.351562 -3.78125 0.375 -4.25 C 0.40625 -4.71875 0.429688 -5.191406 0.453125 -5.671875 C 0.472656 -6.234375 0.492188 -6.796875 0.515625 -7.359375 C 0.546875 -7.921875 0.566406 -8.476562 0.578125 -9.03125 C 0.609375 -9.34375 0.609375 -9.6875 0.578125 -10.0625 C 0.554688 -10.445312 0.601562 -10.789062 0.71875 -11.09375 C 0.820312 -11.375 1.007812 -11.582031 1.28125 -11.71875 C 1.550781 -11.851562 1.867188 -11.941406 2.234375 -11.984375 C 2.609375 -12.023438 2.988281 -12.03125 3.375 -12 C 3.769531 -11.96875 4.144531 -11.925781 4.5 -11.875 C 4.851562 -11.832031 5.140625 -11.796875 5.359375 -11.765625 C 5.617188 -11.722656 5.863281 -11.671875 6.09375 -11.609375 C 6.332031 -11.546875 6.53125 -11.4375 6.6875 -11.28125 C 6.851562 -11.132812 6.953125 -10.910156 6.984375 -10.609375 C 7.023438 -10.296875 6.972656 -10.007812 6.828125 -9.75 C 6.679688 -9.5 6.46875 -9.3125 6.1875 -9.1875 C 5.957031 -9.09375 5.726562 -9.0625 5.5 -9.09375 C 5.28125 -9.132812 5.0625 -9.175781 4.84375 -9.21875 C 4.625 -9.257812 4.40625 -9.253906 4.1875 -9.203125 C 4.050781 -9.179688 3.914062 -9.09375 3.78125 -8.9375 C 3.65625 -8.78125 3.582031 -8.609375 3.5625 -8.421875 C 3.550781 -8.234375 3.640625 -8.066406 3.828125 -7.921875 C 3.972656 -7.816406 4.175781 -7.769531 4.4375 -7.78125 C 4.707031 -7.789062 4.984375 -7.804688 5.265625 -7.828125 C 5.554688 -7.847656 5.789062 -7.828125 5.96875 -7.765625 C 6.25 -7.648438 6.445312 -7.503906 6.5625 -7.328125 C 6.6875 -7.148438 6.757812 -6.914062 6.78125 -6.625 C 6.820312 -6.28125 6.785156 -5.929688 6.671875 -5.578125 C 6.566406 -5.234375 6.332031 -5.003906 5.96875 -4.890625 C 5.738281 -4.835938 5.492188 -4.84375 5.234375 -4.90625 C 4.984375 -4.96875 4.734375 -5.007812 4.484375 -5.03125 C 4.242188 -5.0625 4.03125 -4.988281 3.84375 -4.8125 C 3.601562 -4.582031 3.503906 -4.378906 3.546875 -4.203125 C 3.585938 -4.035156 3.707031 -3.890625 3.90625 -3.765625 C 4.101562 -3.648438 4.320312 -3.554688 4.5625 -3.484375 C 4.800781 -3.421875 5 -3.382812 5.15625 -3.375 C 5.394531 -3.363281 5.648438 -3.363281 5.921875 -3.375 C 6.203125 -3.394531 6.476562 -3.390625 6.75 -3.359375 C 7.019531 -3.335938 7.253906 -3.25 7.453125 -3.09375 C 7.640625 -2.957031 7.757812 -2.765625 7.8125 -2.515625 C 7.863281 -2.273438 7.867188 -2.03125 7.828125 -1.78125 C 7.796875 -1.53125 7.75 -1.3125 7.6875 -1.125 C 7.519531 -0.707031 7.28125 -0.441406 6.96875 -0.328125 C 6.65625 -0.210938 6.285156 -0.140625 5.859375 -0.109375 C 5.347656 -0.0859375 4.835938 -0.0703125 4.328125 -0.0625 C 3.816406 -0.0625 3.296875 -0.0507812 2.765625 -0.03125 Z M 2.765625 -0.03125 "/></g></g><g style="fill:#ffffff;fill-opacity:0.4;"><g transform="translate(67.848136, 85.143695)"><path style="stroke:none" d="M 4.140625 0 C 3.816406 0 3.5625 -0.078125 3.375 -0.234375 C 3.195312 -0.390625 3.066406 -0.59375 2.984375 -0.84375 C 2.898438 -1.09375 2.851562 -1.351562 2.84375 -1.625 C 2.832031 -1.90625 2.832031 -2.164062 2.84375 -2.40625 C 2.875 -3.34375 2.921875 -4.269531 2.984375 -5.1875 C 3.054688 -6.113281 3.078125 -7.050781 3.046875 -8 C 2.742188 -7.988281 2.414062 -7.976562 2.0625 -7.96875 C 1.707031 -7.96875 1.378906 -8.023438 1.078125 -8.140625 C 0.773438 -8.253906 0.546875 -8.472656 0.390625 -8.796875 C 0.234375 -9.117188 0.207031 -9.453125 0.3125 -9.796875 C 0.414062 -10.148438 0.632812 -10.398438 0.96875 -10.546875 C 1.226562 -10.660156 1.546875 -10.703125 1.921875 -10.671875 C 2.304688 -10.648438 2.695312 -10.609375 3.09375 -10.546875 C 3.488281 -10.484375 3.828125 -10.441406 4.109375 -10.421875 C 4.585938 -10.398438 5.09375 -10.394531 5.625 -10.40625 C 6.164062 -10.414062 6.65625 -10.316406 7.09375 -10.109375 C 7.300781 -10.015625 7.472656 -9.875 7.609375 -9.6875 C 7.742188 -9.5 7.820312 -9.289062 7.84375 -9.0625 C 7.875 -8.84375 7.8125 -8.632812 7.65625 -8.4375 C 7.507812 -8.25 7.285156 -8.125 6.984375 -8.0625 C 6.691406 -8 6.382812 -7.96875 6.0625 -7.96875 C 5.75 -7.976562 5.484375 -7.984375 5.265625 -7.984375 C 5.296875 -7.765625 5.347656 -7.414062 5.421875 -6.9375 C 5.503906 -6.46875 5.582031 -5.929688 5.65625 -5.328125 C 5.726562 -4.734375 5.769531 -4.128906 5.78125 -3.515625 C 5.789062 -2.898438 5.75 -2.328125 5.65625 -1.796875 C 5.570312 -1.265625 5.410156 -0.832031 5.171875 -0.5 C 4.929688 -0.175781 4.585938 -0.0078125 4.140625 0 Z M 4.140625 0 "/></g></g><g style="fill:#ffffff;fill-opacity:0.4;"><g transform="translate(75.693322, 85.143695)"><path style="stroke:none" d="M 2.796875 -0.09375 C 2.546875 -0.144531 2.269531 -0.195312 1.96875 -0.25 C 1.664062 -0.3125 1.378906 -0.40625 1.109375 -0.53125 C 0.847656 -0.65625 0.640625 -0.828125 0.484375 -1.046875 C 0.273438 -1.359375 0.195312 -1.640625 0.25 -1.890625 C 0.300781 -2.148438 0.445312 -2.359375 0.6875 -2.515625 C 0.925781 -2.671875 1.207031 -2.742188 1.53125 -2.734375 C 1.738281 -2.734375 1.960938 -2.6875 2.203125 -2.59375 C 2.453125 -2.507812 2.703125 -2.425781 2.953125 -2.34375 C 3.203125 -2.269531 3.4375 -2.253906 3.65625 -2.296875 C 3.875 -2.335938 4.0625 -2.488281 4.21875 -2.75 C 4.40625 -3.039062 4.429688 -3.300781 4.296875 -3.53125 C 4.171875 -3.757812 3.984375 -3.953125 3.734375 -4.109375 C 3.484375 -4.273438 3.253906 -4.410156 3.046875 -4.515625 C 2.191406 -4.921875 1.566406 -5.46875 1.171875 -6.15625 C 0.773438 -6.84375 0.644531 -7.664062 0.78125 -8.625 C 0.914062 -9.582031 1.300781 -10.40625 1.9375 -11.09375 C 2.570312 -11.789062 3.347656 -12.269531 4.265625 -12.53125 C 4.703125 -12.664062 5.1875 -12.738281 5.71875 -12.75 C 6.25 -12.757812 6.71875 -12.632812 7.125 -12.375 C 7.363281 -12.226562 7.539062 -12.03125 7.65625 -11.78125 C 7.78125 -11.53125 7.8125 -11.285156 7.75 -11.046875 C 7.695312 -10.804688 7.5 -10.628906 7.15625 -10.515625 C 6.789062 -10.410156 6.425781 -10.257812 6.0625 -10.0625 C 5.707031 -9.863281 5.390625 -9.632812 5.109375 -9.375 C 4.828125 -9.125 4.625 -8.84375 4.5 -8.53125 C 4.382812 -8.226562 4.375 -7.910156 4.46875 -7.578125 C 4.570312 -7.242188 4.832031 -6.90625 5.25 -6.5625 C 5.5 -6.34375 5.757812 -6.140625 6.03125 -5.953125 C 6.300781 -5.765625 6.550781 -5.5625 6.78125 -5.34375 C 7.007812 -5.132812 7.195312 -4.863281 7.34375 -4.53125 C 7.539062 -4.113281 7.644531 -3.660156 7.65625 -3.171875 C 7.675781 -2.691406 7.597656 -2.242188 7.421875 -1.828125 C 7.222656 -1.367188 6.953125 -1.003906 6.609375 -0.734375 C 6.265625 -0.460938 5.878906 -0.269531 5.453125 -0.15625 C 5.023438 -0.0507812 4.582031 0 4.125 0 C 3.664062 0 3.222656 -0.03125 2.796875 -0.09375 Z M 2.796875 -0.09375 "/></g></g><g style="fill:#000000;fill-opacity:1;"><g transform="translate(31.599229, 84.833883)"><path style="stroke:none" d="M 2.796875 -0.09375 C 2.546875 -0.144531 2.269531 -0.195312 1.96875 -0.25 C 1.664062 -0.3125 1.378906 -0.40625 1.109375 -0.53125 C 0.847656 -0.65625 0.640625 -0.828125 0.484375 -1.046875 C 0.273438 -1.359375 0.195312 -1.640625 0.25 -1.890625 C 0.300781 -2.148438 0.445312 -2.359375 0.6875 -2.515625 C 0.925781 -2.671875 1.207031 -2.742188 1.53125 -2.734375 C 1.738281 -2.734375 1.960938 -2.6875 2.203125 -2.59375 C 2.453125 -2.507812 2.703125 -2.425781 2.953125 -2.34375 C 3.203125 -2.269531 3.4375 -2.253906 3.65625 -2.296875 C 3.875 -2.335938 4.0625 -2.488281 4.21875 -2.75 C 4.40625 -3.039062 4.429688 -3.300781 4.296875 -3.53125 C 4.171875 -3.757812 3.984375 -3.953125 3.734375 -4.109375 C 3.484375 -4.273438 3.253906 -4.410156 3.046875 -4.515625 C 2.191406 -4.921875 1.566406 -5.46875 1.171875 -6.15625 C 0.773438 -6.84375 0.644531 -7.664062 0.78125 -8.625 C 0.914062 -9.582031 1.300781 -10.40625 1.9375 -11.09375 C 2.570312 -11.789062 3.347656 -12.269531 4.265625 -12.53125 C 4.703125 -12.664062 5.1875 -12.738281 5.71875 -12.75 C 6.25 -12.757812 6.71875 -12.632812 7.125 -12.375 C 7.363281 -12.226562 7.539062 -12.03125 7.65625 -11.78125 C 7.78125 -11.53125 7.8125 -11.285156 7.75 -11.046875 C 7.695312 -10.804688 7.5 -10.628906 7.15625 -10.515625 C 6.789062 -10.410156 6.425781 -10.257812 6.0625 -10.0625 C 5.707031 -9.863281 5.390625 -9.632812 5.109375 -9.375 C 4.828125 -9.125 4.625 -8.84375 4.5 -8.53125 C 4.382812 -8.226562 4.375 -7.910156 4.46875 -7.578125 C 4.570312 -7.242188 4.832031 -6.90625 5.25 -6.5625 C 5.5 -6.34375 5.757812 -6.140625 6.03125 -5.953125 C 6.300781 -5.765625 6.550781 -5.5625 6.78125 -5.34375 C 7.007812 -5.132812 7.195312 -4.863281 7.34375 -4.53125 C 7.539062 -4.113281 7.644531 -3.660156 7.65625 -3.171875 C 7.675781 -2.691406 7.597656 -2.242188 7.421875 -1.828125 C 7.222656 -1.367188 6.953125 -1.003906 6.609375 -0.734375 C 6.265625 -0.460938 5.878906 -0.269531 5.453125 -0.15625 C 5.023438 -0.0507812 4.582031 0 4.125 0 C 3.664062 0 3.222656 -0.03125 2.796875 -0.09375 Z M 2.796875 -0.09375 "/></g></g><g style="fill:#000000;fill-opacity:1;"><g transform="translate(39.628028, 84.833883)"><path style="stroke:none" d="M 4.0625 0 C 3.78125 -0.0195312 3.539062 -0.109375 3.34375 -0.265625 C 3.15625 -0.421875 2.992188 -0.613281 2.859375 -0.84375 C 2.722656 -1.070312 2.597656 -1.296875 2.484375 -1.515625 C 2.097656 -2.335938 1.707031 -3.171875 1.3125 -4.015625 C 0.925781 -4.867188 0.613281 -5.734375 0.375 -6.609375 C 0.3125 -6.816406 0.269531 -7.066406 0.25 -7.359375 C 0.238281 -7.660156 0.253906 -7.960938 0.296875 -8.265625 C 0.347656 -8.566406 0.429688 -8.820312 0.546875 -9.03125 C 0.671875 -9.238281 0.84375 -9.351562 1.0625 -9.375 C 1.28125 -9.394531 1.554688 -9.265625 1.890625 -8.984375 C 2.148438 -8.765625 2.359375 -8.472656 2.515625 -8.109375 C 2.671875 -7.753906 2.816406 -7.421875 2.953125 -7.109375 C 3.203125 -6.535156 3.429688 -5.957031 3.640625 -5.375 C 3.859375 -4.800781 4.078125 -4.21875 4.296875 -3.625 C 4.429688 -3.945312 4.523438 -4.191406 4.578125 -4.359375 C 4.640625 -4.535156 4.628906 -4.78125 4.546875 -5.09375 C 4.515625 -5.238281 4.46875 -5.382812 4.40625 -5.53125 C 4.34375 -5.675781 4.28125 -5.816406 4.21875 -5.953125 C 4.125 -6.222656 4.035156 -6.5 3.953125 -6.78125 C 3.867188 -7.070312 3.816406 -7.359375 3.796875 -7.640625 C 3.753906 -8.117188 3.8125 -8.484375 3.96875 -8.734375 C 4.132812 -8.992188 4.347656 -9.140625 4.609375 -9.171875 C 4.878906 -9.203125 5.15625 -9.125 5.4375 -8.9375 C 5.71875 -8.757812 5.957031 -8.46875 6.15625 -8.0625 C 6.3125 -8.351562 6.519531 -8.59375 6.78125 -8.78125 C 7.050781 -8.96875 7.320312 -9.085938 7.59375 -9.140625 C 7.875 -9.191406 8.128906 -9.140625 8.359375 -8.984375 C 8.585938 -8.828125 8.753906 -8.539062 8.859375 -8.125 C 8.941406 -7.71875 8.921875 -7.320312 8.796875 -6.9375 C 8.679688 -6.550781 8.523438 -6.175781 8.328125 -5.8125 C 8.140625 -5.445312 7.992188 -5.082031 7.890625 -4.71875 C 7.785156 -4.351562 7.800781 -3.988281 7.9375 -3.625 C 8.007812 -3.8125 8.113281 -4.101562 8.25 -4.5 C 8.382812 -4.894531 8.539062 -5.332031 8.71875 -5.8125 C 8.894531 -6.300781 9.097656 -6.78125 9.328125 -7.25 C 9.554688 -7.71875 9.800781 -8.125 10.0625 -8.46875 C 10.332031 -8.820312 10.617188 -9.0625 10.921875 -9.1875 C 11.234375 -9.3125 11.5625 -9.257812 11.90625 -9.03125 C 12.226562 -8.820312 12.429688 -8.550781 12.515625 -8.21875 C 12.609375 -7.882812 12.613281 -7.507812 12.53125 -7.09375 C 12.457031 -6.6875 12.328125 -6.265625 12.140625 -5.828125 C 11.960938 -5.390625 11.757812 -4.96875 11.53125 -4.5625 C 11.300781 -4.15625 11.082031 -3.785156 10.875 -3.453125 C 10.664062 -3.117188 10.492188 -2.847656 10.359375 -2.640625 C 10.191406 -2.378906 10 -2.066406 9.78125 -1.703125 C 9.570312 -1.335938 9.332031 -1 9.0625 -0.6875 C 8.800781 -0.382812 8.507812 -0.179688 8.1875 -0.078125 C 7.820312 0.0234375 7.5 0.00390625 7.21875 -0.140625 C 6.945312 -0.296875 6.71875 -0.515625 6.53125 -0.796875 C 6.34375 -1.085938 6.1875 -1.378906 6.0625 -1.671875 C 5.90625 -1.429688 5.734375 -1.175781 5.546875 -0.90625 C 5.359375 -0.644531 5.144531 -0.421875 4.90625 -0.234375 C 4.675781 -0.0546875 4.394531 0.0195312 4.0625 0 Z M 4.0625 0 "/></g></g><g style="fill:#000000;fill-opacity:1;"><g transform="translate(52.464089, 84.833883)"><path style="stroke:none" d="M 2.765625 -0.03125 C 2.546875 -0.03125 2.304688 -0.0195312 2.046875 0 C 1.796875 0.0078125 1.550781 -0.0078125 1.3125 -0.0625 C 1.070312 -0.113281 0.859375 -0.226562 0.671875 -0.40625 C 0.472656 -0.601562 0.347656 -0.835938 0.296875 -1.109375 C 0.253906 -1.390625 0.242188 -1.679688 0.265625 -1.984375 C 0.285156 -2.296875 0.300781 -2.578125 0.3125 -2.828125 C 0.332031 -3.304688 0.351562 -3.78125 0.375 -4.25 C 0.40625 -4.71875 0.429688 -5.191406 0.453125 -5.671875 C 0.472656 -6.234375 0.492188 -6.796875 0.515625 -7.359375 C 0.546875 -7.921875 0.566406 -8.476562 0.578125 -9.03125 C 0.609375 -9.34375 0.609375 -9.6875 0.578125 -10.0625 C 0.554688 -10.445312 0.601562 -10.789062 0.71875 -11.09375 C 0.820312 -11.375 1.007812 -11.582031 1.28125 -11.71875 C 1.550781 -11.851562 1.867188 -11.941406 2.234375 -11.984375 C 2.609375 -12.023438 2.988281 -12.03125 3.375 -12 C 3.769531 -11.96875 4.144531 -11.925781 4.5 -11.875 C 4.851562 -11.832031 5.140625 -11.796875 5.359375 -11.765625 C 5.617188 -11.722656 5.863281 -11.671875 6.09375 -11.609375 C 6.332031 -11.546875 6.53125 -11.4375 6.6875 -11.28125 C 6.851562 -11.132812 6.953125 -10.910156 6.984375 -10.609375 C 7.023438 -10.296875 6.972656 -10.007812 6.828125 -9.75 C 6.679688 -9.5 6.46875 -9.3125 6.1875 -9.1875 C 5.957031 -9.09375 5.726562 -9.0625 5.5 -9.09375 C 5.28125 -9.132812 5.0625 -9.175781 4.84375 -9.21875 C 4.625 -9.257812 4.40625 -9.253906 4.1875 -9.203125 C 4.050781 -9.179688 3.914062 -9.09375 3.78125 -8.9375 C 3.65625 -8.78125 3.582031 -8.609375 3.5625 -8.421875 C 3.550781 -8.234375 3.640625 -8.066406 3.828125 -7.921875 C 3.972656 -7.816406 4.175781 -7.769531 4.4375 -7.78125 C 4.707031 -7.789062 4.984375 -7.804688 5.265625 -7.828125 C 5.554688 -7.847656 5.789062 -7.828125 5.96875 -7.765625 C 6.25 -7.648438 6.445312 -7.503906 6.5625 -7.328125 C 6.6875 -7.148438 6.757812 -6.914062 6.78125 -6.625 C 6.820312 -6.28125 6.785156 -5.929688 6.671875 -5.578125 C 6.566406 -5.234375 6.332031 -5.003906 5.96875 -4.890625 C 5.738281 -4.835938 5.492188 -4.84375 5.234375 -4.90625 C 4.984375 -4.96875 4.734375 -5.007812 4.484375 -5.03125 C 4.242188 -5.0625 4.03125 -4.988281 3.84375 -4.8125 C 3.601562 -4.582031 3.503906 -4.378906 3.546875 -4.203125 C 3.585938 -4.035156 3.707031 -3.890625 3.90625 -3.765625 C 4.101562 -3.648438 4.320312 -3.554688 4.5625 -3.484375 C 4.800781 -3.421875 5 -3.382812 5.15625 -3.375 C 5.394531 -3.363281 5.648438 -3.363281 5.921875 -3.375 C 6.203125 -3.394531 6.476562 -3.390625 6.75 -3.359375 C 7.019531 -3.335938 7.253906 -3.25 7.453125 -3.09375 C 7.640625 -2.957031 7.757812 -2.765625 7.8125 -2.515625 C 7.863281 -2.273438 7.867188 -2.03125 7.828125 -1.78125 C 7.796875 -1.53125 7.75 -1.3125 7.6875 -1.125 C 7.519531 -0.707031 7.28125 -0.441406 6.96875 -0.328125 C 6.65625 -0.210938 6.285156 -0.140625 5.859375 -0.109375 C 5.347656 -0.0859375 4.835938 -0.0703125 4.328125 -0.0625 C 3.816406 -0.0625 3.296875 -0.0507812 2.765625 -0.03125 Z M 2.765625 -0.03125 "/></g></g><g style="fill:#000000;fill-opacity:1;"><g transform="translate(60.559657, 84.833883)"><path style="stroke:none" d="M 2.765625 -0.03125 C 2.546875 -0.03125 2.304688 -0.0195312 2.046875 0 C 1.796875 0.0078125 1.550781 -0.0078125 1.3125 -0.0625 C 1.070312 -0.113281 0.859375 -0.226562 0.671875 -0.40625 C 0.472656 -0.601562 0.347656 -0.835938 0.296875 -1.109375 C 0.253906 -1.390625 0.242188 -1.679688 0.265625 -1.984375 C 0.285156 -2.296875 0.300781 -2.578125 0.3125 -2.828125 C 0.332031 -3.304688 0.351562 -3.78125 0.375 -4.25 C 0.40625 -4.71875 0.429688 -5.191406 0.453125 -5.671875 C 0.472656 -6.234375 0.492188 -6.796875 0.515625 -7.359375 C 0.546875 -7.921875 0.566406 -8.476562 0.578125 -9.03125 C 0.609375 -9.34375 0.609375 -9.6875 0.578125 -10.0625 C 0.554688 -10.445312 0.601562 -10.789062 0.71875 -11.09375 C 0.820312 -11.375 1.007812 -11.582031 1.28125 -11.71875 C 1.550781 -11.851562 1.867188 -11.941406 2.234375 -11.984375 C 2.609375 -12.023438 2.988281 -12.03125 3.375 -12 C 3.769531 -11.96875 4.144531 -11.925781 4.5 -11.875 C 4.851562 -11.832031 5.140625 -11.796875 5.359375 -11.765625 C 5.617188 -11.722656 5.863281 -11.671875 6.09375 -11.609375 C 6.332031 -11.546875 6.53125 -11.4375 6.6875 -11.28125 C 6.851562 -11.132812 6.953125 -10.910156 6.984375 -10.609375 C 7.023438 -10.296875 6.972656 -10.007812 6.828125 -9.75 C 6.679688 -9.5 6.46875 -9.3125 6.1875 -9.1875 C 5.957031 -9.09375 5.726562 -9.0625 5.5 -9.09375 C 5.28125 -9.132812 5.0625 -9.175781 4.84375 -9.21875 C 4.625 -9.257812 4.40625 -9.253906 4.1875 -9.203125 C 4.050781 -9.179688 3.914062 -9.09375 3.78125 -8.9375 C 3.65625 -8.78125 3.582031 -8.609375 3.5625 -8.421875 C 3.550781 -8.234375 3.640625 -8.066406 3.828125 -7.921875 C 3.972656 -7.816406 4.175781 -7.769531 4.4375 -7.78125 C 4.707031 -7.789062 4.984375 -7.804688 5.265625 -7.828125 C 5.554688 -7.847656 5.789062 -7.828125 5.96875 -7.765625 C 6.25 -7.648438 6.445312 -7.503906 6.5625 -7.328125 C 6.6875 -7.148438 6.757812 -6.914062 6.78125 -6.625 C 6.820312 -6.28125 6.785156 -5.929688 6.671875 -5.578125 C 6.566406 -5.234375 6.332031 -5.003906 5.96875 -4.890625 C 5.738281 -4.835938 5.492188 -4.84375 5.234375 -4.90625 C 4.984375 -4.96875 4.734375 -5.007812 4.484375 -5.03125 C 4.242188 -5.0625 4.03125 -4.988281 3.84375 -4.8125 C 3.601562 -4.582031 3.503906 -4.378906 3.546875 -4.203125 C 3.585938 -4.035156 3.707031 -3.890625 3.90625 -3.765625 C 4.101562 -3.648438 4.320312 -3.554688 4.5625 -3.484375 C 4.800781 -3.421875 5 -3.382812 5.15625 -3.375 C 5.394531 -3.363281 5.648438 -3.363281 5.921875 -3.375 C 6.203125 -3.394531 6.476562 -3.390625 6.75 -3.359375 C 7.019531 -3.335938 7.253906 -3.25 7.453125 -3.09375 C 7.640625 -2.957031 7.757812 -2.765625 7.8125 -2.515625 C 7.863281 -2.273438 7.867188 -2.03125 7.828125 -1.78125 C 7.796875 -1.53125 7.75 -1.3125 7.6875 -1.125 C 7.519531 -0.707031 7.28125 -0.441406 6.96875 -0.328125 C 6.65625 -0.210938 6.285156 -0.140625 5.859375 -0.109375 C 5.347656 -0.0859375 4.835938 -0.0703125 4.328125 -0.0625 C 3.816406 -0.0625 3.296875 -0.0507812 2.765625 -0.03125 Z M 2.765625 -0.03125 "/></g></g><g style="fill:#000000;fill-opacity:1;"><g transform="translate(68.655225, 84.833883)"><path style="stroke:none" d="M 4.140625 0 C 3.816406 0 3.5625 -0.078125 3.375 -0.234375 C 3.195312 -0.390625 3.066406 -0.59375 2.984375 -0.84375 C 2.898438 -1.09375 2.851562 -1.351562 2.84375 -1.625 C 2.832031 -1.90625 2.832031 -2.164062 2.84375 -2.40625 C 2.875 -3.34375 2.921875 -4.269531 2.984375 -5.1875 C 3.054688 -6.113281 3.078125 -7.050781 3.046875 -8 C 2.742188 -7.988281 2.414062 -7.976562 2.0625 -7.96875 C 1.707031 -7.96875 1.378906 -8.023438 1.078125 -8.140625 C 0.773438 -8.253906 0.546875 -8.472656 0.390625 -8.796875 C 0.234375 -9.117188 0.207031 -9.453125 0.3125 -9.796875 C 0.414062 -10.148438 0.632812 -10.398438 0.96875 -10.546875 C 1.226562 -10.660156 1.546875 -10.703125 1.921875 -10.671875 C 2.304688 -10.648438 2.695312 -10.609375 3.09375 -10.546875 C 3.488281 -10.484375 3.828125 -10.441406 4.109375 -10.421875 C 4.585938 -10.398438 5.09375 -10.394531 5.625 -10.40625 C 6.164062 -10.414062 6.65625 -10.316406 7.09375 -10.109375 C 7.300781 -10.015625 7.472656 -9.875 7.609375 -9.6875 C 7.742188 -9.5 7.820312 -9.289062 7.84375 -9.0625 C 7.875 -8.84375 7.8125 -8.632812 7.65625 -8.4375 C 7.507812 -8.25 7.285156 -8.125 6.984375 -8.0625 C 6.691406 -8 6.382812 -7.96875 6.0625 -7.96875 C 5.75 -7.976562 5.484375 -7.984375 5.265625 -7.984375 C 5.296875 -7.765625 5.347656 -7.414062 5.421875 -6.9375 C 5.503906 -6.46875 5.582031 -5.929688 5.65625 -5.328125 C 5.726562 -4.734375 5.769531 -4.128906 5.78125 -3.515625 C 5.789062 -2.898438 5.75 -2.328125 5.65625 -1.796875 C 5.570312 -1.265625 5.410156 -0.832031 5.171875 -0.5 C 4.929688 -0.175781 4.585938 -0.0078125 4.140625 0 Z M 4.140625 0 "/></g></g><g style="fill:#000000;fill-opacity:1;"><g transform="translate(76.500412, 84.833883)"><path style="stroke:none" d="M 2.796875 -0.09375 C 2.546875 -0.144531 2.269531 -0.195312 1.96875 -0.25 C 1.664062 -0.3125 1.378906 -0.40625 1.109375 -0.53125 C 0.847656 -0.65625 0.640625 -0.828125 0.484375 -1.046875 C 0.273438 -1.359375 0.195312 -1.640625 0.25 -1.890625 C 0.300781 -2.148438 0.445312 -2.359375 0.6875 -2.515625 C 0.925781 -2.671875 1.207031 -2.742188 1.53125 -2.734375 C 1.738281 -2.734375 1.960938 -2.6875 2.203125 -2.59375 C 2.453125 -2.507812 2.703125 -2.425781 2.953125 -2.34375 C 3.203125 -2.269531 3.4375 -2.253906 3.65625 -2.296875 C 3.875 -2.335938 4.0625 -2.488281 4.21875 -2.75 C 4.40625 -3.039062 4.429688 -3.300781 4.296875 -3.53125 C 4.171875 -3.757812 3.984375 -3.953125 3.734375 -4.109375 C 3.484375 -4.273438 3.253906 -4.410156 3.046875 -4.515625 C 2.191406 -4.921875 1.566406 -5.46875 1.171875 -6.15625 C 0.773438 -6.84375 0.644531 -7.664062 0.78125 -8.625 C 0.914062 -9.582031 1.300781 -10.40625 1.9375 -11.09375 C 2.570312 -11.789062 3.347656 -12.269531 4.265625 -12.53125 C 4.703125 -12.664062 5.1875 -12.738281 5.71875 -12.75 C 6.25 -12.757812 6.71875 -12.632812 7.125 -12.375 C 7.363281 -12.226562 7.539062 -12.03125 7.65625 -11.78125 C 7.78125 -11.53125 7.8125 -11.285156 7.75 -11.046875 C 7.695312 -10.804688 7.5 -10.628906 7.15625 -10.515625 C 6.789062 -10.410156 6.425781 -10.257812 6.0625 -10.0625 C 5.707031 -9.863281 5.390625 -9.632812 5.109375 -9.375 C 4.828125 -9.125 4.625 -8.84375 4.5 -8.53125 C 4.382812 -8.226562 4.375 -7.910156 4.46875 -7.578125 C 4.570312 -7.242188 4.832031 -6.90625 5.25 -6.5625 C 5.5 -6.34375 5.757812 -6.140625 6.03125 -5.953125 C 6.300781 -5.765625 6.550781 -5.5625 6.78125 -5.34375 C 7.007812 -5.132812 7.195312 -4.863281 7.34375 -4.53125 C 7.539062 -4.113281 7.644531 -3.660156 7.65625 -3.171875 C 7.675781 -2.691406 7.597656 -2.242188 7.421875 -1.828125 C 7.222656 -1.367188 6.953125 -1.003906 6.609375 -0.734375 C 6.265625 -0.460938 5.878906 -0.269531 5.453125 -0.15625 C 5.023438 -0.0507812 4.582031 0 4.125 0 C 3.664062 0 3.222656 -0.03125 2.796875 -0.09375 Z M 2.796875 -0.09375 "/></g></g><g style="fill:#ffffff;fill-opacity:0.4;"><g transform="translate(53.084388, 99.921231)"><path style="stroke:none" d=""/></g></g><g style="fill:#000000;fill-opacity:1;"><g transform="translate(53.891477, 99.611418)"><path style="stroke:none" d=""/></g></g><g style="fill:#ffffff;fill-opacity:0.4;"><g transform="translate(57.257362, 99.921231)"><path style="stroke:none" d=""/></g></g><g style="fill:#663100;fill-opacity:1;"><g transform="translate(58.064451, 99.611418)"><path style="stroke:none" d=""/></g></g></g></svg>